<?xml version="1.0" encoding="UTF-8" standalone="no"?><!-- Generator: Gravit.io --><svg xmlns="http://www.w3.org/2000/svg" xmlns:xlink="http://www.w3.org/1999/xlink" style="isolation:isolate" viewBox="0 0 130.454 76.535" width="130.454pt" height="76.535pt"><defs><clipPath id="_clipPath_vivQG8bN1WfxPG5WGWPgGrzoXfHNCiDB"><rect width="130.454" height="76.535"/></clipPath></defs><g clip-path="url(#_clipPath_vivQG8bN1WfxPG5WGWPgGrzoXfHNCiDB)"><path d=" M 41.205 55.684 L 44.515 55.404 L 42.092 57.677 L 43.381 60.739 L 40.471 59.137 L 37.957 61.309 L 38.581 58.046 L 35.738 56.326 L 39.035 55.912 L 39.792 52.677 L 41.205 55.684 L 41.205 55.684 L 41.205 55.684 L 41.205 55.684 L 41.205 55.684 L 41.205 55.684 L 41.205 55.684 L 41.205 55.684 L 41.205 55.684 L 41.205 55.684 L 41.205 55.684 L 41.205 55.684 L 41.205 55.684 L 41.205 55.684 L 41.205 55.684 L 41.205 55.684 L 41.205 55.684 Z  M 69.7 48.619 L 73.01 48.339 L 70.587 50.612 L 71.876 53.674 L 68.966 52.072 L 66.452 54.244 L 67.076 50.981 L 64.233 49.261 L 67.53 48.847 L 68.287 45.612 L 69.7 48.619 L 69.7 48.619 L 69.7 48.619 L 69.7 48.619 L 69.7 48.619 L 69.7 48.619 L 69.7 48.619 L 69.7 48.619 L 69.7 48.619 L 69.7 48.619 L 69.7 48.619 L 69.7 48.619 L 69.7 48.619 L 69.7 48.619 L 69.7 48.619 L 69.7 48.619 L 69.7 48.619 Z  M 30.121 62.858 L 33.431 62.578 L 31.008 64.851 L 32.297 67.913 L 29.387 66.311 L 26.873 68.483 L 27.497 65.22 L 24.654 63.501 L 27.951 63.086 L 28.708 59.851 L 30.121 62.858 L 30.121 62.858 L 30.121 62.858 L 30.121 62.858 L 30.121 62.858 L 30.121 62.858 L 30.121 62.858 L 30.121 62.858 L 30.121 62.858 L 30.121 62.858 L 30.121 62.858 L 30.121 62.858 L 30.121 62.858 L 30.121 62.858 L 30.121 62.858 L 30.121 62.858 Z  M 74.207 62.278 L 77.518 61.998 L 75.095 64.271 L 76.384 67.333 L 73.473 65.731 L 70.96 67.903 L 71.584 64.64 L 68.741 62.921 L 72.038 62.506 L 72.794 59.271 L 74.207 62.278 L 74.207 62.278 L 74.207 62.278 L 74.207 62.278 L 74.207 62.278 L 74.207 62.278 L 74.207 62.278 L 74.207 62.278 L 74.207 62.278 L 74.207 62.278 L 74.207 62.278 L 74.207 62.278 L 74.207 62.278 L 74.207 62.278 L 74.207 62.278 Z  M 77.529 38.122 L 80.84 37.842 L 78.416 40.115 L 79.706 43.177 L 76.795 41.575 L 74.281 43.748 L 74.906 40.484 L 72.063 38.765 L 75.359 38.35 L 76.116 35.115 L 77.529 38.122 L 77.529 38.122 L 77.529 38.122 L 77.529 38.122 L 77.529 38.122 L 77.529 38.122 L 77.529 38.122 L 77.529 38.122 L 77.529 38.122 L 77.529 38.122 L 77.529 38.122 L 77.529 38.122 L 77.529 38.122 L 77.529 38.122 Z  M 45.24 67.647 L 48.55 67.367 L 46.127 69.64 L 47.416 72.702 L 44.506 71.1 L 41.992 73.273 L 42.616 70.009 L 39.773 68.29 L 43.07 67.875 L 43.827 64.64 L 45.24 67.647 L 45.24 67.647 L 45.24 67.647 L 45.24 67.647 L 45.24 67.647 L 45.24 67.647 L 45.24 67.647 L 45.24 67.647 L 45.24 67.647 L 45.24 67.647 L 45.24 67.647 L 45.24 67.647 L 45.24 67.647 Z  M 23.91 34.984 L 27.221 34.704 L 24.798 36.977 L 26.087 40.039 L 23.176 38.437 L 20.663 40.609 L 21.287 37.346 L 18.444 35.627 L 21.741 35.212 L 22.497 31.977 L 23.91 34.984 L 23.91 34.984 L 23.91 34.984 L 23.91 34.984 L 23.91 34.984 L 23.91 34.984 L 23.91 34.984 L 23.91 34.984 L 23.91 34.984 L 23.91 34.984 L 23.91 34.984 L 23.91 34.984 Z  M 39.575 43.174 L 42.885 42.894 L 40.462 45.167 L 41.751 48.229 L 38.841 46.627 L 36.327 48.799 L 36.952 45.536 L 34.109 43.817 L 37.405 43.402 L 38.162 40.167 L 39.575 43.174 L 39.575 43.174 L 39.575 43.174 L 39.575 43.174 L 39.575 43.174 L 39.575 43.174 L 39.575 43.174 L 39.575 43.174 L 39.575 43.174 L 39.575 43.174 L 39.575 43.174 Z  M 56.191 70.91 L 59.502 70.63 L 57.079 72.903 L 58.368 75.965 L 55.458 74.363 L 52.944 76.535 L 53.568 73.272 L 50.725 71.553 L 54.022 71.138 L 54.779 67.903 L 56.191 70.91 L 56.191 70.91 L 56.191 70.91 L 56.191 70.91 L 56.191 70.91 L 56.191 70.91 L 56.191 70.91 L 56.191 70.91 L 56.191 70.91 L 56.191 70.91 Z  M 36.8 30.09 L 40.111 29.81 L 37.688 32.083 L 38.977 35.145 L 36.066 33.543 L 33.553 35.715 L 34.177 32.452 L 31.334 30.732 L 34.631 30.318 L 35.387 27.083 L 36.8 30.09 L 36.8 30.09 L 36.8 30.09 L 36.8 30.09 L 36.8 30.09 L 36.8 30.09 L 36.8 30.09 L 36.8 30.09 L 36.8 30.09 Z  M 62.582 60.719 L 65.892 60.439 L 63.469 62.712 L 64.758 65.774 L 61.848 64.172 L 59.334 66.344 L 59.958 63.081 L 57.115 61.362 L 60.412 60.947 L 61.169 57.712 L 62.582 60.719 L 62.582 60.719 L 62.582 60.719 L 62.582 60.719 L 62.582 60.719 L 62.582 60.719 L 62.582 60.719 L 62.582 60.719 Z  M 53.258 52.787 L 56.568 52.507 L 54.145 54.78 L 55.434 57.842 L 52.524 56.24 L 50.01 58.412 L 50.634 55.149 L 47.791 53.429 L 51.088 53.015 L 51.845 49.78 L 53.258 52.787 L 53.258 52.787 L 53.258 52.787 L 53.258 52.787 L 53.258 52.787 L 53.258 52.787 L 53.258 52.787 Z  M 26.306 48.427 L 29.617 48.147 L 27.194 50.42 L 28.483 53.482 L 25.573 51.879 L 23.059 54.052 L 23.683 50.789 L 20.84 49.069 L 24.137 48.655 L 24.894 45.42 L 26.306 48.427 L 26.306 48.427 L 26.306 48.427 L 26.306 48.427 L 26.306 48.427 L 26.306 48.427 Z  M 28.631 19.901 L 31.941 19.621 L 29.518 21.894 L 30.807 24.956 L 27.897 23.354 L 25.383 25.526 L 26.007 22.263 L 23.164 20.543 L 26.461 20.129 L 27.218 16.894 L 28.631 19.901 L 28.631 19.901 L 28.631 19.901 L 28.631 19.901 L 28.631 19.901 Z  M 16.309 24.51 L 19.62 24.23 L 17.196 26.503 L 18.486 29.565 L 15.575 27.963 L 13.061 30.135 L 13.686 26.872 L 10.843 25.153 L 14.139 24.738 L 14.896 21.503 L 16.309 24.51 L 16.309 24.51 L 16.309 24.51 L 16.309 24.51 Z  M 17.687 12.351 L 20.998 12.071 L 18.575 14.344 L 19.864 17.407 L 16.953 15.804 L 14.44 17.977 L 15.064 14.713 L 12.221 12.994 L 15.518 12.58 L 16.274 9.344 L 17.687 12.351 L 17.687 12.351 L 17.687 12.351 Z  M 5.466 16.673 L 8.777 16.393 L 6.354 18.666 L 7.643 21.728 L 4.732 20.126 L 2.218 22.298 L 2.843 19.035 L 0 17.315 L 3.296 16.901 L 4.053 13.666 L 5.466 16.673 L 5.466 16.673 Z  M 82.322 50.125 L 85.633 49.845 L 83.209 52.118 L 84.499 55.18 L 81.588 53.578 L 79.074 55.751 L 79.699 52.487 L 76.856 50.768 L 80.152 50.353 L 80.909 47.118 L 82.322 50.125 Z " fill-rule="evenodd" fill="rgb(255,255,255)" fill-opacity="0.5"/><path d=" M 122.147 32.673 L 118.847 33.524 L 114.403 29.855 L 121.203 28.033 L 121.303 27.907 L 121.061 27.007 L 121.133 26.156 L 121.171 25.679 L 121.328 25.271 L 121.547 24.847 L 121.729 24.531 L 121.905 24.318 L 122.174 24.079 L 122.403 23.818 L 122.757 23.523 L 123.097 23.3 L 123.382 23.124 L 123.941 22.977 L 124.305 22.846 L 124.771 22.722 L 125.115 22.763 L 125.513 22.763 L 125.989 22.801 L 126.389 22.926 L 126.656 23.054 L 126.971 23.236 L 127.286 23.418 L 127.514 23.524 L 127.696 23.708 L 127.926 23.946 L 128.126 24.192 L 128.356 24.43 L 128.47 24.732 L 128.545 25.012 L 128.645 25.384 L 128.697 25.703 L 128.585 26.033 L 128.598 26.329 L 128.572 26.602 L 128.537 26.845 L 128.479 27.126 L 128.374 27.354 L 128.308 27.605 L 128.171 27.841 L 128.097 28.06 L 127.938 28.335 L 127.779 28.611 L 127.767 28.813 L 127.795 29.039 L 127.989 29.017 L 128.142 28.843 L 128.279 28.607 L 128.432 28.433 L 128.57 28.329 L 128.773 28.351 L 129.3 28.576 L 129.538 28.845 L 129.839 29.098 L 130.063 29.437 L 130.266 29.948 L 130.374 30.352 L 130.454 30.896 L 130.404 31.209 L 130.401 31.443 L 130.289 31.772 L 130.138 32.079 L 129.994 32.284 L 129.897 32.543 L 129.568 32.931 L 129.299 33.169 L 128.883 33.48 L 128.668 33.672 L 128.368 33.919 L 128.066 34.035 L 127.695 34.267 L 127.3 34.407 L 126.842 34.563 L 126.493 34.623 L 126.182 34.707 L 125.793 34.745 L 125.443 34.807 L 125.13 34.757 L 124.755 34.725 L 124.395 34.621 L 124.128 34.493 L 123.838 34.405 L 123.624 34.229 L 123.411 34.053 L 123.212 33.807 L 122.919 33.586 L 122.537 32.158 L 122.549 31.956 L 122.491 31.737 L 122.193 31.617 L 122.133 31.765 L 122.16 31.991 L 122.156 32.225 L 122.136 32.397 L 122.149 32.693 L 122.147 32.673 L 122.147 32.673 L 122.147 32.673 L 122.147 32.673 Z  M 106.704 32.051 L 111.749 30.633 L 115.424 33.542 L 115.969 33.462 L 116.188 33.537 L 116.462 33.562 L 116.986 33.654 L 117.315 33.766 L 117.636 33.844 L 117.889 34.042 L 118.125 34.18 L 118.355 34.418 L 118.592 34.556 L 118.766 34.71 L 118.894 34.942 L 119.054 35.165 L 119.247 35.512 L 119.314 35.761 L 119.343 36.119 L 119.387 36.407 L 119.425 36.796 L 119.282 37.134 L 119.146 37.37 L 118.987 37.646 L 118.709 37.853 L 118.432 38.06 L 118.2 38.188 L 118.008 38.34 L 117.658 38.4 L 117.441 38.458 L 117.122 38.51 L 116.919 38.488 L 116.66 38.39 L 116.347 38.34 L 116.111 38.202 L 115.897 38.026 L 115.941 37.815 L 116.046 37.587 L 116.151 37.359 L 116.226 37.14 L 116.159 36.892 L 116.01 36.83 L 115.778 36.958 L 115.704 37.176 L 115.584 37.475 L 115.504 37.796 L 115.173 38.051 L 114.957 38.243 L 114.479 38.571 L 114.217 38.709 L 113.877 38.934 L 113.434 39.02 L 113.062 39.12 L 112.687 39.088 L 112.227 39.11 L 111.892 39.088 L 111.498 38.861 L 111.2 38.74 L 110.938 38.511 L 110.739 38.265 L 110.569 37.878 L 110.461 37.474 L 110.421 36.952 L 110.507 36.53 L 110.743 36.167 L 111.01 35.796 L 111.279 35.558 L 111.463 35.376 L 111.413 35.19 L 111.216 35.078 L 110.82 35.218 L 110.639 35.533 L 106.704 32.027 L 106.704 32.051 L 106.704 32.051 L 106.704 32.051 L 106.704 32.051 Z  M 92.884 40.714 L 97.169 39.565 L 99.045 34.27 L 92.019 36.119 L 91.901 36.051 L 91.905 35.817 L 91.973 35.699 L 91.865 35.296 L 91.813 34.977 L 91.738 34.697 L 91.435 34.313 L 91.267 34.058 L 91.045 33.851 L 90.8 33.685 L 90.587 33.509 L 90.289 33.389 L 90.038 33.323 L 89.686 33.251 L 89.303 33.185 L 88.913 33.221 L 88.431 33.285 L 87.965 33.409 L 87.437 33.551 L 87.121 33.735 L 86.759 33.999 L 86.459 34.245 L 86.08 34.445 L 85.743 34.802 L 85.406 35.159 L 85.112 35.803 L 84.976 36.039 L 84.856 36.337 L 84.793 36.721 L 84.76 37.096 L 84.854 37.57 L 84.962 37.973 L 85.157 38.454 L 85.398 38.855 L 85.895 39.221 L 86.16 39.221 L 86.448 39.179 L 86.81 38.915 L 86.963 38.741 L 87.172 38.654 L 87.212 38.676 L 87.377 38.798 L 87.334 39.009 L 87.212 39.173 L 86.935 39.381 L 86.689 39.579 L 86.358 39.834 L 86.153 40.188 L 85.949 40.542 L 85.798 40.849 L 85.639 41.125 L 85.606 41.499 L 85.542 41.883 L 85.516 42.156 L 85.593 42.568 L 85.819 43.04 L 85.927 43.444 L 86.23 43.829 L 86.64 44.118 L 86.91 44.379 L 87.351 44.66 L 87.675 44.874 L 88.075 45 L 88.553 45.171 L 89.243 45.385 L 89.835 45.361 L 90.303 45.383 L 90.777 45.289 L 91.274 45.157 L 91.684 44.948 L 92.341 44.173 L 92.532 43.889 L 92.697 43.512 L 92.808 43.182 L 92.917 42.72 L 92.917 42.221 L 92.885 41.73 L 92.738 41.304 L 92.367 41.038 L 92.159 40.76 L 91.906 40.562 L 91.792 40.26 L 91.906 40.064 L 92.038 40.064 L 92.204 40.186 L 92.505 40.438 L 92.648 40.6 L 92.884 40.738 L 92.884 40.714 L 92.884 40.714 L 92.884 40.714 Z  M 100.041 37.864 L 101.597 33.486 L 106.123 32.24 L 104.181 37.786 L 104.222 37.942 L 104.649 37.796 L 104.976 37.774 L 105.274 37.894 L 105.432 37.986 L 105.591 38.209 L 105.722 38.573 L 105.789 38.822 L 105.818 39.18 L 105.817 39.547 L 105.768 39.859 L 105.702 40.11 L 105.486 40.302 L 105.327 40.577 L 105.089 40.808 L 104.914 41.022 L 104.597 41.206 L 104.258 41.429 L 104.043 41.621 L 103.74 41.737 L 103.376 41.866 L 103.041 41.844 L 102.751 41.757 L 102.475 41.596 L 102.281 40.75 L 102.209 40.604 L 102.037 40.582 L 101.842 40.604 L 101.751 40.762 L 101.826 41.041 L 101.893 41.29 L 101.895 41.422 L 101.882 41.625 L 101.8 41.814 L 101.624 42.028 L 101.463 42.17 L 101.397 42.421 L 101.097 42.668 L 100.735 42.931 L 100.542 43.081 L 100.302 43.177 L 100.054 43.245 L 99.82 43.245 L 99.617 43.223 L 99.406 43.181 L 99.107 43.061 L 98.879 42.955 L 98.629 42.889 L 98.421 42.612 L 98.199 42.405 L 98.071 42.173 L 97.888 41.989 L 97.788 41.617 L 97.72 41.236 L 97.611 40.832 L 97.684 40.48 L 97.826 40.142 L 97.985 39.867 L 98.198 39.544 L 98.374 39.329 L 98.696 39.043 L 99.003 38.695 L 99.305 38.581 L 99.638 38.459 L 99.949 38.375 L 100.321 38.273 L 100.632 38.189 L 100.818 38.139 L 100.847 37.997 L 100.729 37.93 L 100.619 37.891 L 100.393 37.92 L 100.222 37.898 L 100.041 37.846 L 100.041 37.864 L 100.041 37.864 Z  M 108.212 11.097 L 108.63 11.28 L 109.145 11.476 L 109.739 11.815 L 110.094 12.155 L 110.582 12.487 L 110.972 12.952 L 111.109 13.081 L 111.328 13.787 L 111.499 14.541 L 111.601 15.045 L 111.636 15.669 L 111.394 16.134 L 110.726 16.876 L 110.457 17.114 L 109.992 17.372 L 109.129 17.871 L 108.684 18.321 L 108.255 18.703 L 107.966 19.113 L 107.603 19.379 L 107.161 19.597 L 106.798 19.859 L 106.798 19.863 L 106.513 20.039 L 105.955 20.187 L 105.58 20.152 L 105.123 19.808 L 104.854 19.551 L 104.573 19.125 L 104.233 18.719 L 103.928 18.332 L 103.608 17.887 L 103.218 17.426 L 103.011 17.149 L 102.714 16.661 L 102.495 16.087 L 102.296 15.841 L 102.124 15.322 L 102.124 14.955 L 102.273 14.518 L 102.398 14.115 L 102.679 13.541 L 102.788 13.213 L 103.167 12.881 L 103.417 12.577 L 103.874 12.292 L 104.213 12.065 L 104.553 11.843 L 104.994 11.624 L 105.49 11.491 L 106.275 11.316 L 106.912 11.21 L 107.618 11.12 L 108.212 11.097 L 108.212 11.097 Z  M 112.757 13.272 L 112.975 13.346 L 113.198 13.553 L 113.218 13.881 L 113.065 14.057 L 112.999 14.307 L 113.073 14.588 L 113.081 14.982 L 113.222 15.513 L 113.421 16.126 L 113.624 16.505 L 113.866 17.036 L 114.081 17.344 L 114.213 17.844 L 114.377 18.199 L 114.615 18.598 L 114.748 19.098 L 114.838 19.672 L 114.901 20.156 L 114.85 20.835 L 114.842 21.432 L 114.815 21.94 L 114.533 22.381 L 114.381 22.69 L 114.205 22.905 L 113.846 22.936 L 113.628 22.862 L 113.628 22.495 L 113.803 22.28 L 114.01 22.057 L 114.241 21.663 L 114.315 21.077 L 114.299 20.648 L 114.151 20.089 L 113.952 19.344 L 113.799 18.652 L 113.565 18.149 L 113.393 17.762 L 113.202 17.415 L 113.046 16.958 L 112.745 16.337 L 112.53 15.033 L 112.484 14.611 L 112.484 14.244 L 112.503 13.94 L 112.628 13.541 L 112.757 13.272 L 112.757 13.272 Z  M 96.209 14.244 L 96.482 14.271 L 96.763 14.33 L 97.088 14.541 L 97.775 15.123 L 98.489 15.798 L 98.77 16.353 L 98.915 16.884 L 99.083 18.266 L 99.145 19.117 L 99.337 20.199 L 99.305 20.839 L 99.348 21.358 L 99.286 21.874 L 98.966 22.295 L 98.642 22.58 L 98.364 22.725 L 98.095 22.893 L 97.681 22.971 L 97.369 22.92 L 96.584 22.967 L 95.986 22.858 L 95.354 22.729 L 94.776 22.549 L 94.206 22.67 L 93.655 22.717 L 93.402 22.651 L 93.12 22.592 L 92.679 22.678 L 91.965 22.502 L 91.379 22.295 L 90.899 21.991 L 90.637 21.764 L 90.321 20.714 L 89.946 19.32 L 89.946 19.312 L 89.938 18.785 L 90.122 18.102 L 90.477 17.809 L 90.942 17.317 L 91.863 16.77 L 92.48 16.341 L 92.871 16.068 L 93.144 15.939 L 93.445 15.603 L 93.812 15.353 L 94.323 15.15 L 95.096 14.806 L 95.491 14.537 L 95.791 14.42 L 96.209 14.244 L 96.209 14.244 Z  M 100.984 15.31 L 101.223 15.447 L 101.297 15.728 L 101.664 16.727 L 101.867 17.239 L 102.101 17.606 L 102.261 17.965 L 102.55 18.418 L 102.859 19.07 L 103.21 20.007 L 103.436 20.613 L 103.733 20.964 L 104.022 21.921 L 104.096 22.565 L 104.092 22.799 L 104.096 23.065 L 104.1 23.33 L 104.073 23.736 L 104.011 24.119 L 104.03 24.447 L 104.046 24.872 L 104.073 25.099 L 104.061 25.302 L 104.01 25.482 L 103.718 25.626 L 103.542 25.474 L 103.429 25.169 L 103.339 24.962 L 103.233 24.822 L 103.03 24.798 L 103.03 24.814 L 102.808 24.974 L 102.796 25.177 L 102.941 25.47 L 103.116 25.626 L 103.144 25.853 L 103.093 26.032 L 103.066 26.305 L 102.925 26.407 L 102.761 26.407 L 102.597 26.286 L 102.468 26.056 L 102.277 25.841 L 102.148 25.61 L 101.91 25.341 L 101.754 25.251 L 101.601 25.06 L 101.418 24.744 L 101.238 24.455 L 101.133 24.052 L 100.98 23.857 L 100.789 23.646 L 100.66 23.279 L 100.461 23.033 L 100.352 22.631 L 100.395 22.42 L 100.407 22.217 L 100.309 21.842 L 100.239 21.464 L 100.164 21.183 L 100.172 20.847 L 100.16 20.417 L 100.121 20.031 L 100.133 19.695 L 100.164 19.32 L 100.106 18.969 L 99.997 18.566 L 99.676 17.122 L 99.7 16.848 L 99.805 16.618 L 99.915 16.524 L 100.11 16.638 L 100.321 17.415 L 100.461 17.575 L 100.528 17.825 L 101.02 19.523 L 101.129 19.695 L 101.351 19.902 L 101.496 20.062 L 101.656 19.921 L 101.555 19.55 L 101.348 18.641 L 101.18 18.02 L 101.051 17.29 L 101.027 16.962 L 100.82 16.052 L 100.766 15.732 L 100.738 15.376 L 100.984 15.31 L 100.984 15.31 Z  M 87.424 20.827 L 87.951 21.183 L 88.251 21.436 L 88.493 21.839 L 88.743 22.272 L 88.966 22.612 L 89.231 23.104 L 89.321 23.447 L 90.098 26.466 L 90.309 26.876 L 90.528 27.317 L 90.735 27.727 L 90.973 27.996 L 91.227 28.195 L 91.426 28.441 L 91.52 28.781 L 91.418 28.906 L 91.098 28.824 L 90.793 28.441 L 90.383 28.152 L 90.083 27.766 L 89.61 26.997 L 89.224 25.935 L 88.728 24.334 L 88.509 23.397 L 88.119 22.436 L 87.873 22.135 L 87.634 21.866 L 87.373 21.503 L 87.181 21.288 L 87.123 21.073 L 87.424 20.827 L 87.424 20.827 Z  M 111.367 26.727 L 111.745 26.891 L 111.937 27.239 L 112.374 28.617 L 112.405 28.976 L 112.198 29.195 L 111.804 29.335 L 111.336 29.46 L 110.746 29.484 L 110.332 29.195 L 110 27.957 L 110.059 27.676 L 110.258 27.422 L 110.695 27.071 L 111.058 26.942 L 111.367 26.727 L 111.367 26.727 Z  M 108.372 27.461 L 108.708 27.461 L 109.02 27.512 L 109.313 28.23 L 109.727 29.652 L 109.692 29.894 L 109.438 30.062 L 109.438 30.074 L 108.637 30.319 L 108.356 30.261 L 108.056 30.14 L 107.853 29.995 L 107.24 27.965 L 107.322 27.774 L 107.595 27.668 L 107.927 27.547 L 108.372 27.461 L 108.372 27.461 Z  M 105.467 27.805 L 106.006 27.828 L 106.236 28.066 L 106.435 28.312 L 106.677 28.715 L 106.876 29.093 L 107.115 30.226 L 107.025 30.519 L 106.99 30.761 L 106.673 30.944 L 106.185 31.108 L 105.705 31.303 L 105.307 31.327 L 104.858 31.378 L 104.538 31.296 L 104.444 30.823 L 104.397 30.401 L 103.975 28.586 L 103.975 28.574 L 104.065 28.281 L 104.436 28.051 L 104.94 27.949 L 105.467 27.805 L 105.467 27.805 Z  M 103.023 28.488 L 103.237 28.797 L 103.237 28.804 L 103.846 31.069 L 103.819 31.342 L 103.741 31.663 L 103.14 31.791 L 102.675 31.916 L 102.37 31.893 L 101.828 31.971 L 101.523 31.951 L 101.285 31.811 L 101.16 31.346 L 101.148 31.05 L 101.136 30.753 L 101.152 30.448 L 101.078 30.038 L 101.195 29.609 L 101.5 29.257 L 101.824 28.972 L 102.175 28.679 L 102.562 28.512 L 103.023 28.488 L 103.023 28.488 Z  M 99.563 29.988 L 99.961 30.112 L 100.254 30.335 L 100.414 30.558 L 100.524 30.96 L 100.57 31.381 L 100.551 31.819 L 100.402 32.26 L 100.145 32.526 L 99.637 32.631 L 99.106 32.651 L 98.614 32.416 L 98.466 32.123 L 98.466 32.112 L 98.169 30.995 L 98.216 30.683 L 98.532 30.362 L 98.907 30.03 L 99.563 29.988 L 99.563 29.988 Z  M 97.088 30.683 L 97.47 30.878 L 97.47 30.882 L 97.747 32.038 L 97.794 32.327 L 97.767 32.6 L 97.646 32.764 L 97.271 32.865 L 96.779 32.897 L 96.412 32.76 L 96.147 32.635 L 95.893 32.436 L 95.655 32.166 L 95.506 31.741 L 95.522 31.304 L 95.682 31.026 L 96.201 30.854 L 96.775 30.765 L 97.088 30.683 L 97.088 30.683 Z  M 122.678 0 L 111.933 2.878 L 112.3 3.748 L 112.597 4.732 L 112.858 5.826 L 113.198 6.735 L 113.385 7.68 L 113.51 8.883 L 113.616 9.652 L 113.788 10.671 L 113.795 11.433 L 113.655 12.038 L 113.409 12.233 L 113.233 12.315 L 113.065 12.194 L 112.975 11.983 L 112.776 11.608 L 112.202 10.828 L 111.574 10.097 L 111.039 9.477 L 110.348 8.762 L 109.582 8.137 L 108.794 7.548 L 108.114 7.13 L 107.454 6.775 L 106.486 6.271 L 105.252 5.767 L 104.499 5.435 L 103.597 5.178 L 102.534 4.932 L 101.289 4.635 L 100.196 4.529 L 99.305 4.565 L 97.798 4.771 L 95.198 5.502 L 93.96 6.099 L 92.878 6.653 L 91.797 7.345 L 90.75 8.157 L 89.883 9.02 L 89.079 10 L 88.466 10.933 L 87.623 12.257 L 86.92 14.107 L 86.608 15.423 L 86.428 16.868 L 86.404 18.274 L 86.697 19.492 L 86.647 19.672 L 86.475 19.652 L 86.303 19.496 L 85.76 18.844 L 85.104 17.887 L 84.44 16.899 L 83.964 15.997 L 83.57 15.138 L 83.316 14.572 L 83 13.76 L 82.262 11.128 L 76.619 12.674 L 76.615 12.678 L 77.326 15.084 L 77.83 16.583 L 78.634 18.461 L 79.251 19.66 L 80.009 20.991 L 80.809 22.241 L 81.75 23.518 L 82.718 24.525 L 83.503 25.345 L 84.862 26.68 L 85.846 27.379 L 86.627 27.934 L 87.685 28.652 L 88.716 29.14 L 89.926 29.816 L 90.942 30.241 L 91.656 30.55 L 92.628 30.819 L 93.124 31.054 L 93.733 31.221 L 94.315 31.401 L 95.01 31.647 L 95.08 32.026 L 95.182 32.401 L 95.553 32.799 L 95.869 33.111 L 96.287 33.303 L 96.607 33.381 L 97.193 33.455 L 97.415 33.529 L 97.841 33.385 L 98.064 33.224 L 98.169 32.994 L 98.497 32.974 L 98.712 33.15 L 99.165 33.228 L 99.657 33.326 L 99.961 33.349 L 100.317 33.185 L 100.438 33.021 L 100.707 32.783 L 101.055 32.455 L 101.234 32.51 L 101.418 32.693 L 101.668 32.76 L 102.429 32.619 L 102.972 32.541 L 103.354 32.471 L 103.819 32.346 L 104.151 32.092 L 104.295 31.885 L 104.483 31.967 L 104.701 32.041 L 105.365 32.022 L 106.08 31.83 L 106.646 31.709 L 107.181 31.467 L 107.419 31.237 L 107.665 30.905 L 107.817 30.866 L 108.048 30.971 L 108.368 31.049 L 109.161 30.905 L 109.735 30.682 L 110.02 30.507 L 110.344 30.222 L 110.34 29.956 L 110.504 29.956 L 111.23 30.194 L 112.472 29.862 L 112.679 29.64 L 112.928 29.074 L 112.983 28.66 L 112.928 28.207 L 113.12 28.055 L 113.42 27.809 L 114.178 27.406 L 115.131 26.618 L 116.177 25.673 L 117.099 24.892 L 117.778 24.076 L 118.469 23.295 L 119.024 22.514 L 119.601 21.561 L 120.148 20.745 L 120.578 19.867 L 121.144 18.617 L 121.526 17.817 L 121.862 16.825 L 122.288 15.681 L 122.717 14.435 L 123.03 12.987 L 123.291 11.483 L 123.557 9.984 L 123.732 7.907 L 123.729 6.407 L 123.549 4.127 L 123.276 2.237 L 122.678 0 L 122.678 0 Z " fill-rule="evenodd" fill="rgb(255,255,255)" fill-opacity="0.5"/></g></svg>