<?xml version="1.0" standalone="no"?><!-- Generator: Gravit.io --><svg xmlns="http://www.w3.org/2000/svg" xmlns:xlink="http://www.w3.org/1999/xlink" style="isolation:isolate" viewBox="0 0 1024 292" width="1024" height="292"><defs><clipPath id="_clipPath_rZMwQFCyBPmqEZdP2FvYTJpzNUgfnI0l"><rect width="1024" height="292"/></clipPath></defs><g clip-path="url(#_clipPath_rZMwQFCyBPmqEZdP2FvYTJpzNUgfnI0l)"><g><path d=" M 183.598 142.02 L 150.053 142.02 L 141.347 133.974 L 141.347 8.046 L 150.053 0 L 166.697 0 L 175.404 8.002 L 175.404 31.297 L 235.034 31.297 L 243.771 39.595 L 243.771 142.02 L 226.36 142.02 L 226.36 47.182 L 175.404 47.182 L 175.404 70.892 L 192.304 86.54 L 192.304 133.959 L 183.598 142.02 Z  M 110.62 142.02 L 8.706 142.02 L 0 133.974 L 0 8.046 L 8.686 0 L 110.64 0 L 119.326 8.061 L 119.326 31.534 L 102.425 31.534 L 102.425 15.885 L 34.057 15.885 L 34.057 39.728 L 50.957 55.547 L 50.957 126.135 L 102.425 126.135 L 102.425 110.25 L 119.326 110.25 L 119.326 133.959 L 110.62 142.02 Z  M 945.13 47.182 L 893.917 47.182 L 893.917 70.892 L 910.819 86.54 L 910.819 133.959 L 902.113 142.02 L 868.567 142.02 L 859.862 133.959 L 859.862 39.358 L 868.567 31.297 L 945.13 31.297 L 945.13 47.182 Z  M 1024 15.885 L 989.685 15.885 L 989.685 31.297 L 1024 31.297 L 1024 47.182 L 1006.842 47.182 L 1006.842 71.129 L 1024 86.777 L 1024 133.959 L 1015.248 142.02 L 981.536 142.02 L 972.787 133.959 L 972.787 47.182 L 955.373 47.182 L 955.373 31.297 L 972.787 31.297 L 972.787 7.765 L 981.236 0 L 1024 0 L 1024 15.885 Z  M 472.694 142.02 L 387.935 142.02 L 379.23 133.959 L 379.23 39.358 L 387.935 31.297 L 472.694 31.297 L 481.399 39.358 L 481.399 133.959 L 472.694 142.02 Z  M 278.086 62.83 L 261.185 62.83 L 261.185 39.121 L 269.634 31.297 L 338.004 31.297 L 346.453 39.121 L 346.453 71.129 L 363.354 86.777 L 363.354 133.959 L 354.649 142.02 L 269.89 142.02 L 261.185 133.959 L 261.185 86.777 L 269.89 78.716 L 329.556 78.716 L 329.556 47.182 L 278.086 47.182 L 278.086 62.83 Z  M 592.786 142.02 L 507.775 142.02 L 499.07 133.959 L 499.07 110.25 L 515.967 110.25 L 515.967 126.135 L 549.77 126.135 L 549.77 94.601 L 507.731 94.601 L 499.07 86.54 L 499.07 39.358 L 507.775 31.297 L 592.786 31.297 L 601.495 39.358 L 601.495 62.83 L 584.594 62.83 L 584.594 47.182 L 533.381 47.182 L 533.381 78.716 L 592.786 78.716 L 601.495 86.777 L 601.495 133.959 L 592.786 142.02 Z  M 641.432 142.02 L 627.867 142.02 L 619.162 133.959 L 619.162 39.358 L 627.867 31.297 L 687.532 31.297 L 687.532 8.002 L 696.237 0 L 713.138 0 L 721.587 7.809 L 721.587 133.974 L 713.153 141.769 L 641.432 141.769 L 641.432 142.02 Z  M 775.667 141.769 L 749.739 141.769 L 741.305 133.959 L 741.305 39.358 L 750.01 31.297 L 834.769 31.297 L 843.474 39.358 L 843.474 133.959 L 835.039 141.769 L 812.152 141.769 C 812.069 139.364 811.982 136.959 811.906 134.554 C 811.834 132.382 811.538 130.197 811.982 128.128 C 812.098 127.587 812.228 127.032 812.376 126.473 L 826.619 126.473 L 826.619 118.972 C 827.085 119.011 827.551 119.053 828.017 119.094 C 828.179 119.109 828.338 119.124 828.501 119.14 C 828.529 119.143 828.677 119.151 828.88 119.152 L 828.97 119.152 C 829.215 119.15 829.512 119.137 829.75 119.092 C 830.559 118.942 831.306 118.562 831.905 117.998 C 833.743 116.266 833.527 113.03 831.635 111.523 C 830.772 110.836 830.436 110.87 829.4 110.612 L 829.356 110.607 C 828.446 110.518 827.533 110.442 826.619 110.381 L 826.619 89.966 C 827.851 89.017 829.082 88.072 830.313 87.125 C 830.754 86.786 831.255 86.614 831.974 85.635 C 833.202 83.961 832.96 81.449 831.519 80.038 C 830.732 79.265 830.396 79.265 829.389 78.9 C 828.981 78.875 828.576 78.85 828.172 78.825 L 826.981 79.096 L 826.619 79.297 L 826.619 74.742 L 826.573 74.742 L 826.573 47.182 L 775.616 47.182 L 775.616 71.129 L 792.196 86.479 L 792.196 110.124 C 791.925 109.157 791.604 108.202 791.225 107.263 C 789.073 101.923 784.903 98.326 780.754 94.46 C 774.522 88.658 767.767 83.618 761.195 78.322 C 759.794 77.192 758.437 76.002 756.92 75.106 L 755.736 74.806 L 755.639 74.81 C 754.646 74.841 754.314 74.76 753.36 75.24 C 751.515 76.168 750.584 78.531 751.219 80.432 C 751.573 81.479 751.873 81.633 752.602 82.414 L 752.83 82.597 C 755.26 84.548 757.682 86.502 760.101 88.462 C 765.073 92.489 770.161 96.386 774.84 100.672 C 777.793 103.405 781.465 106.248 783.141 110.153 C 785.368 115.342 785.087 121.111 784.971 126.725 C 784.867 131.737 784.787 136.752 784.729 141.769 L 784.26 141.769 C 784.054 138.418 783.837 135.067 783.603 131.728 C 783.224 126.383 783.57 119.359 779.916 114.572 C 777.342 111.202 773.165 109.672 769.001 109.648 C 768.944 109.647 768.886 109.647 768.828 109.648 C 768.482 109.65 768.131 109.66 767.785 109.678 C 767.658 109.685 767.532 109.692 767.406 109.701 L 757.166 110.146 C 756.115 110.344 755.78 110.29 754.88 110.927 C 753.888 111.625 753.209 112.773 753.086 114.005 C 752.88 116.038 754.317 118.097 756.325 118.592 C 756.718 118.69 757.133 118.673 757.538 118.713 L 767.886 118.263 L 768.066 118.251 C 770.207 118.118 772.395 118.55 773.378 120.185 C 775.237 123.289 774.742 127.602 774.995 131.574 C 775.23 134.958 775.454 138.363 775.667 141.769 Z  M 803.559 126.473 C 803.302 127.927 803.179 129.402 803.216 130.88 C 803.306 134.512 803.414 138.142 803.533 141.769 L 802.006 141.769 C 801.973 136.664 801.948 131.564 801.934 126.473 L 803.559 126.473 Z  M 687.532 47.182 L 636.319 47.182 L 636.319 126.135 L 670.374 126.135 L 670.374 86.777 L 687.532 70.892 L 687.532 47.182 Z  M 329.556 94.601 L 295.24 94.601 L 295.24 126.135 L 329.556 126.135 L 329.556 94.601 Z  M 464.498 47.182 L 413.542 47.182 L 413.542 71.129 L 430.187 86.54 L 430.187 126.135 L 464.498 126.135 L 464.498 47.182 Z " fill-rule="evenodd" fill="rgb(0,0,0)"/><path d=" M 693.897 220.051 C 693.944 220.051 693.988 220.051 694.035 220.054 C 695.295 220.257 695.999 221.343 696.082 222.889 C 696.425 229.196 696.858 235.576 698.151 241.667 L 698.158 241.704 C 702.408 242.599 706.657 243.606 710.994 244.137 C 715.637 244.708 720.338 245.069 725.017 245.072 L 725.227 245.072 C 729.419 245.065 733.596 244.762 737.701 244.058 C 738.947 243.845 740.207 243.603 741.431 243.271 C 736.658 243.216 731.867 241.566 728.209 238.403 C 722.724 233.598 716.832 228.518 709.297 228.482 L 709.199 228.482 C 708.658 228.482 708.109 228.507 707.549 228.561 L 707.452 228.572 C 707.452 228.572 706 228.543 705.357 227.601 C 704.448 226.265 705.426 224.232 707.206 224.062 C 707.351 224.048 707.495 224.033 707.643 224.022 C 708.213 223.979 708.788 223.957 709.358 223.957 L 709.474 223.957 C 717.984 224.026 725.519 230.175 731.329 235.132 C 734.166 237.522 737.918 238.768 741.648 238.768 L 741.709 238.768 C 742.984 238.765 744.251 238.613 745.482 238.317 C 744.731 235.775 744.233 233.136 743.951 230.46 C 743.814 229.189 744.525 227.907 745.767 227.687 C 746.085 227.629 746.164 227.651 746.269 227.655 C 748.71 227.864 748.475 231.486 749.212 234.771 C 750.486 240.498 753.306 245.809 757.628 249.972 C 762.109 254.287 767.713 257.276 773.417 259.598 C 773.417 259.598 775.125 260.706 774.764 262.215 C 774.518 263.241 773.482 263.804 772.414 263.811 L 772.377 263.811 C 772.002 263.811 771.623 263.739 771.273 263.595 C 765.665 261.287 760.249 258.305 755.772 254.373 C 755.487 254.839 755.047 255.251 754.498 255.532 C 745.98 259.905 738.413 266.952 735.849 276.3 C 734.726 280.38 734.34 284.778 735.362 288.858 C 735.362 288.858 735.502 290.88 734.091 291.505 C 733.838 291.616 733.571 291.671 733.307 291.674 L 733.275 291.674 C 732.242 291.681 731.217 290.938 730.949 289.811 C 729.036 281.77 731.119 272.809 735.701 265.819 C 736.791 264.154 738.03 262.595 739.384 261.143 C 734.246 263.728 728.675 265.317 722.898 265.353 L 722.753 265.353 C 721.367 265.353 719.966 265.266 718.554 265.082 C 711.019 264.093 703.664 260.573 698.725 254.853 C 696.483 252.257 695.266 248.979 694.432 245.549 L 694.417 245.491 C 691.2 244.852 687.98 244.375 684.813 244.368 L 684.705 244.368 C 680.964 244.368 677.307 245.025 673.837 246.831 C 671.183 248.213 668.898 250.253 667.049 252.622 L 666.764 252.965 C 666.117 253.557 665.76 253.644 665.273 253.647 L 665.218 253.647 C 665.186 253.647 665.15 253.647 665.114 253.647 C 663.457 253.622 662.211 251.492 663.489 249.849 C 668.363 243.585 676.188 240.01 684.43 239.942 L 684.871 239.942 C 687.77 239.963 690.63 240.306 693.475 240.794 C 692.414 234.746 691.832 228.608 691.543 222.463 C 691.543 222.463 691.565 221.361 692.168 220.733 C 692.594 220.293 693.179 220.062 693.829 220.051 L 693.897 220.051 Z  M 748.306 245.184 C 742.864 248.719 735.759 249.159 729.18 249.423 C 727.62 249.484 726.053 249.517 724.486 249.52 L 724.273 249.52 C 716.792 249.513 709.286 248.802 702.13 247.199 C 701.231 246.997 700.324 246.787 699.414 246.578 C 699.443 246.672 699.472 246.762 699.501 246.852 C 701.556 253.384 708.145 257.818 715.131 259.782 C 717.612 260.479 720.179 260.818 722.753 260.822 L 722.898 260.818 C 726.49 260.807 730.094 260.139 733.488 258.883 C 739.752 256.568 745.229 252.506 749.956 247.874 C 749.768 247.6 749.584 247.322 749.403 247.04 C 749.017 246.433 748.649 245.816 748.306 245.184 Z  M 755.682 213.335 C 755.711 213.335 755.736 213.339 755.761 213.339 C 757.195 213.526 757.939 214.978 757.686 216.494 C 756.108 226.308 760.329 236.743 766.716 244.137 C 771.146 249.264 776.725 253.333 782.61 256.576 C 782.61 256.576 784.202 257.912 783.621 259.381 C 783.289 260.222 782.4 260.786 781.494 260.796 L 781.469 260.8 C 781.238 260.8 781.003 260.764 780.779 260.684 C 780.22 260.489 780.129 260.363 779.862 260.215 C 769.001 254.113 759.477 245.177 755.245 233.547 C 753.111 227.687 752.064 221.239 753.35 215.13 C 753.35 215.13 754.054 213.346 755.646 213.335 L 755.682 213.335 Z  M 755.917 76.904 L 756.7 77.31 C 763.903 83.094 771.204 88.836 778.191 94.896 C 781.935 98.146 785.82 101.451 788.12 105.484 C 791.965 112.241 791.629 120.755 791.481 128.514 C 791.088 150.016 791.095 171.539 791.113 193.112 L 791.113 193.65 C 790.817 199.593 789.712 205.843 787.708 211.598 C 787.04 213.523 786.148 215.386 784.614 216.697 C 782.772 218.26 780.787 219.679 778.649 220.766 C 782.328 219.968 785.747 218.036 788.311 215.14 C 793.225 209.595 794.705 201.828 795.189 194.914 C 795.467 190.924 795.655 186.934 795.821 182.937 L 795.825 182.876 C 795.789 178.951 795.756 175.027 795.72 171.102 C 795.576 154.096 795.359 137.203 795.377 120.087 C 795.395 114.442 795.778 108.38 799.876 104.314 C 808.397 95.859 817.488 88.716 826.674 81.666 L 827.147 81.305 L 827.937 80.917 L 828.818 80.862 L 829.234 81.004 C 829.374 81.052 829.512 81.099 829.649 81.147 C 830.306 81.725 830.313 81.734 830.699 82.519 L 830.754 83.398 L 830.468 84.231 L 829.887 84.892 C 821.958 90.947 813.921 96.858 806.859 103.89 C 806.512 104.236 806.176 104.594 805.837 104.949 C 805.754 105.035 805.757 105.035 805.671 105.12 C 804.375 106.424 802.8 107.475 801.851 109.009 C 799.551 112.732 799.883 117.702 799.894 122.358 C 799.944 141.851 800.147 161.292 800.32 180.749 L 800.338 182.948 C 799.991 191.404 800.038 200.091 797.435 207.854 C 797.045 209.017 796.587 210.169 796.063 211.288 C 799.461 207.392 802.241 202.98 804.176 198.199 C 805.692 194.455 806.548 190.433 806.617 186.461 C 806.938 167.964 805.703 149.128 805.245 130.83 C 805.122 125.854 806.999 120.884 809.603 116.764 C 810.668 115.076 812.083 113.546 813.968 112.968 C 816.304 112.251 818.817 112.219 821.301 112.221 C 823.926 112.231 826.547 112.371 829.154 112.628 L 830.035 112.89 L 830.714 113.451 C 831.125 114.224 831.125 114.235 831.208 115.106 L 830.952 115.948 L 830.392 116.626 L 829.613 117.039 C 829.212 117.077 828.807 117.095 828.399 117.099 L 828.291 117.099 C 826.367 117.102 824.392 116.788 822.427 116.748 C 819.864 116.695 817.102 116.365 814.852 117.448 C 814.517 117.611 814.329 117.909 814.112 118.184 C 811.383 121.627 809.653 126.284 809.747 130.358 C 810.162 148.435 811.188 166.246 811.152 183.941 C 811.148 186.757 811.13 189.595 810.61 192.361 C 807.472 209.085 793.615 223.156 777.764 229.568 C 778.006 230.475 778.292 231.37 778.609 232.258 C 778.88 232.132 779.173 232.02 779.465 231.904 C 788.838 228.254 797.85 223.163 804.934 216.115 C 806.848 214.212 808.595 212.14 810.065 209.88 C 810.065 209.88 811.04 208.854 812.051 208.854 L 812.076 208.854 C 813.235 208.959 813.379 209.291 813.69 209.663 C 814.824 211.024 813.481 213.014 812.087 214.833 C 804.223 225.059 792.438 231.872 780.476 236.349 C 780.44 236.363 780.404 236.374 780.364 236.389 C 780.891 237.458 781.465 238.508 782.083 239.537 C 782.256 238.981 782.624 238.487 783.151 238.209 C 783.596 237.974 783.722 237.977 783.96 237.891 C 792.366 234.771 800.692 231.038 807.75 225.654 C 809.296 224.474 810.765 223.192 812.04 221.719 C 812.04 221.719 812.708 221.065 813.423 220.961 C 813.578 220.939 813.672 220.932 813.74 220.935 L 813.766 220.935 C 813.824 220.935 813.863 220.943 813.907 220.943 C 815.113 221.073 815.268 221.463 815.553 221.838 C 816.25 222.77 815.99 224.08 815.141 225.026 C 810.588 230.121 804.403 233.558 798.164 236.652 C 793.893 238.775 789.506 240.685 785.033 242.303 C 785.033 242.303 784.83 242.335 784.527 242.343 L 784.48 242.343 C 784.3 242.343 784.09 242.332 783.866 242.299 C 784.628 243.397 785.433 244.469 786.278 245.513 C 792.785 243.588 799.175 241.115 804.916 237.555 C 806.393 236.642 807.819 235.634 809.119 234.482 C 809.119 234.482 810.05 233.919 810.704 233.919 L 810.718 233.919 C 812.563 234.064 813.614 236.555 811.906 238.042 C 805.674 243.466 797.601 246.791 789.568 249.242 C 790.625 250.333 792.019 250.972 793.445 251.496 C 793.445 251.496 794.644 252.034 794.904 253.099 C 795.229 254.435 794.092 255.796 792.644 255.828 L 792.6 255.828 C 792.312 255.832 792.012 255.781 791.709 255.666 C 790.123 255.066 788.575 254.341 787.282 253.283 C 787.318 253.72 787.206 254.182 786.827 254.633 C 786.43 255.106 785.91 255.297 785.318 255.305 L 785.278 255.305 C 784.296 255.301 783.123 254.799 782.003 254.218 C 772.435 249.246 766.297 238.898 763.835 228.536 C 762.549 223.131 761.838 217.458 762.755 212.021 C 763.048 210.302 763.618 208.414 765.496 208.407 L 765.521 208.407 C 765.528 208.41 765.535 208.41 765.543 208.41 L 765.64 208.417 C 765.654 208.417 765.669 208.421 765.687 208.421 C 767.131 208.667 767.889 210.205 767.449 211.689 C 766.33 215.581 766.85 219.874 767.539 224.066 C 769.287 234.721 774.32 245.39 784.588 250.463 C 782.242 247.759 780.133 244.834 778.259 241.841 C 778.191 241.729 777.252 240.133 776.559 238.779 C 772.746 231.323 771.381 222.831 772.684 214.191 C 773.136 211.208 773.814 208.269 774.381 205.312 C 774.381 205.312 774.475 204.879 774.67 204.561 C 775.085 203.883 775.84 203.489 776.681 203.485 L 776.721 203.485 C 776.992 203.511 777.252 203.586 777.486 203.698 L 777.92 145.373 C 777.573 139.495 777.086 133.517 776.876 127.872 C 776.714 123.676 776.551 118.806 772.785 116.953 C 771.644 116.391 770.355 116.201 769.063 116.192 L 768.98 116.192 C 768.579 116.191 768.175 116.207 767.774 116.235 L 757.448 116.684 C 756.697 116.568 756.422 116.64 755.826 116.093 C 755.61 115.895 755.48 115.62 755.307 115.383 L 755.097 114.528 L 755.231 113.658 L 755.686 112.905 L 756.397 112.384 L 757.253 112.175 L 767.518 111.729 C 767.644 111.72 767.767 111.713 767.889 111.706 C 768.207 111.69 768.521 111.681 768.839 111.679 C 768.89 111.678 768.94 111.678 768.994 111.679 C 772.991 111.702 776.956 113.277 779.1 117.01 C 781.671 121.479 781.234 127.046 781.577 131.871 C 781.881 136.178 782.151 140.513 782.411 144.84 L 782.437 145.255 L 781.985 205.648 C 782.115 208.573 781.805 211.681 780.552 214.234 C 781.057 213.837 781.545 213.418 782.01 212.978 C 783.35 211.692 783.747 209.4 784.3 207.215 C 785.412 202.828 786.072 198.333 786.563 193.852 L 786.6 193.538 C 786.574 171.293 786.542 148.98 787 126.767 C 787.138 120.079 787.401 113.061 784.022 107.42 C 782.09 104.196 778.949 101.737 776.291 99.249 C 771.576 94.884 766.416 90.963 761.38 86.884 C 758.957 84.922 756.534 82.966 754.101 81.014 L 753.873 80.83 L 753.306 80.156 L 753.043 79.316 L 753.118 78.439 L 753.527 77.658 C 754.155 77.131 754.202 77.093 754.891 76.874 L 755.039 76.827 L 755.917 76.904 Z " fill="rgb(0,0,0)"/></g></g></svg>