<?xml version="1.0" standalone="no"?><!-- Generator: Gravit.io --><svg xmlns="http://www.w3.org/2000/svg" xmlns:xlink="http://www.w3.org/1999/xlink" style="isolation:isolate" viewBox="0 0 209.764 113.386" width="209.764" height="113.386"><defs><clipPath id="_clipPath_DfkF29nri7Ji8gNpACcRvNtcRVNgWRQh"><rect width="210" height="113"/></clipPath></defs><g clip-path="url(#_clipPath_DfkF29nri7Ji8gNpACcRvNtcRVNgWRQh)"><g><linearGradient id="_lgradient_1" x1="0.5" y1="0" x2="0.49999999999999983" y2="1" gradientTransform="matrix(177,0,0,25,16,36)" gradientUnits="userSpaceOnUse"><stop offset="0%" stop-opacity="1" style="stop-color:rgb(0,255,0)"/><stop offset="94.34782608695652%" stop-opacity="1" style="stop-color:rgb(0,175,0)"/><stop offset="98.26086956521739%" stop-opacity="1" style="stop-color:rgb(0,128,0)"/></linearGradient><mask id="_mask_8HzEv2J9geGxtokQpbYCqEKqvr8LTP8p" x="-200%" y="-200%" width="400%" height="400%"><rect x="-200%" y="-200%" width="400%" height="400%" style="fill:white;"/><path d=" M 22 38 L 22 43 L 25 45 L 25 58 L 34 58 L 34 55 L 37 55 L 37 59 L 36 61 L 18 61 L 16 59 L 16 37 L 18 36 L 36 36 L 37 37 L 37 41 L 34 41 L 34 38 L 22 38 L 22 38 L 22 38 L 22 38 L 22 38 L 22 38 L 22 38 L 22 38 L 22 38 Z  M 48 61 L 42 61 L 40 59 L 40 37 L 42 36 L 45 36 L 46 37 L 46 41 L 57 41 L 58 43 L 58 61 L 55 61 L 55 44 L 46 44 L 46 48 L 49 51 L 49 59 L 48 61 L 48 61 L 48 61 L 48 61 L 48 61 L 48 61 L 48 61 L 48 61 L 48 61 Z  M 73 52 L 67 52 L 67 58 L 73 58 L 73 52 L 73 52 L 73 52 L 73 52 L 73 52 L 73 52 L 73 52 L 73 52 Z  M 97 44 L 88 44 L 88 48 L 91 51 L 91 58 L 97 58 L 97 44 L 97 44 L 97 44 L 97 44 L 97 44 L 97 44 L 97 44 L 97 44 Z  M 121 59 L 119 61 L 104 61 L 103 59 L 103 55 L 106 55 L 106 58 L 112 58 L 112 52 L 104 52 L 103 51 L 103 43 L 104 41 L 119 41 L 121 43 L 121 47 L 118 47 L 118 44 L 109 44 L 109 50 L 119 50 L 121 51 L 121 59 L 121 59 L 121 59 L 121 59 L 121 59 Z  M 126 44 L 135 44 L 135 48 L 132 51 L 132 58 L 126 58 L 126 44 L 126 44 L 126 44 L 126 44 L 126 44 L 126 44 Z  M 159 44 L 153 44 L 150 47 L 150 58 L 153 58 L 159 58 L 159 44 L 159 44 L 159 44 L 159 44 Z  M 166 61 L 164 59 L 164 43 L 166 41 L 179 41 L 179 44 L 170 44 L 170 48 L 173 51 L 173 59 L 172 61 L 166 61 L 166 61 Z  M 63 61 L 61 59 L 61 51 L 63 50 L 73 50 L 73 44 L 64 44 L 64 47 L 61 47 L 61 43 L 63 41 L 75 41 L 76 43 L 76 48 L 79 51 L 79 59 L 78 61 L 63 61 L 63 61 L 63 61 L 63 61 L 63 61 L 63 61 L 63 61 L 63 61 L 63 61 Z  M 83 61 L 82 59 L 82 43 L 83 41 L 98 41 L 100 43 L 100 59 L 98 61 L 83 61 L 83 61 L 83 61 L 83 61 L 83 61 L 83 61 L 83 61 Z  M 123 59 L 125 61 L 140 61 L 141 59 L 141 37 L 140 36 L 137 36 L 135 37 L 135 41 L 125 41 L 123 43 L 123 59 L 123 59 L 123 59 L 123 59 L 123 59 L 123 59 Z  M 145 61 L 144 59 L 144 43 L 145 41 L 160 41 L 162 43 L 162 59 L 160 61 L 145 61 L 145 61 L 145 61 L 145 61 L 145 61 Z  M 190 44 L 190 48 L 193 51 L 193 59 L 192 61 L 186 61 L 184 59 L 184 44 L 181 44 L 181 41 L 184 41 L 184 37 L 186 36 L 194 36 L 194 38 L 188 38 L 188 41 L 194 41 L 194 44 L 190 44 L 190 44 Z " fill="black" stroke="none"/></mask><path d=" M 22 38 L 22 43 L 25 45 L 25 58 L 34 58 L 34 55 L 37 55 L 37 59 L 36 61 L 18 61 L 16 59 L 16 37 L 18 36 L 36 36 L 37 37 L 37 41 L 34 41 L 34 38 L 22 38 L 22 38 L 22 38 L 22 38 L 22 38 L 22 38 L 22 38 L 22 38 L 22 38 Z  M 48 61 L 42 61 L 40 59 L 40 37 L 42 36 L 45 36 L 46 37 L 46 41 L 57 41 L 58 43 L 58 61 L 55 61 L 55 44 L 46 44 L 46 48 L 49 51 L 49 59 L 48 61 L 48 61 L 48 61 L 48 61 L 48 61 L 48 61 L 48 61 L 48 61 L 48 61 Z  M 73 52 L 67 52 L 67 58 L 73 58 L 73 52 L 73 52 L 73 52 L 73 52 L 73 52 L 73 52 L 73 52 L 73 52 Z  M 97 44 L 88 44 L 88 48 L 91 51 L 91 58 L 97 58 L 97 44 L 97 44 L 97 44 L 97 44 L 97 44 L 97 44 L 97 44 L 97 44 Z  M 121 59 L 119 61 L 104 61 L 103 59 L 103 55 L 106 55 L 106 58 L 112 58 L 112 52 L 104 52 L 103 51 L 103 43 L 104 41 L 119 41 L 121 43 L 121 47 L 118 47 L 118 44 L 109 44 L 109 50 L 119 50 L 121 51 L 121 59 L 121 59 L 121 59 L 121 59 L 121 59 Z  M 126 44 L 135 44 L 135 48 L 132 51 L 132 58 L 126 58 L 126 44 L 126 44 L 126 44 L 126 44 L 126 44 L 126 44 Z  M 159 44 L 153 44 L 150 47 L 150 58 L 153 58 L 159 58 L 159 44 L 159 44 L 159 44 L 159 44 Z  M 166 61 L 164 59 L 164 43 L 166 41 L 179 41 L 179 44 L 170 44 L 170 48 L 173 51 L 173 59 L 172 61 L 166 61 L 166 61 Z  M 63 61 L 61 59 L 61 51 L 63 50 L 73 50 L 73 44 L 64 44 L 64 47 L 61 47 L 61 43 L 63 41 L 75 41 L 76 43 L 76 48 L 79 51 L 79 59 L 78 61 L 63 61 L 63 61 L 63 61 L 63 61 L 63 61 L 63 61 L 63 61 L 63 61 L 63 61 Z  M 83 61 L 82 59 L 82 43 L 83 41 L 98 41 L 100 43 L 100 59 L 98 61 L 83 61 L 83 61 L 83 61 L 83 61 L 83 61 L 83 61 L 83 61 Z  M 123 59 L 125 61 L 140 61 L 141 59 L 141 37 L 140 36 L 137 36 L 135 37 L 135 41 L 125 41 L 123 43 L 123 59 L 123 59 L 123 59 L 123 59 L 123 59 L 123 59 Z  M 145 61 L 144 59 L 144 43 L 145 41 L 160 41 L 162 43 L 162 59 L 160 61 L 145 61 L 145 61 L 145 61 L 145 61 L 145 61 Z  M 190 44 L 190 48 L 193 51 L 193 59 L 192 61 L 186 61 L 184 59 L 184 44 L 181 44 L 181 41 L 184 41 L 184 37 L 186 36 L 194 36 L 194 38 L 188 38 L 188 41 L 194 41 L 194 44 L 190 44 L 190 44 Z " fill="url(#_lgradient_1)" mask="url(#_mask_8HzEv2J9geGxtokQpbYCqEKqvr8LTP8p)" vector-effect="non-scaling-stroke" stroke-width="4" stroke="rgb(23,23,23)" stroke-linejoin="round" stroke-linecap="round" stroke-miterlimit="4"/><mask id="_mask_CPfESSkM1GuDYmgnDd1u1k6u78210dvS" x="-200%" y="-200%" width="400%" height="400%"><rect x="-200%" y="-200%" width="400%" height="400%" style="fill:white;"/><path d=" M 149 47 C 149 47 151 49 152 49 C 153 50 154 51 154 51 C 154 52 154 52 154 53 C 154 53 154 58 154 62 C 154 66 154 66 154 67 C 154 67 154 67 154 67 C 154 67 154 67 154 67 C 154 67 154 66 155 66 C 155 66 155 65 155 62 C 155 59 155 58 155 54 L 155 52 L 155 52 C 155 51 156 51 158 49 C 159 48 160 48 160 48 C 160 48 160 49 160 49 C 160 49 159 49 159 50 C 157 51 157 51 156 52 C 156 52 156 52 156 53 C 156 53 156 55 156 59 C 156 63 156 65 155 65 C 155 66 155 66 155 67 C 155 67 155 67 155 67 C 155 67 155 67 155 67 C 156 66 156 65 156 64 C 156 64 156 61 156 59 C 156 59 156 58 156 57 C 156 55 156 55 156 55 C 157 54 157 53 157 53 C 157 53 157 53 157 53 C 158 52 159 52 160 53 L 160 53 L 160 53 C 160 53 160 53 160 53 C 160 53 160 53 159 53 C 158 53 158 53 158 54 C 157 54 157 54 157 54 C 157 55 157 56 157 59 C 157 61 157 63 157 63 C 157 64 157 65 156 67 C 156 67 156 67 156 67 C 155 68 154 69 153 69 L 153 69 L 153 69 C 154 69 155 68 157 67 C 157 67 157 67 157 67 C 157 67 158 67 158 67 C 158 67 157 68 157 68 C 155 69 154 70 153 70 C 153 70 153 70 153 70 L 153 70 L 153 71 L 153 71 L 153 71 C 154 70 155 70 156 69 C 158 68 158 68 158 68 C 158 69 158 69 157 69 C 157 69 157 69 157 69 C 157 69 156 70 155 71 C 155 71 154 71 154 71 C 153 71 153 71 153 72 C 154 72 154 72 154 72 C 154 72 155 71 156 71 C 156 71 157 71 157 71 C 157 71 157 71 157 71 C 157 71 157 71 157 71 C 157 71 156 72 156 72 C 156 72 155 72 155 72 C 155 72 154 72 154 72 C 154 73 154 73 154 73 C 155 73 155 73 155 73 C 155 73 154 73 154 73 C 154 73 154 73 154 73 C 154 73 154 74 154 74 C 154 74 153 74 153 74 C 152 73 152 73 151 72 C 150 71 150 69 150 68 C 150 68 150 67 150 67 C 150 67 150 67 150 67 C 151 67 151 67 151 68 C 151 70 152 71 153 73 C 153 73 153 73 153 73 C 152 71 151 70 151 69 C 151 68 151 68 151 68 C 151 67 151 67 151 66 C 152 66 152 66 152 66 L 152 66 L 152 62 C 152 60 152 58 152 58 C 152 56 152 55 152 54 C 152 54 152 54 151 53 C 151 53 151 53 150 53 C 149 53 149 53 149 53 C 149 53 149 53 149 53 C 149 53 149 53 149 52 C 150 52 151 52 152 53 C 152 53 152 53 152 53 C 153 53 153 54 153 55 C 153 55 153 57 153 58 C 153 59 153 61 153 62 C 153 64 153 65 153 66 C 153 67 153 67 153 67 C 153 67 153 67 153 66 C 153 66 153 65 154 63 C 154 61 154 59 154 58 C 154 54 154 53 154 53 C 153 53 153 52 153 52 C 153 51 152 51 150 49 L 149 48 L 149 48 C 149 47 149 47 149 47 L 149 47 L 149 47 L 149 47 L 149 47 L 149 47 Z  M 135 74 C 135 74 136 73 137 73 C 138 73 139 73 141 73 C 143 74 143 74 144 74 L 145 74 L 145 74 C 145 74 145 74 145 74 C 145 74 145 73 144 73 C 143 72 142 72 141 72 L 141 72 L 141 71 C 141 71 141 71 141 71 C 142 71 142 71 143 71 C 143 71 144 71 145 72 C 145 73 146 73 147 73 C 147 73 147 73 147 74 L 147 74 L 147 74 C 146 75 145 75 144 75 C 143 75 142 75 140 74 C 138 74 138 74 138 74 C 136 74 136 74 135 75 C 135 75 135 75 135 75 C 135 75 135 75 135 75 C 134 75 134 75 135 74 L 135 74 L 135 74 L 135 74 L 135 74 L 135 74 Z  M 139 71 L 139 70 L 139 70 C 139 70 140 71 140 71 C 140 71 140 71 140 72 C 140 72 140 73 140 73 L 140 73 L 139 73 C 139 73 139 73 139 72 C 139 71 139 71 139 71 L 139 71 L 139 71 L 139 71 L 139 71 Z  M 139 74 C 140 74 140 74 140 75 C 140 75 141 75 141 75 C 141 76 141 76 142 76 C 142 76 144 76 144 76 C 145 76 147 76 147 75 C 147 75 148 75 148 75 C 148 75 148 75 148 75 C 148 76 148 76 148 76 C 148 76 147 76 147 77 C 146 77 146 77 146 78 C 146 78 146 78 146 78 C 145 79 146 79 146 79 C 146 80 146 80 145 81 C 145 81 145 81 145 80 C 145 80 145 79 145 78 C 145 77 145 77 145 77 C 145 77 144 77 144 77 C 143 77 143 77 143 77 C 142 77 141 77 140 76 C 140 75 140 75 140 75 C 140 75 140 75 139 75 L 139 74 L 139 74 L 139 74 L 139 74 L 139 74 Z  M 147 72 C 147 72 147 72 147 72 C 147 72 147 72 147 72 L 148 72 L 148 72 C 148 73 148 73 148 74 C 149 74 150 75 151 76 C 152 76 152 76 152 76 C 152 76 152 77 151 77 C 151 77 150 76 149 76 C 148 75 147 74 147 73 C 147 73 147 72 147 72 L 147 72 L 147 72 Z  M 148 70 C 148 70 149 70 149 69 L 149 69 L 149 69 C 149 70 149 70 149 71 C 149 71 149 71 149 71 C 150 72 150 73 151 74 C 152 75 153 76 153 76 C 153 76 153 76 153 76 C 153 76 153 76 153 76 C 151 75 150 74 149 73 C 149 73 149 73 149 72 C 148 71 148 70 148 70 L 148 70 Z " fill="black" stroke="none"/></mask><path d=" M 149 47 C 149 47 151 49 152 49 C 153 50 154 51 154 51 C 154 52 154 52 154 53 C 154 53 154 58 154 62 C 154 66 154 66 154 67 C 154 67 154 67 154 67 C 154 67 154 67 154 67 C 154 67 154 66 155 66 C 155 66 155 65 155 62 C 155 59 155 58 155 54 L 155 52 L 155 52 C 155 51 156 51 158 49 C 159 48 160 48 160 48 C 160 48 160 49 160 49 C 160 49 159 49 159 50 C 157 51 157 51 156 52 C 156 52 156 52 156 53 C 156 53 156 55 156 59 C 156 63 156 65 155 65 C 155 66 155 66 155 67 C 155 67 155 67 155 67 C 155 67 155 67 155 67 C 156 66 156 65 156 64 C 156 64 156 61 156 59 C 156 59 156 58 156 57 C 156 55 156 55 156 55 C 157 54 157 53 157 53 C 157 53 157 53 157 53 C 158 52 159 52 160 53 L 160 53 L 160 53 C 160 53 160 53 160 53 C 160 53 160 53 159 53 C 158 53 158 53 158 54 C 157 54 157 54 157 54 C 157 55 157 56 157 59 C 157 61 157 63 157 63 C 157 64 157 65 156 67 C 156 67 156 67 156 67 C 155 68 154 69 153 69 L 153 69 L 153 69 C 154 69 155 68 157 67 C 157 67 157 67 157 67 C 157 67 158 67 158 67 C 158 67 157 68 157 68 C 155 69 154 70 153 70 C 153 70 153 70 153 70 L 153 70 L 153 71 L 153 71 L 153 71 C 154 70 155 70 156 69 C 158 68 158 68 158 68 C 158 69 158 69 157 69 C 157 69 157 69 157 69 C 157 69 156 70 155 71 C 155 71 154 71 154 71 C 153 71 153 71 153 72 C 154 72 154 72 154 72 C 154 72 155 71 156 71 C 156 71 157 71 157 71 C 157 71 157 71 157 71 C 157 71 157 71 157 71 C 157 71 156 72 156 72 C 156 72 155 72 155 72 C 155 72 154 72 154 72 C 154 73 154 73 154 73 C 155 73 155 73 155 73 C 155 73 154 73 154 73 C 154 73 154 73 154 73 C 154 73 154 74 154 74 C 154 74 153 74 153 74 C 152 73 152 73 151 72 C 150 71 150 69 150 68 C 150 68 150 67 150 67 C 150 67 150 67 150 67 C 151 67 151 67 151 68 C 151 70 152 71 153 73 C 153 73 153 73 153 73 C 152 71 151 70 151 69 C 151 68 151 68 151 68 C 151 67 151 67 151 66 C 152 66 152 66 152 66 L 152 66 L 152 62 C 152 60 152 58 152 58 C 152 56 152 55 152 54 C 152 54 152 54 151 53 C 151 53 151 53 150 53 C 149 53 149 53 149 53 C 149 53 149 53 149 53 C 149 53 149 53 149 52 C 150 52 151 52 152 53 C 152 53 152 53 152 53 C 153 53 153 54 153 55 C 153 55 153 57 153 58 C 153 59 153 61 153 62 C 153 64 153 65 153 66 C 153 67 153 67 153 67 C 153 67 153 67 153 66 C 153 66 153 65 154 63 C 154 61 154 59 154 58 C 154 54 154 53 154 53 C 153 53 153 52 153 52 C 153 51 152 51 150 49 L 149 48 L 149 48 C 149 47 149 47 149 47 L 149 47 L 149 47 L 149 47 L 149 47 L 149 47 Z  M 135 74 C 135 74 136 73 137 73 C 138 73 139 73 141 73 C 143 74 143 74 144 74 L 145 74 L 145 74 C 145 74 145 74 145 74 C 145 74 145 73 144 73 C 143 72 142 72 141 72 L 141 72 L 141 71 C 141 71 141 71 141 71 C 142 71 142 71 143 71 C 143 71 144 71 145 72 C 145 73 146 73 147 73 C 147 73 147 73 147 74 L 147 74 L 147 74 C 146 75 145 75 144 75 C 143 75 142 75 140 74 C 138 74 138 74 138 74 C 136 74 136 74 135 75 C 135 75 135 75 135 75 C 135 75 135 75 135 75 C 134 75 134 75 135 74 L 135 74 L 135 74 L 135 74 L 135 74 L 135 74 Z  M 139 71 L 139 70 L 139 70 C 139 70 140 71 140 71 C 140 71 140 71 140 72 C 140 72 140 73 140 73 L 140 73 L 139 73 C 139 73 139 73 139 72 C 139 71 139 71 139 71 L 139 71 L 139 71 L 139 71 L 139 71 Z  M 139 74 C 140 74 140 74 140 75 C 140 75 141 75 141 75 C 141 76 141 76 142 76 C 142 76 144 76 144 76 C 145 76 147 76 147 75 C 147 75 148 75 148 75 C 148 75 148 75 148 75 C 148 76 148 76 148 76 C 148 76 147 76 147 77 C 146 77 146 77 146 78 C 146 78 146 78 146 78 C 145 79 146 79 146 79 C 146 80 146 80 145 81 C 145 81 145 81 145 80 C 145 80 145 79 145 78 C 145 77 145 77 145 77 C 145 77 144 77 144 77 C 143 77 143 77 143 77 C 142 77 141 77 140 76 C 140 75 140 75 140 75 C 140 75 140 75 139 75 L 139 74 L 139 74 L 139 74 L 139 74 L 139 74 Z  M 147 72 C 147 72 147 72 147 72 C 147 72 147 72 147 72 L 148 72 L 148 72 C 148 73 148 73 148 74 C 149 74 150 75 151 76 C 152 76 152 76 152 76 C 152 76 152 77 151 77 C 151 77 150 76 149 76 C 148 75 147 74 147 73 C 147 73 147 72 147 72 L 147 72 L 147 72 Z  M 148 70 C 148 70 149 70 149 69 L 149 69 L 149 69 C 149 70 149 70 149 71 C 149 71 149 71 149 71 C 150 72 150 73 151 74 C 152 75 153 76 153 76 C 153 76 153 76 153 76 C 153 76 153 76 153 76 C 151 75 150 74 149 73 C 149 73 149 73 149 72 C 148 71 148 70 148 70 L 148 70 Z " fill="rgb(0,195,0)" mask="url(#_mask_CPfESSkM1GuDYmgnDd1u1k6u78210dvS)" vector-effect="non-scaling-stroke" stroke-width="2" stroke="rgb(23,23,23)" stroke-linejoin="round" stroke-linecap="round" stroke-miterlimit="4"/></g></g></svg>