<?xml version="1.0" encoding="UTF-8" standalone="no"?><!-- Generator: Gravit.io --><svg xmlns="http://www.w3.org/2000/svg" xmlns:xlink="http://www.w3.org/1999/xlink" style="isolation:isolate" viewBox="0 0 5669.291 2834.646" width="5669.291pt" height="2834.646pt"><defs><clipPath id="_clipPath_oN8Ebpfmrs2V0FoNZWWyk97wUKGjE7DW"><rect width="5669.291" height="2834.646"/></clipPath></defs><g clip-path="url(#_clipPath_oN8Ebpfmrs2V0FoNZWWyk97wUKGjE7DW)"><rect width="5669.291" height="2834.646" style="fill:rgb(0,0,0)"/><g><linearGradient id="_lgradient_0" x1="0.5" y1="0" x2="0.49999999999999983" y2="1" gradientTransform="matrix(5102.362,0,0,687.272,283.465,797.541)" gradientUnits="userSpaceOnUse"><stop offset="0%" stop-opacity="1" style="stop-color:rgb(0,255,0)"/><stop offset="94.34782608695652%" stop-opacity="1" style="stop-color:rgb(0,175,0)"/><stop offset="98.26086956521739%" stop-opacity="1" style="stop-color:rgb(0,128,0)"/></linearGradient><mask id="_mask_O5W4kCci0vAnQqpkeSiylfAOXawRFVhf" x="-200%" y="-200%" width="400%" height="400%"><rect x="-200%" y="-200%" width="400%" height="400%" style="fill:white;"/><path d=" M 456.5 873.141 L 456.5 988.832 L 542.367 1065.577 L 542.367 1408.068 L 803.872 1408.068 L 803.872 1331.322 L 889.739 1331.322 L 889.739 1445.868 L 845.505 1484.813 L 327.699 1484.813 L 283.465 1445.868 L 283.465 836.487 L 327.699 797.541 L 846.806 797.541 L 891.04 836.487 L 891.04 949.887 L 803.872 949.887 L 803.872 873.141 L 456.5 873.141 L 456.5 873.141 L 456.5 873.141 L 456.5 873.141 L 456.5 873.141 L 456.5 873.141 L 456.5 873.141 L 456.5 873.141 L 456.5 873.141 Z  M 1191.277 1484.813 L 1020.843 1484.813 L 976.609 1445.868 L 976.609 836.487 L 1020.843 797.541 L 1105.409 797.541 L 1149.644 836.487 L 1150.945 949.887 L 1452.781 949.887 L 1497.016 989.977 L 1497.016 1484.813 L 1408.547 1484.813 L 1408.547 1026.632 L 1149.644 1026.632 L 1149.644 1141.177 L 1235.511 1216.777 L 1235.511 1445.868 L 1191.277 1484.813 L 1191.277 1484.813 L 1191.277 1484.813 L 1191.277 1484.813 L 1191.277 1484.813 L 1191.277 1484.813 L 1191.277 1484.813 L 1191.277 1484.813 L 1191.277 1484.813 Z  M 1925.29 1255.722 L 1750.953 1255.722 L 1750.953 1408.068 L 1925.29 1408.068 L 1925.29 1255.722 L 1925.29 1255.722 L 1925.29 1255.722 L 1925.29 1255.722 L 1925.29 1255.722 L 1925.29 1255.722 L 1925.29 1255.722 L 1925.29 1255.722 Z  M 2603.988 1026.632 L 2345.085 1026.632 L 2345.085 1142.323 L 2429.652 1216.777 L 2429.652 1408.068 L 2603.988 1408.068 L 2603.988 1026.632 L 2603.988 1026.632 L 2603.988 1026.632 L 2603.988 1026.632 L 2603.988 1026.632 L 2603.988 1026.632 L 2603.988 1026.632 L 2603.988 1026.632 Z  M 3289.487 1445.868 L 3245.252 1484.813 L 2813.314 1484.813 L 2769.079 1445.868 L 2769.079 1331.322 L 2856.247 1331.322 L 2856.247 1408.068 L 3027.982 1408.068 L 3027.982 1255.722 L 2813.314 1255.722 L 2769.079 1216.777 L 2769.079 988.832 L 2813.314 949.887 L 3245.252 949.887 L 3289.487 988.832 L 3289.487 1102.232 L 3203.619 1102.232 L 3203.619 1026.632 L 2943.416 1026.632 L 2943.416 1178.977 L 3245.252 1178.977 L 3289.487 1217.922 L 3289.487 1445.868 L 3289.487 1445.868 L 3289.487 1445.868 L 3289.487 1445.868 L 3289.487 1445.868 Z  M 3452.187 1026.632 L 3712.391 1026.632 L 3712.391 1141.177 L 3625.223 1217.922 L 3625.223 1408.068 L 3452.187 1408.068 L 3452.187 1026.632 L 3452.187 1026.632 L 3452.187 1026.632 L 3452.187 1026.632 L 3452.187 1026.632 L 3452.187 1026.632 Z  M 4391.868 1026.632 L 4217.532 1026.632 L 4134.496 1112.942 L 4136.023 1404.848 L 4217.532 1408.068 L 4391.868 1408.068 L 4391.868 1026.632 L 4391.868 1026.632 L 4391.868 1026.632 L 4391.868 1026.632 Z  M 4590.994 1484.813 L 4546.76 1445.868 L 4546.76 988.832 L 4590.994 949.887 L 4979.999 949.887 L 4979.999 1026.632 L 4719.795 1026.632 L 4719.795 1141.177 L 4805.663 1216.777 L 4805.663 1445.868 L 4761.428 1484.813 L 4590.994 1484.813 L 4590.994 1484.813 Z  M 1622.152 1484.813 L 1577.918 1445.868 L 1577.918 1217.922 L 1622.152 1178.977 L 1925.29 1178.977 L 1925.29 1026.632 L 1663.785 1026.632 L 1663.785 1102.232 L 1577.918 1102.232 L 1577.918 987.686 L 1620.851 949.887 L 1968.223 949.887 L 2011.157 987.686 L 2011.157 1142.323 L 2097.024 1217.922 L 2097.024 1445.868 L 2052.79 1484.813 L 1622.152 1484.813 L 1622.152 1484.813 L 1622.152 1484.813 L 1622.152 1484.813 L 1622.152 1484.813 L 1622.152 1484.813 L 1622.152 1484.813 L 1622.152 1484.813 L 1622.152 1484.813 Z  M 2214.983 1484.813 L 2170.749 1445.868 L 2170.749 988.832 L 2214.983 949.887 L 2645.62 949.887 L 2689.855 988.832 L 2689.855 1445.868 L 2645.62 1484.813 L 2214.983 1484.813 L 2214.983 1484.813 L 2214.983 1484.813 L 2214.983 1484.813 L 2214.983 1484.813 L 2214.983 1484.813 L 2214.983 1484.813 Z  M 3365.019 1445.868 L 3409.254 1484.813 L 3841.192 1484.813 L 3885.426 1445.868 L 3885.426 835.341 L 3842.493 797.541 L 3756.626 797.541 L 3712.391 836.487 L 3712.391 949.887 L 3409.254 949.887 L 3365.019 988.832 L 3365.019 1445.868 L 3365.019 1445.868 L 3365.019 1445.868 L 3365.019 1445.868 L 3365.019 1445.868 L 3365.019 1445.868 Z  M 4002.864 1484.813 L 3958.629 1445.868 L 3958.629 988.832 L 4002.864 949.887 L 4433.501 949.887 L 4477.735 988.832 L 4477.735 1445.868 L 4433.501 1484.813 L 4002.864 1484.813 L 4002.864 1484.813 L 4002.864 1484.813 L 4002.864 1484.813 L 4002.864 1484.813 Z  M 5298.658 1026.632 L 5298.658 1142.323 L 5384.526 1217.922 L 5384.526 1445.868 L 5340.291 1484.813 L 5169.858 1484.813 L 5125.623 1445.868 L 5125.623 1026.632 L 5037.154 1026.632 L 5037.154 949.887 L 5125.623 949.887 L 5125.623 835.341 L 5168.557 797.541 L 5385.827 797.541 L 5385.827 873.141 L 5212.791 873.141 L 5212.791 949.887 L 5385.827 949.887 L 5385.827 1026.632 L 5298.658 1026.632 L 5298.658 1026.632 Z " fill-rule="evenodd" fill="black" stroke="none"/></mask><path d=" M 456.5 873.141 L 456.5 988.832 L 542.367 1065.577 L 542.367 1408.068 L 803.872 1408.068 L 803.872 1331.322 L 889.739 1331.322 L 889.739 1445.868 L 845.505 1484.813 L 327.699 1484.813 L 283.465 1445.868 L 283.465 836.487 L 327.699 797.541 L 846.806 797.541 L 891.04 836.487 L 891.04 949.887 L 803.872 949.887 L 803.872 873.141 L 456.5 873.141 L 456.5 873.141 L 456.5 873.141 L 456.5 873.141 L 456.5 873.141 L 456.5 873.141 L 456.5 873.141 L 456.5 873.141 L 456.5 873.141 Z  M 1191.277 1484.813 L 1020.843 1484.813 L 976.609 1445.868 L 976.609 836.487 L 1020.843 797.541 L 1105.409 797.541 L 1149.644 836.487 L 1150.945 949.887 L 1452.781 949.887 L 1497.016 989.977 L 1497.016 1484.813 L 1408.547 1484.813 L 1408.547 1026.632 L 1149.644 1026.632 L 1149.644 1141.177 L 1235.511 1216.777 L 1235.511 1445.868 L 1191.277 1484.813 L 1191.277 1484.813 L 1191.277 1484.813 L 1191.277 1484.813 L 1191.277 1484.813 L 1191.277 1484.813 L 1191.277 1484.813 L 1191.277 1484.813 L 1191.277 1484.813 Z  M 1925.29 1255.722 L 1750.953 1255.722 L 1750.953 1408.068 L 1925.29 1408.068 L 1925.29 1255.722 L 1925.29 1255.722 L 1925.29 1255.722 L 1925.29 1255.722 L 1925.29 1255.722 L 1925.29 1255.722 L 1925.29 1255.722 L 1925.29 1255.722 Z  M 2603.988 1026.632 L 2345.085 1026.632 L 2345.085 1142.323 L 2429.652 1216.777 L 2429.652 1408.068 L 2603.988 1408.068 L 2603.988 1026.632 L 2603.988 1026.632 L 2603.988 1026.632 L 2603.988 1026.632 L 2603.988 1026.632 L 2603.988 1026.632 L 2603.988 1026.632 L 2603.988 1026.632 Z  M 3289.487 1445.868 L 3245.252 1484.813 L 2813.314 1484.813 L 2769.079 1445.868 L 2769.079 1331.322 L 2856.247 1331.322 L 2856.247 1408.068 L 3027.982 1408.068 L 3027.982 1255.722 L 2813.314 1255.722 L 2769.079 1216.777 L 2769.079 988.832 L 2813.314 949.887 L 3245.252 949.887 L 3289.487 988.832 L 3289.487 1102.232 L 3203.619 1102.232 L 3203.619 1026.632 L 2943.416 1026.632 L 2943.416 1178.977 L 3245.252 1178.977 L 3289.487 1217.922 L 3289.487 1445.868 L 3289.487 1445.868 L 3289.487 1445.868 L 3289.487 1445.868 L 3289.487 1445.868 Z  M 3452.187 1026.632 L 3712.391 1026.632 L 3712.391 1141.177 L 3625.223 1217.922 L 3625.223 1408.068 L 3452.187 1408.068 L 3452.187 1026.632 L 3452.187 1026.632 L 3452.187 1026.632 L 3452.187 1026.632 L 3452.187 1026.632 L 3452.187 1026.632 Z  M 4391.868 1026.632 L 4217.532 1026.632 L 4134.496 1112.942 L 4136.023 1404.848 L 4217.532 1408.068 L 4391.868 1408.068 L 4391.868 1026.632 L 4391.868 1026.632 L 4391.868 1026.632 L 4391.868 1026.632 Z  M 4590.994 1484.813 L 4546.76 1445.868 L 4546.76 988.832 L 4590.994 949.887 L 4979.999 949.887 L 4979.999 1026.632 L 4719.795 1026.632 L 4719.795 1141.177 L 4805.663 1216.777 L 4805.663 1445.868 L 4761.428 1484.813 L 4590.994 1484.813 L 4590.994 1484.813 Z  M 1622.152 1484.813 L 1577.918 1445.868 L 1577.918 1217.922 L 1622.152 1178.977 L 1925.29 1178.977 L 1925.29 1026.632 L 1663.785 1026.632 L 1663.785 1102.232 L 1577.918 1102.232 L 1577.918 987.686 L 1620.851 949.887 L 1968.223 949.887 L 2011.157 987.686 L 2011.157 1142.323 L 2097.024 1217.922 L 2097.024 1445.868 L 2052.79 1484.813 L 1622.152 1484.813 L 1622.152 1484.813 L 1622.152 1484.813 L 1622.152 1484.813 L 1622.152 1484.813 L 1622.152 1484.813 L 1622.152 1484.813 L 1622.152 1484.813 L 1622.152 1484.813 Z  M 2214.983 1484.813 L 2170.749 1445.868 L 2170.749 988.832 L 2214.983 949.887 L 2645.62 949.887 L 2689.855 988.832 L 2689.855 1445.868 L 2645.62 1484.813 L 2214.983 1484.813 L 2214.983 1484.813 L 2214.983 1484.813 L 2214.983 1484.813 L 2214.983 1484.813 L 2214.983 1484.813 L 2214.983 1484.813 Z  M 3365.019 1445.868 L 3409.254 1484.813 L 3841.192 1484.813 L 3885.426 1445.868 L 3885.426 835.341 L 3842.493 797.541 L 3756.626 797.541 L 3712.391 836.487 L 3712.391 949.887 L 3409.254 949.887 L 3365.019 988.832 L 3365.019 1445.868 L 3365.019 1445.868 L 3365.019 1445.868 L 3365.019 1445.868 L 3365.019 1445.868 L 3365.019 1445.868 Z  M 4002.864 1484.813 L 3958.629 1445.868 L 3958.629 988.832 L 4002.864 949.887 L 4433.501 949.887 L 4477.735 988.832 L 4477.735 1445.868 L 4433.501 1484.813 L 4002.864 1484.813 L 4002.864 1484.813 L 4002.864 1484.813 L 4002.864 1484.813 L 4002.864 1484.813 Z  M 5298.658 1026.632 L 5298.658 1142.323 L 5384.526 1217.922 L 5384.526 1445.868 L 5340.291 1484.813 L 5169.858 1484.813 L 5125.623 1445.868 L 5125.623 1026.632 L 5037.154 1026.632 L 5037.154 949.887 L 5125.623 949.887 L 5125.623 835.341 L 5168.557 797.541 L 5385.827 797.541 L 5385.827 873.141 L 5212.791 873.141 L 5212.791 949.887 L 5385.827 949.887 L 5385.827 1026.632 L 5298.658 1026.632 L 5298.658 1026.632 Z " fill-rule="evenodd" fill="url(#_lgradient_0)" mask="url(#_mask_O5W4kCci0vAnQqpkeSiylfAOXawRFVhf)" vector-effect="non-scaling-stroke" stroke-width="99.857" stroke="rgb(23,23,23)" stroke-linejoin="round" stroke-linecap="round" stroke-miterlimit="4"/><path d=" M 456.5 873.141 L 456.5 988.832 L 542.367 1065.577 L 542.367 1408.068 L 803.872 1408.068 L 803.872 1331.322 L 889.739 1331.322 L 889.739 1445.868 L 845.505 1484.813 L 327.699 1484.813 L 283.465 1445.868 L 283.465 836.487 L 327.699 797.541 L 846.806 797.541 L 891.04 836.487 L 891.04 949.887 L 803.872 949.887 L 803.872 873.141 L 456.5 873.141 L 456.5 873.141 L 456.5 873.141 L 456.5 873.141 L 456.5 873.141 L 456.5 873.141 L 456.5 873.141 L 456.5 873.141 L 456.5 873.141 Z  M 1191.277 1484.813 L 1020.843 1484.813 L 976.609 1445.868 L 976.609 836.487 L 1020.843 797.541 L 1105.409 797.541 L 1149.644 836.487 L 1150.945 949.887 L 1452.781 949.887 L 1497.016 989.977 L 1497.016 1484.813 L 1408.547 1484.813 L 1408.547 1026.632 L 1149.644 1026.632 L 1149.644 1141.177 L 1235.511 1216.777 L 1235.511 1445.868 L 1191.277 1484.813 L 1191.277 1484.813 L 1191.277 1484.813 L 1191.277 1484.813 L 1191.277 1484.813 L 1191.277 1484.813 L 1191.277 1484.813 L 1191.277 1484.813 L 1191.277 1484.813 Z  M 1925.29 1255.722 L 1750.953 1255.722 L 1750.953 1408.068 L 1925.29 1408.068 L 1925.29 1255.722 L 1925.29 1255.722 L 1925.29 1255.722 L 1925.29 1255.722 L 1925.29 1255.722 L 1925.29 1255.722 L 1925.29 1255.722 L 1925.29 1255.722 Z  M 2603.988 1026.632 L 2345.085 1026.632 L 2345.085 1142.323 L 2429.652 1216.777 L 2429.652 1408.068 L 2603.988 1408.068 L 2603.988 1026.632 L 2603.988 1026.632 L 2603.988 1026.632 L 2603.988 1026.632 L 2603.988 1026.632 L 2603.988 1026.632 L 2603.988 1026.632 L 2603.988 1026.632 Z  M 3289.487 1445.868 L 3245.252 1484.813 L 2813.314 1484.813 L 2769.079 1445.868 L 2769.079 1331.322 L 2856.247 1331.322 L 2856.247 1408.068 L 3027.982 1408.068 L 3027.982 1255.722 L 2813.314 1255.722 L 2769.079 1216.777 L 2769.079 988.832 L 2813.314 949.887 L 3245.252 949.887 L 3289.487 988.832 L 3289.487 1102.232 L 3203.619 1102.232 L 3203.619 1026.632 L 2943.416 1026.632 L 2943.416 1178.977 L 3245.252 1178.977 L 3289.487 1217.922 L 3289.487 1445.868 L 3289.487 1445.868 L 3289.487 1445.868 L 3289.487 1445.868 L 3289.487 1445.868 Z  M 3452.187 1026.632 L 3712.391 1026.632 L 3712.391 1141.177 L 3625.223 1217.922 L 3625.223 1408.068 L 3452.187 1408.068 L 3452.187 1026.632 L 3452.187 1026.632 L 3452.187 1026.632 L 3452.187 1026.632 L 3452.187 1026.632 L 3452.187 1026.632 Z  M 4391.868 1026.632 L 4217.532 1026.632 L 4134.496 1112.942 L 4136.023 1404.848 L 4217.532 1408.068 L 4391.868 1408.068 L 4391.868 1026.632 L 4391.868 1026.632 L 4391.868 1026.632 L 4391.868 1026.632 Z  M 4590.994 1484.813 L 4546.76 1445.868 L 4546.76 988.832 L 4590.994 949.887 L 4979.999 949.887 L 4979.999 1026.632 L 4719.795 1026.632 L 4719.795 1141.177 L 4805.663 1216.777 L 4805.663 1445.868 L 4761.428 1484.813 L 4590.994 1484.813 L 4590.994 1484.813 Z  M 1622.152 1484.813 L 1577.918 1445.868 L 1577.918 1217.922 L 1622.152 1178.977 L 1925.29 1178.977 L 1925.29 1026.632 L 1663.785 1026.632 L 1663.785 1102.232 L 1577.918 1102.232 L 1577.918 987.686 L 1620.851 949.887 L 1968.223 949.887 L 2011.157 987.686 L 2011.157 1142.323 L 2097.024 1217.922 L 2097.024 1445.868 L 2052.79 1484.813 L 1622.152 1484.813 L 1622.152 1484.813 L 1622.152 1484.813 L 1622.152 1484.813 L 1622.152 1484.813 L 1622.152 1484.813 L 1622.152 1484.813 L 1622.152 1484.813 L 1622.152 1484.813 Z  M 2214.983 1484.813 L 2170.749 1445.868 L 2170.749 988.832 L 2214.983 949.887 L 2645.62 949.887 L 2689.855 988.832 L 2689.855 1445.868 L 2645.62 1484.813 L 2214.983 1484.813 L 2214.983 1484.813 L 2214.983 1484.813 L 2214.983 1484.813 L 2214.983 1484.813 L 2214.983 1484.813 L 2214.983 1484.813 Z  M 3365.019 1445.868 L 3409.254 1484.813 L 3841.192 1484.813 L 3885.426 1445.868 L 3885.426 835.341 L 3842.493 797.541 L 3756.626 797.541 L 3712.391 836.487 L 3712.391 949.887 L 3409.254 949.887 L 3365.019 988.832 L 3365.019 1445.868 L 3365.019 1445.868 L 3365.019 1445.868 L 3365.019 1445.868 L 3365.019 1445.868 L 3365.019 1445.868 Z  M 4002.864 1484.813 L 3958.629 1445.868 L 3958.629 988.832 L 4002.864 949.887 L 4433.501 949.887 L 4477.735 988.832 L 4477.735 1445.868 L 4433.501 1484.813 L 4002.864 1484.813 L 4002.864 1484.813 L 4002.864 1484.813 L 4002.864 1484.813 L 4002.864 1484.813 Z  M 5298.658 1026.632 L 5298.658 1142.323 L 5384.526 1217.922 L 5384.526 1445.868 L 5340.291 1484.813 L 5169.858 1484.813 L 5125.623 1445.868 L 5125.623 1026.632 L 5037.154 1026.632 L 5037.154 949.887 L 5125.623 949.887 L 5125.623 835.341 L 5168.557 797.541 L 5385.827 797.541 L 5385.827 873.141 L 5212.791 873.141 L 5212.791 949.887 L 5385.827 949.887 L 5385.827 1026.632 L 5298.658 1026.632 L 5298.658 1026.632 Z " fill-rule="evenodd" fill="url(#_lgradient_0)"/><mask id="_mask_r00tBac12dh5hBYay5tJgMbPkdvCcd0t" x="-200%" y="-200%" width="400%" height="400%"><rect x="-200%" y="-200%" width="400%" height="400%" style="fill:white;"/><path d=" M 4100.603 1116.809 C 4103.729 1117.955 4167.144 1161.594 4179.79 1171.302 C 4205.827 1191.288 4237.881 1220.489 4245.908 1231.533 C 4251.882 1239.751 4256.793 1254.281 4258.394 1268.479 C 4260.302 1285.387 4260.233 1424.395 4258.263 1532.047 C 4256.591 1623.377 4256.811 1620.874 4248.171 1646.931 C 4245.495 1655 4243.542 1661.829 4243.832 1662.105 C 4244.121 1662.381 4246.36 1661.148 4248.808 1659.364 C 4254.567 1655.168 4260.973 1645.847 4264.797 1636.099 C 4271.183 1619.818 4271.578 1614.299 4273.016 1521.344 C 4274.313 1437.522 4275.245 1399.817 4278.494 1299.54 L 4280.016 1252.562 L 4283.657 1245.589 C 4290.07 1233.305 4301.377 1223.488 4364.901 1175.051 C 4398.636 1149.327 4426.54 1128.281 4426.907 1128.281 C 4428.16 1128.281 4425.876 1155.034 4424.478 1156.732 C 4423.711 1157.662 4406.65 1170.158 4386.563 1184.501 C 4343.302 1215.39 4331.591 1224.613 4317.589 1238.822 C 4303.723 1252.893 4300.309 1257.83 4298.374 1266.618 C 4294.642 1283.553 4293.771 1329.598 4295.232 1432.544 C 4296.925 1551.893 4296.025 1591.897 4291.224 1610.541 C 4287.391 1625.429 4280.745 1643.711 4275.013 1655.136 C 4272.594 1659.958 4270.832 1664.112 4271.099 1664.367 C 4272.261 1665.476 4279.206 1660.82 4284.592 1655.319 C 4301.487 1638.065 4312.012 1612.369 4315.355 1580.214 C 4316.694 1567.331 4317.312 1493.413 4316.484 1445.229 C 4316.225 1430.184 4316.026 1400.214 4316.042 1378.628 C 4316.067 1343.372 4316.351 1337.891 4318.831 1324.729 C 4322.116 1307.295 4328.666 1287.802 4335.093 1276.332 C 4338.947 1269.454 4340.707 1267.571 4345.311 1265.395 C 4358.555 1259.138 4394.615 1258.48 4423.395 1263.972 L 4429.931 1265.219 L 4429.931 1274.649 C 4429.931 1279.835 4429.791 1284.164 4429.62 1284.268 C 4429.45 1284.372 4415.583 1284.795 4398.806 1285.208 C 4365.416 1286.031 4363.342 1286.428 4354.765 1293.621 C 4348.512 1298.865 4346.935 1302.167 4345.371 1313.284 C 4342.058 1336.832 4341.515 1354.869 4341.536 1440.653 C 4341.549 1493.592 4341.018 1537.322 4340.259 1545.906 C 4336.697 1586.166 4328.278 1618.384 4313.991 1646.434 C 4307.064 1660.034 4305.912 1661.55 4295.128 1671.249 C 4274.839 1689.498 4247.725 1707.169 4224.504 1717.276 L 4213.921 1721.882 L 4221.508 1721.452 C 4238.427 1720.492 4279.674 1696.69 4328.981 1659.436 C 4338.168 1652.494 4346.12 1646.815 4346.652 1646.815 C 4348.443 1646.815 4351.496 1652.075 4351.496 1655.162 C 4351.496 1660.594 4341.596 1674.604 4333.258 1680.97 C 4290.715 1713.456 4256.066 1733.751 4226.994 1743.211 C 4220.489 1745.327 4213.778 1748.321 4212.08 1749.863 L 4208.994 1752.667 L 4212.76 1756.264 L 4216.526 1759.862 L 4227.674 1756.785 C 4252.569 1749.914 4267.963 1742.419 4316.523 1713.527 C 4353.575 1691.482 4353.986 1691.344 4353.986 1700.974 C 4353.986 1705.143 4352.845 1707.683 4347.772 1714.803 C 4344.355 1719.6 4340.854 1724.374 4339.992 1725.412 C 4337.464 1728.452 4295.181 1752.272 4277.643 1760.536 C 4268.78 1764.712 4255.019 1770.047 4247.062 1772.393 C 4225.973 1778.611 4225.95 1778.632 4232.171 1785.4 C 4236.151 1789.731 4236.367 1789.804 4243.129 1789.112 C 4258.902 1787.497 4287.209 1778.839 4310.281 1768.572 C 4316.715 1765.709 4322.728 1763.366 4323.645 1763.366 C 4324.561 1763.366 4327.126 1764.916 4329.346 1766.81 C 4333.23 1770.125 4333.312 1770.38 4331.544 1773.648 C 4328.553 1779.178 4317.701 1788.661 4309.738 1792.703 C 4305.657 1794.775 4291.533 1799.535 4278.351 1803.281 C 4265.169 1807.027 4254.385 1810.52 4254.385 1811.043 C 4254.385 1811.565 4256.71 1813.763 4259.553 1815.926 C 4272.67 1825.906 4274.496 1829.525 4268.933 1834.517 C 4265.336 1837.745 4260.632 1837.8 4251.272 1834.724 C 4241.601 1831.546 4238.922 1831.669 4237.154 1835.375 C 4236.36 1837.041 4235.709 1839.181 4235.709 1840.132 C 4235.709 1842.469 4232.474 1842.305 4224.072 1839.544 C 4199.218 1831.375 4177.289 1813.761 4157.366 1785.963 C 4138.44 1759.556 4126.61 1725.295 4125.2 1692.802 C 4124.5 1676.685 4126.458 1667.308 4132.196 1659.303 C 4136.605 1653.152 4140.473 1652.931 4144.474 1658.603 C 4148.845 1664.799 4150.887 1672.988 4152.324 1690.086 C 4156.786 1743.183 4176.985 1783.364 4213.876 1812.531 C 4219.666 1817.109 4219.951 1817.212 4217.683 1813.911 C 4192.805 1777.692 4174.641 1738.228 4169.087 1708.329 C 4167.421 1699.359 4167.072 1692.698 4167.562 1679.191 C 4168.234 1660.638 4170.566 1649.562 4176.502 1636.742 C 4179.784 1629.653 4181.485 1628.748 4190.556 1629.268 L 4195.826 1629.57 L 4196.453 1532.048 C 4196.799 1478.41 4197.08 1421.971 4197.077 1406.626 C 4197.072 1371.14 4194.682 1336.629 4190.197 1307.27 C 4188.081 1293.413 4186.192 1290.987 4173.908 1286.353 C 4165.633 1283.232 4149.603 1282.62 4126.506 1284.543 C 4112.124 1285.741 4103.656 1284.283 4100.572 1280.078 C 4099.449 1278.546 4098.758 1274.748 4098.758 1270.108 C 4098.758 1261.2 4098.753 1261.203 4115.629 1259.226 C 4140.349 1256.33 4167.219 1258.117 4185.278 1263.858 C 4192.519 1266.16 4193.921 1267.145 4198.337 1273.037 C 4207.647 1285.456 4213.867 1306.202 4216.976 1335.205 C 4217.738 1342.312 4218.287 1371.991 4218.253 1404.184 C 4218.221 1435.262 4218.559 1490.927 4219.006 1527.885 C 4219.527 1570.911 4219.316 1607.021 4218.422 1628.277 C 4217.653 1646.534 4217.265 1661.703 4217.56 1661.985 C 4218.799 1663.169 4225.792 1649.264 4228.14 1640.948 C 4232.763 1624.574 4233.254 1617.069 4234.411 1545.13 C 4235.042 1505.883 4236.215 1442.196 4237.018 1403.603 C 4239.237 1296.993 4239.203 1287.268 4236.576 1278.132 C 4231.933 1261.99 4224.821 1247.872 4215.307 1235.912 C 4205.694 1223.829 4189.315 1209.896 4145.757 1176.751 L 4098.758 1140.986 L 4098.758 1128.56 C 4098.758 1118.071 4099.046 1116.239 4100.602 1116.809 L 4100.603 1116.809 L 4100.603 1116.809 L 4100.603 1116.809 L 4100.603 1116.809 L 4100.603 1116.809 Z  M 3690.299 1863.279 C 3706.713 1840.033 3733.25 1827.816 3772.255 1825.547 C 3801.321 1823.856 3823.225 1826.631 3875.058 1838.574 C 3921.349 1849.239 3930.613 1850.665 3958.039 1851.345 L 3981.881 1851.936 L 3988.23 1848.635 C 3991.722 1846.819 3994.543 1845.018 3994.498 1844.631 C 3994.36 1843.433 3976.301 1828.891 3963.978 1820.057 C 3937.107 1800.791 3910.602 1789.857 3885.946 1787.866 L 3876.405 1787.096 L 3875.054 1780.879 C 3872.333 1768.356 3872.422 1768.056 3879.415 1766.29 C 3888.761 1763.931 3912.104 1765.045 3922.368 1768.341 C 3936.289 1772.811 3955.787 1782.844 3978.424 1797.185 C 4003.553 1813.106 4023.399 1823.485 4036.018 1827.307 C 4046.346 1830.435 4046.585 1830.811 4047.688 1845.652 L 4048.453 1855.952 L 4038.635 1859.634 C 4015.252 1868.405 3998.809 1871.633 3972.169 1872.683 C 3941.734 1873.883 3914.564 1870.816 3848.29 1858.701 C 3790.849 1848.2 3792.162 1848.328 3774.297 1851.45 C 3743.444 1856.84 3725.572 1864.253 3709.895 1878.16 C 3706.117 1881.511 3705.648 1881.615 3698.067 1880.778 C 3693.725 1880.299 3688.913 1879.452 3687.372 1878.895 C 3682.964 1877.301 3683.892 1872.353 3690.299 1863.279 L 3690.299 1863.279 L 3690.299 1863.279 L 3690.299 1863.279 L 3690.299 1863.279 L 3690.299 1863.279 Z  M 3813.726 1756.665 L 3814.21 1751.464 L 3819.2 1752.104 C 3826.856 1753.085 3833.221 1757.784 3837.069 1765.298 C 3840.054 1771.126 3840.528 1773.834 3841.502 1790.631 C 3842.102 1800.975 3842.614 1811.445 3842.64 1813.898 L 3842.687 1818.358 L 3830.883 1818.358 C 3816.931 1818.358 3818.865 1821.77 3815.334 1790.928 C 3812.851 1769.24 3812.752 1767.126 3813.726 1756.665 L 3813.726 1756.665 L 3813.726 1756.665 L 3813.726 1756.665 L 3813.726 1756.665 Z  M 3829.668 1864.027 C 3833.771 1863.043 3841.928 1864.305 3846.696 1866.66 C 3852.403 1869.479 3860.937 1877.448 3868.839 1887.337 C 3876.983 1897.53 3886.485 1906.374 3892.462 1909.327 C 3905.333 1915.685 3947.902 1919.991 3970.028 1917.174 C 4000.167 1913.337 4033.72 1898.438 4055.973 1879.01 C 4059.717 1875.741 4063.334 1873.066 4064.009 1873.066 C 4064.685 1873.066 4070.769 1878.774 4077.53 1885.75 C 4086.196 1894.692 4089.272 1898.601 4087.955 1899.001 C 4082.772 1900.575 4044.013 1920.423 4037.415 1924.881 C 4023.14 1934.527 4012.965 1947.33 4009.582 1959.905 C 4008.793 1962.837 4007.336 1967.254 4006.344 1969.72 C 4003.732 1976.212 4004.116 1985.125 4007.652 2000.09 C 4012.943 2022.478 4011.439 2029.605 4000.343 2034.736 C 3991.142 2038.991 3989.518 2038.138 3985.605 2026.995 C 3978.743 2007.456 3978.447 1981.711 3984.787 1955.907 C 3986.74 1947.958 3987.021 1945.053 3985.935 1944.014 C 3984.304 1942.454 3973.573 1942.37 3955.983 1943.779 C 3946.116 1944.569 3941.819 1944.298 3930.053 1942.143 C 3894.289 1935.591 3868.114 1922.79 3847.547 1901.791 C 3839.434 1893.508 3837.294 1890.496 3835.653 1885.054 C 3834.552 1881.404 3832.04 1875.351 3830.071 1871.603 L 3826.492 1864.788 L 3829.668 1864.027 L 3829.668 1864.027 L 3829.668 1864.027 L 3829.668 1864.027 Z  M 4049.354 1796.67 C 4049.918 1794.881 4051.597 1791.536 4053.084 1789.237 C 4055.303 1785.808 4056.534 1785.058 4059.944 1785.058 L 4064.102 1785.058 L 4064.924 1793.086 C 4066.98 1813.14 4073.912 1829.333 4087.271 1845.282 C 4101.522 1862.297 4122.064 1877.034 4164.954 1901.014 C 4178.758 1908.732 4186.24 1913.601 4186.268 1914.883 C 4186.32 1917.287 4179.773 1922.748 4175.654 1923.735 C 4169.016 1925.327 4137.052 1916.188 4118.747 1907.466 C 4083.389 1890.619 4059.328 1862.338 4050.522 1827.278 C 4048.072 1817.523 4047.5 1802.551 4049.354 1796.67 L 4049.354 1796.67 L 4049.354 1796.67 Z  M 4087.215 1746.406 C 4089.22 1738.657 4091.85 1733.998 4097.381 1728.395 L 4101.888 1723.83 L 4104.248 1726.614 C 4107.901 1730.923 4110.348 1740.232 4112.263 1757.109 C 4113.228 1765.613 4114.837 1774.979 4115.837 1777.922 C 4126.834 1810.271 4140.368 1830.442 4168.621 1856.589 C 4182.446 1869.385 4216.643 1895.723 4221.964 1897.673 C 4223.042 1898.069 4223.662 1900.209 4223.662 1903.543 C 4223.662 1909.678 4224.402 1909.668 4205.65 1903.791 C 4163.307 1890.521 4128.264 1863.138 4103.556 1824.017 C 4098 1815.22 4097.467 1813.554 4091.603 1786.679 C 4085.005 1756.439 4084.891 1755.392 4087.215 1746.406 L 4087.215 1746.406 Z " fill-rule="evenodd" fill="black" stroke="none"/></mask><path d=" M 4100.603 1116.809 C 4103.729 1117.955 4167.144 1161.594 4179.79 1171.302 C 4205.827 1191.288 4237.881 1220.489 4245.908 1231.533 C 4251.882 1239.751 4256.793 1254.281 4258.394 1268.479 C 4260.302 1285.387 4260.233 1424.395 4258.263 1532.047 C 4256.591 1623.377 4256.811 1620.874 4248.171 1646.931 C 4245.495 1655 4243.542 1661.829 4243.832 1662.105 C 4244.121 1662.381 4246.36 1661.148 4248.808 1659.364 C 4254.567 1655.168 4260.973 1645.847 4264.797 1636.099 C 4271.183 1619.818 4271.578 1614.299 4273.016 1521.344 C 4274.313 1437.522 4275.245 1399.817 4278.494 1299.54 L 4280.016 1252.562 L 4283.657 1245.589 C 4290.07 1233.305 4301.377 1223.488 4364.901 1175.051 C 4398.636 1149.327 4426.54 1128.281 4426.907 1128.281 C 4428.16 1128.281 4425.876 1155.034 4424.478 1156.732 C 4423.711 1157.662 4406.65 1170.158 4386.563 1184.501 C 4343.302 1215.39 4331.591 1224.613 4317.589 1238.822 C 4303.723 1252.893 4300.309 1257.83 4298.374 1266.618 C 4294.642 1283.553 4293.771 1329.598 4295.232 1432.544 C 4296.925 1551.893 4296.025 1591.897 4291.224 1610.541 C 4287.391 1625.429 4280.745 1643.711 4275.013 1655.136 C 4272.594 1659.958 4270.832 1664.112 4271.099 1664.367 C 4272.261 1665.476 4279.206 1660.82 4284.592 1655.319 C 4301.487 1638.065 4312.012 1612.369 4315.355 1580.214 C 4316.694 1567.331 4317.312 1493.413 4316.484 1445.229 C 4316.225 1430.184 4316.026 1400.214 4316.042 1378.628 C 4316.067 1343.372 4316.351 1337.891 4318.831 1324.729 C 4322.116 1307.295 4328.666 1287.802 4335.093 1276.332 C 4338.947 1269.454 4340.707 1267.571 4345.311 1265.395 C 4358.555 1259.138 4394.615 1258.48 4423.395 1263.972 L 4429.931 1265.219 L 4429.931 1274.649 C 4429.931 1279.835 4429.791 1284.164 4429.62 1284.268 C 4429.45 1284.372 4415.583 1284.795 4398.806 1285.208 C 4365.416 1286.031 4363.342 1286.428 4354.765 1293.621 C 4348.512 1298.865 4346.935 1302.167 4345.371 1313.284 C 4342.058 1336.832 4341.515 1354.869 4341.536 1440.653 C 4341.549 1493.592 4341.018 1537.322 4340.259 1545.906 C 4336.697 1586.166 4328.278 1618.384 4313.991 1646.434 C 4307.064 1660.034 4305.912 1661.55 4295.128 1671.249 C 4274.839 1689.498 4247.725 1707.169 4224.504 1717.276 L 4213.921 1721.882 L 4221.508 1721.452 C 4238.427 1720.492 4279.674 1696.69 4328.981 1659.436 C 4338.168 1652.494 4346.12 1646.815 4346.652 1646.815 C 4348.443 1646.815 4351.496 1652.075 4351.496 1655.162 C 4351.496 1660.594 4341.596 1674.604 4333.258 1680.97 C 4290.715 1713.456 4256.066 1733.751 4226.994 1743.211 C 4220.489 1745.327 4213.778 1748.321 4212.08 1749.863 L 4208.994 1752.667 L 4212.76 1756.264 L 4216.526 1759.862 L 4227.674 1756.785 C 4252.569 1749.914 4267.963 1742.419 4316.523 1713.527 C 4353.575 1691.482 4353.986 1691.344 4353.986 1700.974 C 4353.986 1705.143 4352.845 1707.683 4347.772 1714.803 C 4344.355 1719.6 4340.854 1724.374 4339.992 1725.412 C 4337.464 1728.452 4295.181 1752.272 4277.643 1760.536 C 4268.78 1764.712 4255.019 1770.047 4247.062 1772.393 C 4225.973 1778.611 4225.95 1778.632 4232.171 1785.4 C 4236.151 1789.731 4236.367 1789.804 4243.129 1789.112 C 4258.902 1787.497 4287.209 1778.839 4310.281 1768.572 C 4316.715 1765.709 4322.728 1763.366 4323.645 1763.366 C 4324.561 1763.366 4327.126 1764.916 4329.346 1766.81 C 4333.23 1770.125 4333.312 1770.38 4331.544 1773.648 C 4328.553 1779.178 4317.701 1788.661 4309.738 1792.703 C 4305.657 1794.775 4291.533 1799.535 4278.351 1803.281 C 4265.169 1807.027 4254.385 1810.52 4254.385 1811.043 C 4254.385 1811.565 4256.71 1813.763 4259.553 1815.926 C 4272.67 1825.906 4274.496 1829.525 4268.933 1834.517 C 4265.336 1837.745 4260.632 1837.8 4251.272 1834.724 C 4241.601 1831.546 4238.922 1831.669 4237.154 1835.375 C 4236.36 1837.041 4235.709 1839.181 4235.709 1840.132 C 4235.709 1842.469 4232.474 1842.305 4224.072 1839.544 C 4199.218 1831.375 4177.289 1813.761 4157.366 1785.963 C 4138.44 1759.556 4126.61 1725.295 4125.2 1692.802 C 4124.5 1676.685 4126.458 1667.308 4132.196 1659.303 C 4136.605 1653.152 4140.473 1652.931 4144.474 1658.603 C 4148.845 1664.799 4150.887 1672.988 4152.324 1690.086 C 4156.786 1743.183 4176.985 1783.364 4213.876 1812.531 C 4219.666 1817.109 4219.951 1817.212 4217.683 1813.911 C 4192.805 1777.692 4174.641 1738.228 4169.087 1708.329 C 4167.421 1699.359 4167.072 1692.698 4167.562 1679.191 C 4168.234 1660.638 4170.566 1649.562 4176.502 1636.742 C 4179.784 1629.653 4181.485 1628.748 4190.556 1629.268 L 4195.826 1629.57 L 4196.453 1532.048 C 4196.799 1478.41 4197.08 1421.971 4197.077 1406.626 C 4197.072 1371.14 4194.682 1336.629 4190.197 1307.27 C 4188.081 1293.413 4186.192 1290.987 4173.908 1286.353 C 4165.633 1283.232 4149.603 1282.62 4126.506 1284.543 C 4112.124 1285.741 4103.656 1284.283 4100.572 1280.078 C 4099.449 1278.546 4098.758 1274.748 4098.758 1270.108 C 4098.758 1261.2 4098.753 1261.203 4115.629 1259.226 C 4140.349 1256.33 4167.219 1258.117 4185.278 1263.858 C 4192.519 1266.16 4193.921 1267.145 4198.337 1273.037 C 4207.647 1285.456 4213.867 1306.202 4216.976 1335.205 C 4217.738 1342.312 4218.287 1371.991 4218.253 1404.184 C 4218.221 1435.262 4218.559 1490.927 4219.006 1527.885 C 4219.527 1570.911 4219.316 1607.021 4218.422 1628.277 C 4217.653 1646.534 4217.265 1661.703 4217.56 1661.985 C 4218.799 1663.169 4225.792 1649.264 4228.14 1640.948 C 4232.763 1624.574 4233.254 1617.069 4234.411 1545.13 C 4235.042 1505.883 4236.215 1442.196 4237.018 1403.603 C 4239.237 1296.993 4239.203 1287.268 4236.576 1278.132 C 4231.933 1261.99 4224.821 1247.872 4215.307 1235.912 C 4205.694 1223.829 4189.315 1209.896 4145.757 1176.751 L 4098.758 1140.986 L 4098.758 1128.56 C 4098.758 1118.071 4099.046 1116.239 4100.602 1116.809 L 4100.603 1116.809 L 4100.603 1116.809 L 4100.603 1116.809 L 4100.603 1116.809 L 4100.603 1116.809 Z  M 3690.299 1863.279 C 3706.713 1840.033 3733.25 1827.816 3772.255 1825.547 C 3801.321 1823.856 3823.225 1826.631 3875.058 1838.574 C 3921.349 1849.239 3930.613 1850.665 3958.039 1851.345 L 3981.881 1851.936 L 3988.23 1848.635 C 3991.722 1846.819 3994.543 1845.018 3994.498 1844.631 C 3994.36 1843.433 3976.301 1828.891 3963.978 1820.057 C 3937.107 1800.791 3910.602 1789.857 3885.946 1787.866 L 3876.405 1787.096 L 3875.054 1780.879 C 3872.333 1768.356 3872.422 1768.056 3879.415 1766.29 C 3888.761 1763.931 3912.104 1765.045 3922.368 1768.341 C 3936.289 1772.811 3955.787 1782.844 3978.424 1797.185 C 4003.553 1813.106 4023.399 1823.485 4036.018 1827.307 C 4046.346 1830.435 4046.585 1830.811 4047.688 1845.652 L 4048.453 1855.952 L 4038.635 1859.634 C 4015.252 1868.405 3998.809 1871.633 3972.169 1872.683 C 3941.734 1873.883 3914.564 1870.816 3848.29 1858.701 C 3790.849 1848.2 3792.162 1848.328 3774.297 1851.45 C 3743.444 1856.84 3725.572 1864.253 3709.895 1878.16 C 3706.117 1881.511 3705.648 1881.615 3698.067 1880.778 C 3693.725 1880.299 3688.913 1879.452 3687.372 1878.895 C 3682.964 1877.301 3683.892 1872.353 3690.299 1863.279 L 3690.299 1863.279 L 3690.299 1863.279 L 3690.299 1863.279 L 3690.299 1863.279 L 3690.299 1863.279 Z  M 3813.726 1756.665 L 3814.21 1751.464 L 3819.2 1752.104 C 3826.856 1753.085 3833.221 1757.784 3837.069 1765.298 C 3840.054 1771.126 3840.528 1773.834 3841.502 1790.631 C 3842.102 1800.975 3842.614 1811.445 3842.64 1813.898 L 3842.687 1818.358 L 3830.883 1818.358 C 3816.931 1818.358 3818.865 1821.77 3815.334 1790.928 C 3812.851 1769.24 3812.752 1767.126 3813.726 1756.665 L 3813.726 1756.665 L 3813.726 1756.665 L 3813.726 1756.665 L 3813.726 1756.665 Z  M 3829.668 1864.027 C 3833.771 1863.043 3841.928 1864.305 3846.696 1866.66 C 3852.403 1869.479 3860.937 1877.448 3868.839 1887.337 C 3876.983 1897.53 3886.485 1906.374 3892.462 1909.327 C 3905.333 1915.685 3947.902 1919.991 3970.028 1917.174 C 4000.167 1913.337 4033.72 1898.438 4055.973 1879.01 C 4059.717 1875.741 4063.334 1873.066 4064.009 1873.066 C 4064.685 1873.066 4070.769 1878.774 4077.53 1885.75 C 4086.196 1894.692 4089.272 1898.601 4087.955 1899.001 C 4082.772 1900.575 4044.013 1920.423 4037.415 1924.881 C 4023.14 1934.527 4012.965 1947.33 4009.582 1959.905 C 4008.793 1962.837 4007.336 1967.254 4006.344 1969.72 C 4003.732 1976.212 4004.116 1985.125 4007.652 2000.09 C 4012.943 2022.478 4011.439 2029.605 4000.343 2034.736 C 3991.142 2038.991 3989.518 2038.138 3985.605 2026.995 C 3978.743 2007.456 3978.447 1981.711 3984.787 1955.907 C 3986.74 1947.958 3987.021 1945.053 3985.935 1944.014 C 3984.304 1942.454 3973.573 1942.37 3955.983 1943.779 C 3946.116 1944.569 3941.819 1944.298 3930.053 1942.143 C 3894.289 1935.591 3868.114 1922.79 3847.547 1901.791 C 3839.434 1893.508 3837.294 1890.496 3835.653 1885.054 C 3834.552 1881.404 3832.04 1875.351 3830.071 1871.603 L 3826.492 1864.788 L 3829.668 1864.027 L 3829.668 1864.027 L 3829.668 1864.027 L 3829.668 1864.027 Z  M 4049.354 1796.67 C 4049.918 1794.881 4051.597 1791.536 4053.084 1789.237 C 4055.303 1785.808 4056.534 1785.058 4059.944 1785.058 L 4064.102 1785.058 L 4064.924 1793.086 C 4066.98 1813.14 4073.912 1829.333 4087.271 1845.282 C 4101.522 1862.297 4122.064 1877.034 4164.954 1901.014 C 4178.758 1908.732 4186.24 1913.601 4186.268 1914.883 C 4186.32 1917.287 4179.773 1922.748 4175.654 1923.735 C 4169.016 1925.327 4137.052 1916.188 4118.747 1907.466 C 4083.389 1890.619 4059.328 1862.338 4050.522 1827.278 C 4048.072 1817.523 4047.5 1802.551 4049.354 1796.67 L 4049.354 1796.67 L 4049.354 1796.67 Z  M 4087.215 1746.406 C 4089.22 1738.657 4091.85 1733.998 4097.381 1728.395 L 4101.888 1723.83 L 4104.248 1726.614 C 4107.901 1730.923 4110.348 1740.232 4112.263 1757.109 C 4113.228 1765.613 4114.837 1774.979 4115.837 1777.922 C 4126.834 1810.271 4140.368 1830.442 4168.621 1856.589 C 4182.446 1869.385 4216.643 1895.723 4221.964 1897.673 C 4223.042 1898.069 4223.662 1900.209 4223.662 1903.543 C 4223.662 1909.678 4224.402 1909.668 4205.65 1903.791 C 4163.307 1890.521 4128.264 1863.138 4103.556 1824.017 C 4098 1815.22 4097.467 1813.554 4091.603 1786.679 C 4085.005 1756.439 4084.891 1755.392 4087.215 1746.406 L 4087.215 1746.406 Z " fill-rule="evenodd" fill="rgb(0,195,0)" mask="url(#_mask_r00tBac12dh5hBYay5tJgMbPkdvCcd0t)" vector-effect="non-scaling-stroke" stroke-width="49.928" stroke="rgb(23,23,23)" stroke-linejoin="round" stroke-linecap="round" stroke-miterlimit="4"/><path d=" M 4100.603 1116.809 C 4103.729 1117.955 4167.144 1161.594 4179.79 1171.302 C 4205.827 1191.288 4237.881 1220.489 4245.908 1231.533 C 4251.882 1239.751 4256.793 1254.281 4258.394 1268.479 C 4260.302 1285.387 4260.233 1424.395 4258.263 1532.047 C 4256.591 1623.377 4256.811 1620.874 4248.171 1646.931 C 4245.495 1655 4243.542 1661.829 4243.832 1662.105 C 4244.121 1662.381 4246.36 1661.148 4248.808 1659.364 C 4254.567 1655.168 4260.973 1645.847 4264.797 1636.099 C 4271.183 1619.818 4271.578 1614.299 4273.016 1521.344 C 4274.313 1437.522 4275.245 1399.817 4278.494 1299.54 L 4280.016 1252.562 L 4283.657 1245.589 C 4290.07 1233.305 4301.377 1223.488 4364.901 1175.051 C 4398.636 1149.327 4426.54 1128.281 4426.907 1128.281 C 4428.16 1128.281 4425.876 1155.034 4424.478 1156.732 C 4423.711 1157.662 4406.65 1170.158 4386.563 1184.501 C 4343.302 1215.39 4331.591 1224.613 4317.589 1238.822 C 4303.723 1252.893 4300.309 1257.83 4298.374 1266.618 C 4294.642 1283.553 4293.771 1329.598 4295.232 1432.544 C 4296.925 1551.893 4296.025 1591.897 4291.224 1610.541 C 4287.391 1625.429 4280.745 1643.711 4275.013 1655.136 C 4272.594 1659.958 4270.832 1664.112 4271.099 1664.367 C 4272.261 1665.476 4279.206 1660.82 4284.592 1655.319 C 4301.487 1638.065 4312.012 1612.369 4315.355 1580.214 C 4316.694 1567.331 4317.312 1493.413 4316.484 1445.229 C 4316.225 1430.184 4316.026 1400.214 4316.042 1378.628 C 4316.067 1343.372 4316.351 1337.891 4318.831 1324.729 C 4322.116 1307.295 4328.666 1287.802 4335.093 1276.332 C 4338.947 1269.454 4340.707 1267.571 4345.311 1265.395 C 4358.555 1259.138 4394.615 1258.48 4423.395 1263.972 L 4429.931 1265.219 L 4429.931 1274.649 C 4429.931 1279.835 4429.791 1284.164 4429.62 1284.268 C 4429.45 1284.372 4415.583 1284.795 4398.806 1285.208 C 4365.416 1286.031 4363.342 1286.428 4354.765 1293.621 C 4348.512 1298.865 4346.935 1302.167 4345.371 1313.284 C 4342.058 1336.832 4341.515 1354.869 4341.536 1440.653 C 4341.549 1493.592 4341.018 1537.322 4340.259 1545.906 C 4336.697 1586.166 4328.278 1618.384 4313.991 1646.434 C 4307.064 1660.034 4305.912 1661.55 4295.128 1671.249 C 4274.839 1689.498 4247.725 1707.169 4224.504 1717.276 L 4213.921 1721.882 L 4221.508 1721.452 C 4238.427 1720.492 4279.674 1696.69 4328.981 1659.436 C 4338.168 1652.494 4346.12 1646.815 4346.652 1646.815 C 4348.443 1646.815 4351.496 1652.075 4351.496 1655.162 C 4351.496 1660.594 4341.596 1674.604 4333.258 1680.97 C 4290.715 1713.456 4256.066 1733.751 4226.994 1743.211 C 4220.489 1745.327 4213.778 1748.321 4212.08 1749.863 L 4208.994 1752.667 L 4212.76 1756.264 L 4216.526 1759.862 L 4227.674 1756.785 C 4252.569 1749.914 4267.963 1742.419 4316.523 1713.527 C 4353.575 1691.482 4353.986 1691.344 4353.986 1700.974 C 4353.986 1705.143 4352.845 1707.683 4347.772 1714.803 C 4344.355 1719.6 4340.854 1724.374 4339.992 1725.412 C 4337.464 1728.452 4295.181 1752.272 4277.643 1760.536 C 4268.78 1764.712 4255.019 1770.047 4247.062 1772.393 C 4225.973 1778.611 4225.95 1778.632 4232.171 1785.4 C 4236.151 1789.731 4236.367 1789.804 4243.129 1789.112 C 4258.902 1787.497 4287.209 1778.839 4310.281 1768.572 C 4316.715 1765.709 4322.728 1763.366 4323.645 1763.366 C 4324.561 1763.366 4327.126 1764.916 4329.346 1766.81 C 4333.23 1770.125 4333.312 1770.38 4331.544 1773.648 C 4328.553 1779.178 4317.701 1788.661 4309.738 1792.703 C 4305.657 1794.775 4291.533 1799.535 4278.351 1803.281 C 4265.169 1807.027 4254.385 1810.52 4254.385 1811.043 C 4254.385 1811.565 4256.71 1813.763 4259.553 1815.926 C 4272.67 1825.906 4274.496 1829.525 4268.933 1834.517 C 4265.336 1837.745 4260.632 1837.8 4251.272 1834.724 C 4241.601 1831.546 4238.922 1831.669 4237.154 1835.375 C 4236.36 1837.041 4235.709 1839.181 4235.709 1840.132 C 4235.709 1842.469 4232.474 1842.305 4224.072 1839.544 C 4199.218 1831.375 4177.289 1813.761 4157.366 1785.963 C 4138.44 1759.556 4126.61 1725.295 4125.2 1692.802 C 4124.5 1676.685 4126.458 1667.308 4132.196 1659.303 C 4136.605 1653.152 4140.473 1652.931 4144.474 1658.603 C 4148.845 1664.799 4150.887 1672.988 4152.324 1690.086 C 4156.786 1743.183 4176.985 1783.364 4213.876 1812.531 C 4219.666 1817.109 4219.951 1817.212 4217.683 1813.911 C 4192.805 1777.692 4174.641 1738.228 4169.087 1708.329 C 4167.421 1699.359 4167.072 1692.698 4167.562 1679.191 C 4168.234 1660.638 4170.566 1649.562 4176.502 1636.742 C 4179.784 1629.653 4181.485 1628.748 4190.556 1629.268 L 4195.826 1629.57 L 4196.453 1532.048 C 4196.799 1478.41 4197.08 1421.971 4197.077 1406.626 C 4197.072 1371.14 4194.682 1336.629 4190.197 1307.27 C 4188.081 1293.413 4186.192 1290.987 4173.908 1286.353 C 4165.633 1283.232 4149.603 1282.62 4126.506 1284.543 C 4112.124 1285.741 4103.656 1284.283 4100.572 1280.078 C 4099.449 1278.546 4098.758 1274.748 4098.758 1270.108 C 4098.758 1261.2 4098.753 1261.203 4115.629 1259.226 C 4140.349 1256.33 4167.219 1258.117 4185.278 1263.858 C 4192.519 1266.16 4193.921 1267.145 4198.337 1273.037 C 4207.647 1285.456 4213.867 1306.202 4216.976 1335.205 C 4217.738 1342.312 4218.287 1371.991 4218.253 1404.184 C 4218.221 1435.262 4218.559 1490.927 4219.006 1527.885 C 4219.527 1570.911 4219.316 1607.021 4218.422 1628.277 C 4217.653 1646.534 4217.265 1661.703 4217.56 1661.985 C 4218.799 1663.169 4225.792 1649.264 4228.14 1640.948 C 4232.763 1624.574 4233.254 1617.069 4234.411 1545.13 C 4235.042 1505.883 4236.215 1442.196 4237.018 1403.603 C 4239.237 1296.993 4239.203 1287.268 4236.576 1278.132 C 4231.933 1261.99 4224.821 1247.872 4215.307 1235.912 C 4205.694 1223.829 4189.315 1209.896 4145.757 1176.751 L 4098.758 1140.986 L 4098.758 1128.56 C 4098.758 1118.071 4099.046 1116.239 4100.602 1116.809 L 4100.603 1116.809 L 4100.603 1116.809 L 4100.603 1116.809 L 4100.603 1116.809 L 4100.603 1116.809 Z  M 3690.299 1863.279 C 3706.713 1840.033 3733.25 1827.816 3772.255 1825.547 C 3801.321 1823.856 3823.225 1826.631 3875.058 1838.574 C 3921.349 1849.239 3930.613 1850.665 3958.039 1851.345 L 3981.881 1851.936 L 3988.23 1848.635 C 3991.722 1846.819 3994.543 1845.018 3994.498 1844.631 C 3994.36 1843.433 3976.301 1828.891 3963.978 1820.057 C 3937.107 1800.791 3910.602 1789.857 3885.946 1787.866 L 3876.405 1787.096 L 3875.054 1780.879 C 3872.333 1768.356 3872.422 1768.056 3879.415 1766.29 C 3888.761 1763.931 3912.104 1765.045 3922.368 1768.341 C 3936.289 1772.811 3955.787 1782.844 3978.424 1797.185 C 4003.553 1813.106 4023.399 1823.485 4036.018 1827.307 C 4046.346 1830.435 4046.585 1830.811 4047.688 1845.652 L 4048.453 1855.952 L 4038.635 1859.634 C 4015.252 1868.405 3998.809 1871.633 3972.169 1872.683 C 3941.734 1873.883 3914.564 1870.816 3848.29 1858.701 C 3790.849 1848.2 3792.162 1848.328 3774.297 1851.45 C 3743.444 1856.84 3725.572 1864.253 3709.895 1878.16 C 3706.117 1881.511 3705.648 1881.615 3698.067 1880.778 C 3693.725 1880.299 3688.913 1879.452 3687.372 1878.895 C 3682.964 1877.301 3683.892 1872.353 3690.299 1863.279 L 3690.299 1863.279 L 3690.299 1863.279 L 3690.299 1863.279 L 3690.299 1863.279 L 3690.299 1863.279 Z  M 3813.726 1756.665 L 3814.21 1751.464 L 3819.2 1752.104 C 3826.856 1753.085 3833.221 1757.784 3837.069 1765.298 C 3840.054 1771.126 3840.528 1773.834 3841.502 1790.631 C 3842.102 1800.975 3842.614 1811.445 3842.64 1813.898 L 3842.687 1818.358 L 3830.883 1818.358 C 3816.931 1818.358 3818.865 1821.77 3815.334 1790.928 C 3812.851 1769.24 3812.752 1767.126 3813.726 1756.665 L 3813.726 1756.665 L 3813.726 1756.665 L 3813.726 1756.665 L 3813.726 1756.665 Z  M 3829.668 1864.027 C 3833.771 1863.043 3841.928 1864.305 3846.696 1866.66 C 3852.403 1869.479 3860.937 1877.448 3868.839 1887.337 C 3876.983 1897.53 3886.485 1906.374 3892.462 1909.327 C 3905.333 1915.685 3947.902 1919.991 3970.028 1917.174 C 4000.167 1913.337 4033.72 1898.438 4055.973 1879.01 C 4059.717 1875.741 4063.334 1873.066 4064.009 1873.066 C 4064.685 1873.066 4070.769 1878.774 4077.53 1885.75 C 4086.196 1894.692 4089.272 1898.601 4087.955 1899.001 C 4082.772 1900.575 4044.013 1920.423 4037.415 1924.881 C 4023.14 1934.527 4012.965 1947.33 4009.582 1959.905 C 4008.793 1962.837 4007.336 1967.254 4006.344 1969.72 C 4003.732 1976.212 4004.116 1985.125 4007.652 2000.09 C 4012.943 2022.478 4011.439 2029.605 4000.343 2034.736 C 3991.142 2038.991 3989.518 2038.138 3985.605 2026.995 C 3978.743 2007.456 3978.447 1981.711 3984.787 1955.907 C 3986.74 1947.958 3987.021 1945.053 3985.935 1944.014 C 3984.304 1942.454 3973.573 1942.37 3955.983 1943.779 C 3946.116 1944.569 3941.819 1944.298 3930.053 1942.143 C 3894.289 1935.591 3868.114 1922.79 3847.547 1901.791 C 3839.434 1893.508 3837.294 1890.496 3835.653 1885.054 C 3834.552 1881.404 3832.04 1875.351 3830.071 1871.603 L 3826.492 1864.788 L 3829.668 1864.027 L 3829.668 1864.027 L 3829.668 1864.027 L 3829.668 1864.027 Z  M 4049.354 1796.67 C 4049.918 1794.881 4051.597 1791.536 4053.084 1789.237 C 4055.303 1785.808 4056.534 1785.058 4059.944 1785.058 L 4064.102 1785.058 L 4064.924 1793.086 C 4066.98 1813.14 4073.912 1829.333 4087.271 1845.282 C 4101.522 1862.297 4122.064 1877.034 4164.954 1901.014 C 4178.758 1908.732 4186.24 1913.601 4186.268 1914.883 C 4186.32 1917.287 4179.773 1922.748 4175.654 1923.735 C 4169.016 1925.327 4137.052 1916.188 4118.747 1907.466 C 4083.389 1890.619 4059.328 1862.338 4050.522 1827.278 C 4048.072 1817.523 4047.5 1802.551 4049.354 1796.67 L 4049.354 1796.67 L 4049.354 1796.67 Z  M 4087.215 1746.406 C 4089.22 1738.657 4091.85 1733.998 4097.381 1728.395 L 4101.888 1723.83 L 4104.248 1726.614 C 4107.901 1730.923 4110.348 1740.232 4112.263 1757.109 C 4113.228 1765.613 4114.837 1774.979 4115.837 1777.922 C 4126.834 1810.271 4140.368 1830.442 4168.621 1856.589 C 4182.446 1869.385 4216.643 1895.723 4221.964 1897.673 C 4223.042 1898.069 4223.662 1900.209 4223.662 1903.543 C 4223.662 1909.678 4224.402 1909.668 4205.65 1903.791 C 4163.307 1890.521 4128.264 1863.138 4103.556 1824.017 C 4098 1815.22 4097.467 1813.554 4091.603 1786.679 C 4085.005 1756.439 4084.891 1755.392 4087.215 1746.406 L 4087.215 1746.406 Z " fill-rule="evenodd" fill="rgb(0,195,0)"/></g></g></svg>