<?xml version="1.0" encoding="UTF-8"?>
<svg version="1.1" viewBox="0 0 612 290" xmlns="http://www.w3.org/2000/svg">
  <g fill="#000000">
    <path d="m504 9.52-47.9 12.8 1.63 3.88 1.32 4.38 1.17 4.87 1.51 4.05 0.834 4.21 0.556 5.36 0.471 3.43 0.766 4.54 0.0342 3.39-0.626 2.69-1.1 0.87-0.783 0.367-0.747-0.541-0.401-0.938-0.885-1.67-2.56-3.48-5.18-6.02-3.08-3.19-3.41-2.78-3.52-2.63-3.02-1.86-2.94-1.58-4.31-2.25-5.5-2.25-3.36-1.48-4.02-1.15-4.73-1.1-5.55-1.32-4.87-0.469-3.97 0.157-6.72 0.921-11.6 3.25-5.51 2.66-4.82 2.47-4.82 3.08-4.66 3.62-3.86 3.85-3.58 4.37-2.73 4.16-3.76 5.9-3.13 8.25-1.39 5.86-0.8 6.44-0.106 6.26 1.31 5.43-0.227 0.8-0.764-0.087-0.766-0.698-2.42-2.9-2.92-4.26-2.96-4.4-2.12-4.02-1.76-3.83-1.13-2.52-1.41-3.62-3.29-11.7-25.1 6.89-0.0154 0.0171 3.16 10.7 2.25 6.68 3.58 8.37 2.75 5.34 3.37 5.93 3.57 5.57 4.19 5.69 4.31 4.49 3.5 3.65 6.05 5.95 7.86 5.58 4.71 3.2 4.59 2.17 5.39 3.01 4.52 1.9 3.19 1.38 4.33 1.2 2.21 1.04 2.71 0.747 2.59 0.802 3.1 1.1 0.312 1.69 0.454 1.67 1.65 1.78 1.41 1.39 1.86 0.855 1.43 0.348 2.61 0.331 0.991 0.331 1.9-0.645 0.993-0.713 0.467-1.03 1.46-0.087 0.959 0.783 2.02 0.348 2.19 0.435 1.36 0.104 1.58-0.73 0.539-0.732 1.2-1.06 1.55-1.46 0.798 0.244 0.819 0.815 1.11 0.297 3.39-0.626 2.42-0.348 1.7-0.312 2.07-0.558 1.48-1.13 0.645-0.921 0.834 0.365 0.974 0.331 2.96-0.087 3.18-0.855 2.52-0.539 2.38-1.08 1.06-1.03 1.1-1.48 0.677-0.174 1.03 0.471 1.43 0.346 3.53-0.643 2.56-0.991 1.27-0.783 1.44-1.27-0.017-1.18h0.73l3.24 1.06 5.53-1.48 0.921-0.991 1.11-2.52 0.244-1.84-0.244-2.02 0.853-0.677 1.34-1.1 3.38-1.79 4.24-3.51 4.66-4.21 4.11-3.48 3.03-3.64 3.08-3.48 2.47-3.48 2.57-4.24 2.44-3.64 1.91-3.91 2.52-5.57 1.7-3.57 1.5-4.42 1.9-5.1 1.91-5.55 1.39-6.46 1.17-6.7 1.18-6.68 0.783-9.26-0.0188-6.68-0.8-10.2-1.22-8.42-2.66-9.97zm-64.5 49.4 1.86 0.817 2.29 0.87 2.65 1.52 1.58 1.51 2.18 1.48 1.74 2.07 0.609 0.575 0.974 3.15 0.766 3.36 0.45 2.25 0.159 2.78-1.08 2.07-2.98 3.31-1.2 1.06-2.07 1.15-3.84 2.23-1.98 2-1.91 1.7-1.29 1.83-1.62 1.18-1.97 0.974-1.62 1.17v0.017l-1.27 0.783-2.49 0.66-1.67-0.155-2.04-1.53-1.2-1.15-1.25-1.9-1.52-1.81-1.36-1.72-1.43-1.98-1.74-2.05-0.921-1.24-1.32-2.18-0.976-2.56-0.887-1.1-0.766-2.32v-1.63l0.662-1.95 0.556-1.79 1.25-2.56 0.488-1.46 1.69-1.48 1.11-1.36 2.04-1.27 1.51-1.01 1.51-0.993 1.97-0.974 2.21-0.592 3.5-0.783 2.84-0.469 3.15-0.399 2.64-0.106zm20.3 9.69 0.974 0.331 0.993 0.923 0.087 1.46-0.679 0.783-0.295 1.11 0.329 1.25 0.0358 1.76 0.624 2.37 0.891 2.73 0.902 1.69 1.08 2.36 0.959 1.38 0.59 2.23 0.73 1.58 1.06 1.77 0.592 2.23 0.401 2.56 0.276 2.16-0.225 3.03-0.0342 2.66-0.121 2.26-1.25 1.97-0.677 1.38-0.783 0.957-1.6 0.138-0.974-0.331v-1.63l0.781-0.957 0.923-0.991 1.03-1.76 0.331-2.61-0.07-1.91-0.66-2.49-0.887-3.32-0.679-3.08-1.04-2.25-0.766-1.72-0.851-1.55-0.698-2.04-1.34-2.77-0.957-5.81-0.208-1.88v-1.63l0.087-1.36 0.556-1.77 0.573-1.2zm-73.7 4.33 1.22 0.121 1.25 0.261 1.44 0.938 3.06 2.59 3.19 3.01 1.25 2.47 0.643 2.37 0.747 6.16 0.28 3.79 0.851 4.82-0.138 2.85 0.191 2.31-0.28 2.3-1.42 1.88-1.44 1.27-1.24 0.643-1.2 0.747-1.84 0.348-1.39-0.225-3.5 0.208-2.66-0.486-2.82-0.575-2.58-0.802-2.54 0.541-2.46 0.208-1.13-0.295-1.25-0.261-1.97 0.384-3.18-0.785-2.61-0.921-2.14-1.36-1.17-1.01-1.41-4.68-1.67-6.21v-0.0358l-0.0342-2.35 0.817-3.04 1.58-1.31 2.07-2.19 4.11-2.44 2.75-1.91 1.74-1.22 1.22-0.573 1.34-1.5 1.63-1.11 2.28-0.906 3.45-1.53 1.76-1.2 1.34-0.524 1.86-0.781zm21.3 4.75 1.06 0.609 0.329 1.25 1.64 4.45 0.904 2.28 1.04 1.63 0.713 1.6 1.29 2.02 1.38 2.9 1.57 4.18 1.01 2.7 1.32 1.57 1.29 4.26 0.331 2.87-0.0188 1.04 0.0376 2.36-0.123 1.81-0.278 1.7 0.087 1.46 0.07 1.9 0.121 1.01-0.0512 0.904-0.227 0.8-1.31 0.645-0.783-0.679-0.503-1.36-0.403-0.923-0.469-0.626-0.904-0.106v0.07l-0.991 0.713-0.0512 0.904 0.641 1.3 0.785 0.698 0.121 1.01-0.227 0.8-0.121 1.22-0.626 0.45h-0.73l-0.732-0.537-0.573-1.03-0.853-0.955-0.575-1.03-1.06-1.2-0.696-0.401-0.681-0.851-0.817-1.41-0.798-1.29-0.469-1.79-0.681-0.87-0.851-0.94-0.575-1.63-0.887-1.1-0.486-1.79 0.191-0.94 0.0512-0.904-0.435-1.67-0.312-1.69-0.331-1.25 0.0358-1.5-0.0528-1.91-0.174-1.72 0.0528-1.49 0.138-1.67-0.261-1.57-0.486-1.79-1.43-6.44 0.104-1.22 0.471-1.03 0.486-0.418 0.87 0.503 0.938 3.46 0.628 0.713 0.293 1.11 2.19 7.57 0.486 0.766 0.991 0.921 0.645 0.713 0.713-0.628-0.452-1.65-0.923-4.05-0.747-2.77-0.575-3.25-0.104-1.46-0.923-4.05-0.242-1.43-0.123-1.58 1.1-0.297zm-60.4 24.6 2.35 1.58 1.34 1.13 1.08 1.79 1.12 1.93 0.989 1.51 1.18 2.19 0.399 1.53 3.46 13.4 0.938 1.83 0.974 1.97 0.923 1.83 1.06 1.2 1.13 0.887 0.887 1.1 0.418 1.51-0.454 0.556-1.43-0.365-1.36-1.7-1.83-1.29-1.34-1.72-2.11-3.43-1.72-4.73-2.21-7.13-0.974-4.17-1.74-4.28-1.1-1.34-1.06-1.2-1.17-1.62-0.853-0.957-0.261-0.957 1.34-1.1zm107 26.3 1.69 0.728 0.853 1.55 1.95 6.14 0.138 1.6-0.921 0.974-1.76 0.626-2.09 0.556-2.63 0.104-1.84-1.29-1.48-5.51 0.261-1.25 0.887-1.13 1.95-1.56 1.62-0.577 1.37-0.954zm-13.3 3.27h1.5l1.39 0.225 1.31 3.2 1.84 6.33-0.155 1.08-1.13 0.749v0.0528l-3.57 1.1-1.25-0.261-1.34-0.539-0.904-0.645-2.73-9.04 0.365-0.853 1.22-0.469 1.48-0.541 1.98-0.382zm-12.9 1.53 2.4 0.106 1.03 1.06 0.889 1.1 1.08 1.79 0.887 1.69 1.06 5.05-0.401 1.31-0.157 1.08-1.41 0.817-2.17 0.732-2.14 0.87-1.78 0.104-2 0.227-1.43-0.367-0.418-2.11-0.21-1.88-1.88-8.09v-0.0529l0.401-1.31 1.65-1.03 2.25-0.452 2.35-0.645zm-10.9 3.05 0.957 1.38v0.0342l2.71 10.1-0.123 1.22-0.348 1.43-2.68 0.573-2.07 0.558-1.36-0.106-2.42 0.348-1.36-0.087-1.06-0.626-0.556-2.07-0.0512-1.32-0.0546-1.32 0.0716-1.36-0.333-1.83 0.524-1.91 1.36-1.57 1.44-1.27 1.57-1.31 1.72-0.747 2.06-0.104zm-15.4 6.68 1.77 0.556 1.31 0.993 0.713 0.991 0.488 1.79 0.208 1.88-0.0887 1.95-0.66 1.97-1.15 1.18-2.26 0.471-2.37 0.087-2.19-1.04-0.662-1.31v-0.0512l-1.32-4.98 0.208-1.39 1.41-1.43 1.67-1.48 2.92-0.191zm-11 3.1 1.71 0.87v0.0188l1.24 5.15 0.208 1.29-0.121 1.22-0.539 0.732-1.67 0.452-2.19 0.14-1.63-0.611-1.18-0.556-1.13-0.887-1.06-1.2-0.662-1.9 0.07-1.95 0.715-1.24 2.31-0.766 2.56-0.401 1.39-0.365z"/>
    <path d="m248 229-2.92 12.5-12.7 1.6 11 6.64-2.41 12.6 9.7-8.39 11.2 6.19-4.98-11.8 9.35-8.77-12.8 1.08z"/>
    <path d="m187 225-2.92 12.5-12.7 1.6 11 6.64-2.41 12.6 9.71-8.39 11.2 6.19-4.98-11.8 9.36-8.77-12.8 1.08z"/>
    <path d="m159 194-2.92 12.5-12.7 1.6 11 6.64-2.41 12.6 9.71-8.39 11.2 6.19-4.98-11.8 9.36-8.77-12.8 1.08z"/>
    <path d="m110 193-2.92 12.5-12.7 1.6 11 6.64-2.41 12.6 9.7-8.39 11.2 6.19-4.98-11.8 9.36-8.78-12.8 1.08z"/>
    <path d="m285 190-2.92 12.5-12.7 1.6 11 6.64-2.41 12.6 9.7-8.39 11.2 6.19-4.98-11.8 9.35-8.78-12.8 1.08z"/>
    <path d="m227 184-2.92 12.5-12.7 1.6 11 6.64-2.41 12.6 9.71-8.39 11.2 6.19-4.98-11.8 9.36-8.78-12.8 1.08z"/>
    <path d="m186 163-2.92 12.5-12.7 1.6 11 6.64-2.41 12.6 9.7-8.39 11.2 6.19-4.98-11.8 9.35-8.78-12.8 1.08z"/>
    <path d="m360 157-1.73 0.16-2.15 0.286-4.43 1.18-1.41 0.82-1.61 1.17-1.34 1.1-1.69 0.894-1.5 1.59-1.5 1.59-1.31 2.87-0.608 1.05-0.535 1.33-0.284 1.71-0.145 1.67 0.419 2.11 0.482 1.8 0.87 2.14 1.07 1.79 2.22 1.63h1.18l1.28-0.188 1.61-1.17 0.681-0.776 0.932-0.391 0.176 0.0981 0.738 0.542-0.192 0.945-0.543 0.731-1.24 0.923-1.1 0.882-1.48 1.14-1.82 3.16-0.672 1.37-0.708 1.23-0.146 1.67-0.284 1.71-0.117 1.22 0.343 1.84 1.01 2.1 0.482 1.8 1.35 1.72 1.83 1.29 1.2 1.16 1.97 1.25 1.44 0.954 1.78 0.561 2.13 0.766 3.07 0.954 2.64-0.107 2.08 0.0981 2.11-0.419 2.21-0.589 1.83-0.933 2.93-3.45 0.848-1.26 0.735-1.68 0.497-1.47 0.486-2.06-3e-3 -2.22-0.141-2.19-0.658-1.9-1.65-1.19-0.923-1.24-1.13-0.88-0.51-1.35 0.507-0.873h0.59l0.738 0.542 1.34 1.12 0.637 0.722 1.05 0.614-3e-3 -0.108 19.1-5.12 8.36-23.6-31.3 8.24-0.526-0.303 0.0162-1.04 0.305-0.526-0.482-1.8-0.231-1.42-0.334-1.24-1.35-1.71-0.75-1.13-0.987-0.923-1.09-0.74-0.951-0.784-1.33-0.535-1.12-0.293-1.57-0.322z"/>
    <path d="m408 178-0.0249-8e-3 -2e-3 0.082z"/>
    <path d="m435 153-20.2 5.55-6.91 19.4 0.778 0.224 0.766 0.0981 1-0.124 0.489 0.168 0.526 0.303-0.127 0.633-0.832 0.221-3.04 0.829-1.38 0.375-1.49 0.542-1.35 0.508-1.36 1.55-1.44 1.27-0.784 0.955-0.949 1.44-0.709 1.23-0.634 1.5-0.321 1.57 0.482 1.8 0.306 1.7 0.445 1.66 0.813 0.819 0.573 1.03 0.989 0.923 0.924 1.23 1.12 0.294 1.02 0.472 1.33 0.535 0.942 0.186 0.904 0.0981h1.04l1.11-0.302 1.07-0.428 0.857-0.668 1.61-1.17 1.34-1.1 0.294-1.12 0.719-0.633 0.784-0.954 0.368-0.847 0.0571-0.902-0.0117-0.589-0.296-1.11-0.334-1.24 0.406-0.703 0.866-0.0982 0.766 0.0982 0.325 0.65 0.861 3.77 1.23 0.713 1.29 0.391 1.5 0.0981 1.62-0.579 1.35-0.517 0.959-0.855 1.51-0.993 1.41-0.819 0.782-0.955 1.06-1.03 0.709-1.23 0.959-0.854 0.293-1.12 0.22-1.39 6e-3 -1.63-0.13-1.6-0.297-1.11-0.583-1.62-0.712-0.993-0.702-0.41-1.33-0.535-1.46 0.0981-1.9 0.65-0.186-0.694z"/>
    <path d="m312 152-2.92 12.5-12.7 1.6 11 6.64-2.41 12.6 9.71-8.39 11.2 6.18-4.98-11.8 9.36-8.78-12.8 1.08z"/>
    <path d="m86.6 150-2.92 12.5-12.7 1.6 11 6.64-2.41 12.6 9.7-8.39 11.2 6.19-4.98-11.8 9.36-8.78-12.8 1.08z"/>
    <path d="m263 147-2.92 12.5-12.7 1.6 11 6.64-2.41 12.6 9.71-8.39 11.2 6.19-4.98-11.8 9.36-8.77-12.8 1.08z"/>
    <path d="m438 152-0.0894-0.0791v0.104z"/>
    <path d="m460 146-22.4 6.29 17.4 15.5 0.81-1.4 1.76-0.623 0.877 0.498 0.223 0.829-0.82 0.81-1.2 1.06-1.19 1.65-1.05 1.62-0.385 1.88 0.179 2.32 0.482 1.8 0.759 1.72 0.886 1.1 1.16 1.02 1.33 0.535 1.75 1.01 1.49 0.0982 2.05-0.0982 1.67 0.144 1.66-0.447 1.97-0.382 1.51-1 1.17-0.615 2.13-1.46 0.959-0.855 1.47-1.14 0.359-1.43 0.533-1.33 0.331-0.974 1.03-0.57 0.665 0.275 0.297 1.11-0.331 0.973-0.939 2.03-0.193 0.943 0.952 0.784 1.05 0.615 1.39 0.223 1.15 0.437 0.905 0.0982 1.42-0.231 0.968-0.259 1.56-0.267 0.857-0.677 1.03-0.57 1.23-0.924 1.23-0.923 0.709-1.23 0.608-1.05 0.636-1.51-0.168-1.73-0.195-1.28-0.132-1.6-0.296-1.11-0.86-1.55-0.712-0.993-0.574-1.03-0.775-0.687-1.05-0.614-1.03-1.06-1.05-0.614-1.12-0.882-1.43-0.349-1.47-0.498-2.33-0.41-1.22-0.116-0.98-0.33-2.43 0.357z"/>
    <path d="m135 139-2.92 12.5-12.7 1.6 11 6.64-2.41 12.6 9.7-8.38 11.2 6.18-4.98-11.8 9.36-8.78-12.8 1.08z"/>
    <path d="m518 111-2.07 0.552-1.62 0.579-2.49 0.659-1.27 0.784-1.51 0.993-1.58 1.31-1.02 1.16-1.2 1.06-0.784 0.952-0.81 1.4-0.976 1.89-0.699 1.82-0.173 2.12-0.318 3.79 1.08 4.01-0.442 0.562-30.3 8.12 19.8 16.3 14.7-3.79 8e-3 0.0908-0.0571-1.32 0.0908-0.766 0.0176-1.04-0.122-1.01 0.268-0.658 1.33 0.533 0.259 0.974-0.0571 0.904 1.71 6.36 1.3 0.984 0.888 1.1 0.951 0.782 0.951 0.785 1.29 0.391 1.19 0.57 1.61 0.463 1.67 0.144 1.39 0.223 1.56-0.275 1.73-0.17 1.38-0.374 1.56-0.268 2.04-0.694 1.76-0.623 1.65-1.04 1.35-0.517 1.34-1.1 0.958-0.855 1.85-1.39 1.2-1.06 1.46-1.73 0.432-1.15 0.645-0.914 0.672-1.37 0.497-1.47 0.0162-1.04 0.221-1.39-0.353-2.43-0.482-1.8-0.908-2.28-0.999-1.51-1.34-1.12-1.06-1.2-2.35-1-0.904-0.0981-0.618 0.463-0.681 0.775-0.608 1.05-0.681 0.775-0.867 0.0982-0.122-1.01 0.0513-0.902 0.709-1.23 0.709-1.23 0.331-0.973 0.606-1.05 0.294-1.12 0.469-1.02 0.258-1.26 0.155-1.08 0.119-1.22-0.0571-1.32 0.497-1.47-0.233-1.42-0.444-1.66-0.334-1.25-0.51-1.34-1.03-1.06-0.888-1.1-1.03-1.06-0.813-0.819-1.02-0.473-2.81-1.62-1.19-0.57-1.78-0.561-2.12-0.17h-1.77z"/>
    <path d="m293 111-2.92 12.5-12.7 1.6 11 6.64-2.41 12.6 9.7-8.39 11.2 6.19-4.98-11.8 9.35-8.77-12.8 1.08z"/>
    <path d="m85.7 104-2.92 12.5-12.7 1.6 11 6.64-2.41 12.6 9.71-8.39 11.2 6.19-4.98-11.8 9.36-8.77-12.8 1.08z"/>
    <path d="m131 86.1-2.92 12.5-12.7 1.6 11 6.64-2.41 12.6 9.71-8.39 11.2 6.19-4.98-11.8 9.36-8.77-12.8 1.08z"/>
    <path d="m66.2 67.3-2.92 12.5-12.7 1.6 11 6.64-2.41 12.6 9.7-8.39 11.2 6.19-4.98-11.8 9.35-8.78-12.8 1.08z"/>
    <path d="m24.4 41.6-2.92 12.5-12.7 1.6 11 6.64-2.41 12.6 9.71-8.39 11.2 6.19-4.98-11.8 9.36-8.77-12.8 1.08z"/>
    <path d="m114 40.4-2.92 12.5-12.7 1.6 11 6.64-2.41 12.6 9.7-8.39 11.2 6.18-4.98-11.8 9.35-8.78-12.8 1.08z"/>
    <path d="m62.4 20.3-2.92 12.5-12.7 1.6 11 6.64-2.41 12.6 9.71-8.39 11.2 6.19-4.98-11.8 9.36-8.77-12.8 1.08z"/>
  </g>
</svg>
