<?xml version="1.0" encoding="UTF-8" standalone="no"?><!-- Generator: Gravit.io --><svg xmlns="http://www.w3.org/2000/svg" xmlns:xlink="http://www.w3.org/1999/xlink" style="isolation:isolate" viewBox="0 0 612 272" width="612pt" height="272pt"><defs><clipPath id="_clipPath_45UiSwjUyy10rEN2xTslX9a3Qkl889sw"><rect width="612" height="272"/></clipPath></defs><g clip-path="url(#_clipPath_45UiSwjUyy10rEN2xTslX9a3Qkl889sw)"><path d=" M 504.489 9.518 L 456.611 22.34 L 458.246 26.22 L 459.568 30.604 L 460.734 35.475 L 462.248 39.529 L 463.083 43.739 L 463.639 49.097 L 464.109 52.525 L 464.875 57.065 L 464.909 60.458 L 464.283 63.154 L 463.187 64.024 L 462.404 64.39 L 461.656 63.85 L 461.256 62.911 L 460.369 61.241 L 457.811 57.761 L 455.01 54.508 L 452.627 51.742 L 449.548 48.558 L 446.138 45.774 L 442.623 43.147 L 439.596 41.286 L 436.656 39.703 L 432.341 37.458 L 426.844 35.214 L 423.486 33.735 L 419.467 32.587 L 414.735 31.491 L 409.185 30.169 L 404.314 29.699 L 400.348 29.856 L 393.632 30.778 L 382.045 34.031 L 376.531 36.693 L 371.711 39.163 L 366.892 42.243 L 362.23 45.861 L 358.368 49.706 L 354.784 54.073 L 352.052 58.231 L 348.294 64.129 L 345.163 72.375 L 343.771 78.238 L 342.971 84.675 L 342.866 90.938 L 344.171 96.366 L 343.945 97.166 L 343.18 97.079 L 342.414 96.383 L 339.996 93.478 L 337.073 89.215 L 334.116 84.814 L 331.993 80.795 L 330.236 76.968 L 329.105 74.445 L 327.696 70.826 L 324.408 59.1 L 299.268 65.99 L 299.251 66.008 L 302.417 76.725 L 304.661 83.405 L 308.245 91.773 L 310.994 97.114 L 314.369 103.047 L 317.936 108.614 L 322.128 114.303 L 326.443 118.791 L 329.94 122.445 L 335.994 128.395 L 340.378 131.509 L 343.858 133.979 L 348.572 137.181 L 353.165 139.355 L 358.559 142.365 L 363.082 144.261 L 366.266 145.636 L 370.598 146.836 L 372.807 147.88 L 375.521 148.628 L 378.113 149.428 L 381.21 150.524 L 381.523 152.212 L 381.975 153.882 L 383.628 155.657 L 385.037 157.048 L 386.899 157.901 L 388.326 158.249 L 390.935 158.579 L 391.927 158.91 L 393.823 158.266 L 394.815 157.553 L 395.284 156.526 L 396.746 156.439 L 397.703 157.222 L 399.721 157.57 L 401.913 158.005 L 403.27 158.109 L 404.853 157.379 L 405.392 156.648 L 406.593 155.587 L 408.141 154.125 L 408.941 154.369 L 409.759 155.186 L 410.873 155.482 L 414.265 154.856 L 416.683 154.508 L 418.388 154.195 L 420.459 153.638 L 421.937 152.507 L 422.581 151.585 L 423.416 151.951 L 424.39 152.281 L 427.348 152.194 L 430.532 151.341 L 433.054 150.802 L 435.438 149.723 L 436.499 148.697 L 437.595 147.218 L 438.274 147.044 L 439.3 147.514 L 440.727 147.862 L 444.258 147.218 L 446.816 146.226 L 448.086 145.444 L 449.53 144.174 L 449.512 142.991 L 450.243 142.991 L 453.479 144.052 L 459.011 142.573 L 459.933 141.581 L 461.046 139.059 L 461.29 137.215 L 461.046 135.196 L 461.899 134.518 L 463.238 133.422 L 466.614 131.63 L 470.859 128.116 L 475.521 123.906 L 479.627 120.426 L 482.654 116.79 L 485.733 113.311 L 488.204 109.831 L 490.779 105.586 L 493.214 101.95 L 495.128 98.036 L 497.651 92.468 L 499.356 88.902 L 500.852 84.483 L 502.748 79.386 L 504.662 73.836 L 506.054 67.381 L 507.219 60.683 L 508.402 54.003 L 509.185 44.747 L 509.167 38.067 L 508.367 27.907 L 507.149 19.486 L 504.489 9.518 Z  M 440.031 58.962 L 441.893 59.779 L 444.189 60.649 L 446.834 62.163 L 448.417 63.676 L 450.591 65.155 L 452.331 67.226 L 452.94 67.8 L 453.914 70.949 L 454.68 74.306 L 455.132 76.551 L 455.289 79.334 L 454.21 81.404 L 451.235 84.71 L 450.035 85.771 L 447.964 86.919 L 444.12 89.146 L 442.136 91.147 L 440.223 92.852 L 438.935 94.679 L 437.317 95.862 L 435.351 96.836 L 433.733 98.002 L 433.733 98.019 L 432.463 98.802 L 429.975 99.463 L 428.305 99.307 L 426.27 97.776 L 425.069 96.628 L 423.817 94.731 L 422.303 92.922 L 420.946 91.2 L 419.52 89.216 L 417.78 87.163 L 416.858 85.928 L 415.536 83.753 L 414.561 81.196 L 413.674 80.1 L 412.909 77.786 L 412.909 76.151 L 413.57 74.202 L 414.126 72.41 L 415.379 69.853 L 415.866 68.392 L 417.554 66.913 L 418.667 65.556 L 420.703 64.286 L 422.216 63.277 L 423.73 62.285 L 425.696 61.311 L 427.905 60.719 L 431.402 59.936 L 434.238 59.467 L 437.387 59.067 L 440.031 58.962 Z  M 460.282 68.652 L 461.256 68.983 L 462.248 69.905 L 462.335 71.366 L 461.656 72.149 L 461.361 73.262 L 461.691 74.515 L 461.726 76.272 L 462.352 78.638 L 463.24 81.37 L 464.144 83.057 L 465.223 85.423 L 466.18 86.798 L 466.771 89.024 L 467.502 90.608 L 468.563 92.382 L 469.155 94.609 L 469.555 97.166 L 469.833 99.324 L 469.607 102.351 L 469.572 105.013 L 469.451 107.274 L 468.198 109.24 L 467.519 110.615 L 466.737 111.572 L 465.136 111.711 L 464.162 111.38 L 464.162 109.745 L 464.945 108.788 L 465.867 107.796 L 466.893 106.039 L 467.224 103.43 L 467.154 101.516 L 466.493 99.028 L 465.606 95.705 L 464.927 92.626 L 463.884 90.381 L 463.118 88.659 L 462.266 87.111 L 461.57 85.075 L 460.23 82.309 L 459.273 76.498 L 459.064 74.619 L 459.064 72.984 L 459.152 71.627 L 459.708 69.852 L 460.282 68.652 Z  M 386.551 72.984 L 387.769 73.106 L 389.022 73.367 L 390.466 74.306 L 393.528 76.898 L 396.712 79.908 L 397.964 82.379 L 398.608 84.745 L 399.356 90.903 L 399.634 94.696 L 400.487 99.515 L 400.348 102.368 L 400.539 104.682 L 400.26 106.979 L 398.834 108.858 L 397.39 110.128 L 396.155 110.771 L 394.954 111.519 L 393.11 111.867 L 391.718 111.641 L 388.221 111.85 L 385.56 111.363 L 382.741 110.789 L 380.166 109.988 L 377.626 110.528 L 375.173 110.737 L 374.043 110.441 L 372.79 110.18 L 370.824 110.563 L 367.64 109.78 L 365.031 108.858 L 362.891 107.501 L 361.725 106.492 L 360.316 101.812 L 358.646 95.601 L 358.646 95.566 L 358.611 93.217 L 359.429 90.173 L 361.012 88.868 L 363.082 86.676 L 367.188 84.24 L 369.937 82.327 L 371.677 81.109 L 372.894 80.535 L 374.234 79.039 L 375.869 77.925 L 378.148 77.02 L 381.593 75.489 L 383.35 74.289 L 384.69 73.767 L 386.551 72.984 Z  M 407.828 77.734 L 408.89 78.342 L 409.22 79.595 L 410.856 84.049 L 411.76 86.328 L 412.804 87.963 L 413.517 89.564 L 414.805 91.582 L 416.179 94.487 L 417.745 98.663 L 418.754 101.359 L 420.076 102.925 L 421.364 107.187 L 421.694 110.058 L 421.676 111.102 L 421.694 112.285 L 421.712 113.468 L 421.59 115.277 L 421.312 116.982 L 421.399 118.444 L 421.469 120.34 L 421.59 121.349 L 421.538 122.254 L 421.312 123.054 L 420.007 123.698 L 419.224 123.019 L 418.72 121.662 L 418.319 120.74 L 417.85 120.114 L 416.945 120.009 L 416.945 120.079 L 415.953 120.792 L 415.901 121.697 L 416.545 123.002 L 417.328 123.698 L 417.449 124.707 L 417.223 125.507 L 417.101 126.725 L 416.475 127.177 L 415.744 127.177 L 415.014 126.638 L 414.44 125.611 L 413.587 124.654 L 413.013 123.628 L 411.952 122.427 L 411.256 122.027 L 410.577 121.175 L 409.76 119.766 L 408.959 118.478 L 408.49 116.686 L 407.811 115.816 L 406.959 114.877 L 406.385 113.242 L 405.497 112.146 L 405.01 110.354 L 405.202 109.414 L 405.254 108.51 L 404.819 106.839 L 404.506 105.152 L 404.176 103.899 L 404.21 102.403 L 404.158 100.489 L 403.984 98.767 L 404.036 97.271 L 404.176 95.601 L 403.915 94.035 L 403.427 92.243 L 402.001 85.806 L 402.105 84.588 L 402.575 83.562 L 403.062 83.144 L 403.932 83.649 L 404.871 87.111 L 405.498 87.824 L 405.793 88.937 L 407.985 96.505 L 408.473 97.271 L 409.464 98.193 L 410.108 98.906 L 410.821 98.28 L 410.369 96.627 L 409.447 92.574 L 408.699 89.807 L 408.125 86.554 L 408.02 85.093 L 407.098 81.039 L 406.855 79.613 L 406.733 78.029 L 407.828 77.734 Z  M 347.407 102.316 L 349.756 103.899 L 351.095 105.03 L 352.174 106.822 L 353.288 108.753 L 354.279 110.267 L 355.462 112.459 L 355.862 113.99 L 359.324 127.438 L 360.264 129.265 L 361.238 131.231 L 362.16 133.057 L 363.221 134.258 L 364.352 135.145 L 365.24 136.241 L 365.657 137.755 L 365.205 138.311 L 363.778 137.946 L 362.421 136.241 L 360.594 134.954 L 359.255 133.231 L 357.15 129.804 L 355.427 125.072 L 353.218 117.939 L 352.244 113.764 L 350.504 109.484 L 349.408 108.144 L 348.347 106.944 L 347.181 105.326 L 346.329 104.369 L 346.068 103.412 L 347.407 102.316 Z  M 454.088 128.604 L 455.776 129.334 L 456.628 130.883 L 458.577 137.024 L 458.716 138.625 L 457.794 139.599 L 456.037 140.225 L 453.949 140.782 L 451.322 140.886 L 449.478 139.599 L 447.999 134.084 L 448.26 132.831 L 449.147 131.7 L 451.096 130.135 L 452.714 129.56 L 454.088 128.604 Z  M 440.744 131.874 L 442.241 131.874 L 443.632 132.1 L 444.937 135.302 L 446.781 141.634 L 446.625 142.713 L 445.494 143.461 L 445.494 143.514 L 441.927 144.61 L 440.675 144.349 L 439.335 143.809 L 438.431 143.165 L 435.699 134.119 L 436.065 133.266 L 437.282 132.797 L 438.761 132.257 L 440.744 131.874 Z  M 427.801 133.405 L 430.202 133.51 L 431.228 134.571 L 432.115 135.667 L 433.194 137.459 L 434.081 139.146 L 435.142 144.192 L 434.742 145.497 L 434.586 146.575 L 433.177 147.393 L 431.002 148.124 L 428.862 148.993 L 427.087 149.098 L 425.087 149.324 L 423.66 148.959 L 423.243 146.854 L 423.034 144.975 L 421.155 136.885 L 421.155 136.832 L 421.555 135.527 L 423.208 134.501 L 425.452 134.049 L 427.801 133.405 Z  M 416.91 136.45 L 417.867 137.824 L 417.867 137.859 L 420.581 147.949 L 420.459 149.167 L 420.111 150.594 L 417.432 151.168 L 415.362 151.725 L 414.005 151.62 L 411.586 151.968 L 410.229 151.881 L 409.168 151.255 L 408.611 149.184 L 408.559 147.862 L 408.506 146.54 L 408.576 145.183 L 408.245 143.356 L 408.767 141.443 L 410.124 139.877 L 411.568 138.607 L 413.134 137.302 L 414.856 136.554 L 416.91 136.45 Z  M 401.496 143.13 L 403.27 143.687 L 404.575 144.679 L 405.288 145.67 L 405.776 147.462 L 405.984 149.341 L 405.897 151.29 L 405.236 153.256 L 404.088 154.439 L 401.826 154.908 L 399.46 154.996 L 397.268 153.952 L 396.607 152.647 L 396.607 152.595 L 395.285 147.619 L 395.493 146.227 L 396.903 144.801 L 398.573 143.322 L 401.496 143.13 Z  M 390.466 146.227 L 392.171 147.097 L 392.171 147.115 L 393.406 152.265 L 393.615 153.552 L 393.493 154.77 L 392.954 155.5 L 391.284 155.953 L 389.091 156.092 L 387.456 155.483 L 386.273 154.926 L 385.142 154.039 L 384.081 152.839 L 383.42 150.942 L 383.489 148.994 L 384.203 147.759 L 386.517 146.993 L 389.074 146.593 L 390.466 146.227 Z " fill-rule="evenodd" fill="rgb(0,0,0)"/><path d=" M 506.276 155.094 L 491.574 158.886 L 471.772 142.542 L 502.072 134.423 L 502.514 133.861 L 501.439 129.85 L 501.757 126.057 L 501.93 123.934 L 502.629 122.117 L 503.605 120.224 L 504.415 118.82 L 505.198 117.867 L 506.397 116.804 L 507.419 115.641 L 508.995 114.328 L 510.507 113.335 L 511.78 112.551 L 514.27 111.892 L 515.894 111.313 L 517.969 110.761 L 519.501 110.939 L 521.272 110.939 L 523.394 111.108 L 525.176 111.669 L 526.367 112.239 L 527.77 113.05 L 529.174 113.86 L 530.189 114.333 L 531.002 115.152 L 532.027 116.212 L 532.915 117.309 L 533.94 118.369 L 534.45 119.715 L 534.784 120.961 L 535.228 122.621 L 535.46 124.042 L 534.964 125.509 L 535.021 126.828 L 534.902 128.047 L 534.747 129.126 L 534.489 130.381 L 534.02 131.397 L 533.726 132.514 L 533.119 133.567 L 532.788 134.54 L 532.079 135.768 L 531.37 136.996 L 531.319 137.899 L 531.441 138.905 L 532.308 138.807 L 532.989 138.032 L 533.597 136.979 L 534.279 136.204 L 534.897 135.741 L 535.801 135.839 L 538.146 136.843 L 539.208 138.041 L 540.547 139.165 L 541.546 140.676 L 542.453 142.955 L 542.935 144.753 L 543.288 147.179 L 543.068 148.572 L 543.051 149.615 L 542.555 151.083 L 541.883 152.449 L 541.238 153.363 L 540.806 154.516 L 539.341 156.243 L 538.143 157.306 L 536.29 158.693 L 535.331 159.548 L 533.995 160.647 L 532.648 161.164 L 530.998 162.2 L 529.236 162.823 L 527.198 163.518 L 525.639 163.785 L 524.255 164.159 L 522.521 164.329 L 520.962 164.605 L 519.569 164.382 L 517.899 164.239 L 516.293 163.776 L 515.102 163.206 L 513.809 162.814 L 512.858 162.03 L 511.907 161.247 L 511.02 160.15 L 509.718 159.166 L 508.012 152.803 L 508.069 151.9 L 507.81 150.926 L 506.481 150.392 L 506.214 151.051 L 506.335 152.057 L 506.318 153.1 L 506.226 153.866 L 506.283 155.186 L 506.276 155.094 Z " fill-rule="evenodd" fill="rgb(0,0,0)"/><path d=" M 437.47 152.325 L 459.948 146.007 L 476.322 158.97 L 478.748 158.613 L 479.727 158.943 L 480.945 159.059 L 483.28 159.469 L 484.747 159.967 L 486.178 160.315 L 487.304 161.197 L 488.357 161.811 L 489.382 162.871 L 490.435 163.486 L 491.211 164.172 L 491.784 165.205 L 492.496 166.198 L 493.356 167.747 L 493.653 168.854 L 493.784 170.45 L 493.979 171.732 L 494.147 173.467 L 493.512 174.972 L 492.904 176.024 L 492.195 177.252 L 490.96 178.175 L 489.725 179.099 L 488.692 179.669 L 487.835 180.346 L 486.276 180.613 L 485.307 180.871 L 483.887 181.103 L 482.983 181.005 L 481.829 180.569 L 480.435 180.346 L 479.383 179.731 L 478.431 178.947 L 478.624 178.004 L 479.093 176.99 L 479.563 175.973 L 479.894 175 L 479.597 173.893 L 478.932 173.617 L 477.9 174.187 L 477.569 175.161 L 477.035 176.491 L 476.677 177.92 L 475.202 179.058 L 474.243 179.913 L 472.114 181.373 L 470.942 181.988 L 469.43 182.991 L 467.456 183.374 L 465.796 183.82 L 464.126 183.677 L 462.078 183.775 L 460.583 183.677 L 458.829 182.665 L 457.5 182.13 L 456.336 181.108 L 455.449 180.011 L 454.69 178.287 L 454.208 176.488 L 454.03 174.162 L 454.415 172.28 L 455.465 170.664 L 456.653 169.011 L 457.851 167.949 L 458.672 167.138 L 458.449 166.31 L 457.572 165.811 L 455.81 166.434 L 455 167.839 L 437.469 152.22 L 437.47 152.325 Z " fill-rule="evenodd" fill="rgb(0,0,0)"/><path d=" M 407.782 178.224 L 414.715 158.719 L 434.878 153.169 L 426.226 177.879 L 426.411 178.573 L 428.311 177.923 L 429.769 177.825 L 431.098 178.36 L 431.8 178.769 L 432.511 179.763 L 433.094 181.385 L 433.391 182.493 L 433.522 184.089 L 433.516 185.722 L 433.296 187.116 L 433.003 188.232 L 432.044 189.087 L 431.335 190.314 L 430.275 191.34 L 429.492 192.294 L 428.082 193.114 L 426.57 194.107 L 425.611 194.962 L 424.264 195.479 L 422.641 196.058 L 421.146 195.96 L 419.854 195.568 L 418.626 194.855 L 417.764 191.083 L 417.44 190.433 L 416.674 190.335 L 415.807 190.433 L 415.402 191.136 L 415.736 192.381 L 416.032 193.489 L 416.043 194.077 L 415.986 194.98 L 415.618 195.826 L 414.835 196.78 L 414.116 197.413 L 413.822 198.529 L 412.486 199.629 L 410.872 200.802 L 410.015 201.47 L 408.945 201.898 L 407.838 202.2 L 406.796 202.2 L 405.892 202.102 L 404.95 201.915 L 403.621 201.381 L 402.606 200.909 L 401.489 200.615 L 400.565 199.38 L 399.576 198.457 L 399.003 197.425 L 398.19 196.606 L 397.745 194.945 L 397.438 193.248 L 396.956 191.45 L 397.277 189.881 L 397.912 188.377 L 398.621 187.149 L 399.57 185.708 L 400.353 184.754 L 401.791 183.48 L 403.154 181.928 L 404.501 181.42 L 405.986 180.877 L 407.37 180.503 L 409.03 180.048 L 410.413 179.674 L 411.244 179.452 L 411.372 178.819 L 410.846 178.516 L 410.357 178.347 L 409.352 178.472 L 408.586 178.374 L 407.783 178.142 L 407.782 178.224 Z " fill-rule="evenodd" fill="rgb(0,0,0)"/><path d=" M 375.891 190.922 L 394.984 185.804 L 403.343 162.211 L 372.038 170.452 L 371.512 170.149 L 371.529 169.106 L 371.833 168.58 L 371.351 166.782 L 371.119 165.361 L 370.785 164.115 L 369.436 162.401 L 368.687 161.268 L 367.699 160.344 L 366.609 159.605 L 365.658 158.821 L 364.328 158.287 L 363.212 157.993 L 361.643 157.672 L 359.935 157.378 L 358.201 157.538 L 356.052 157.823 L 353.977 158.376 L 351.624 159.008 L 350.214 159.828 L 348.6 161.002 L 347.264 162.1 L 345.576 162.993 L 344.074 164.582 L 342.572 166.171 L 341.266 169.041 L 340.658 170.094 L 340.124 171.423 L 339.84 173.131 L 339.695 174.801 L 340.113 176.913 L 340.595 178.712 L 341.465 180.852 L 342.537 182.641 L 344.754 184.271 L 345.935 184.271 L 347.217 184.084 L 348.83 182.91 L 349.512 182.135 L 350.443 181.743 L 350.619 181.841 L 351.357 182.384 L 351.165 183.328 L 350.622 184.059 L 349.386 184.982 L 348.29 185.864 L 346.815 187.002 L 345.903 188.58 L 344.991 190.159 L 344.319 191.525 L 343.611 192.754 L 343.465 194.422 L 343.181 196.131 L 343.063 197.349 L 343.406 199.185 L 344.414 201.287 L 344.896 203.086 L 346.246 204.801 L 348.074 206.089 L 349.275 207.251 L 351.242 208.503 L 352.682 209.457 L 354.464 210.018 L 356.596 210.784 L 359.67 211.737 L 362.308 211.63 L 364.393 211.728 L 366.506 211.309 L 368.719 210.721 L 370.545 209.788 L 373.475 206.334 L 374.323 205.069 L 375.059 203.39 L 375.555 201.921 L 376.042 199.862 L 376.039 197.639 L 375.898 195.452 L 375.24 193.553 L 373.587 192.365 L 372.663 191.129 L 371.537 190.248 L 371.028 188.9 L 371.534 188.027 L 372.125 188.027 L 372.863 188.57 L 374.203 189.694 L 374.84 190.416 L 375.893 191.03 L 375.891 190.922 Z " fill-rule="evenodd" fill="rgb(0,0,0)"/><path d=" M 163.964 205.998 L 176.746 204.917 L 167.39 213.692 L 172.368 225.515 L 161.131 219.329 L 151.425 227.716 L 153.836 215.117 L 142.861 208.478 L 155.587 206.878 L 158.509 194.388 L 163.964 205.998 Z " fill="rgb(0,0,0)"/><path d=" M 268.69 158.295 L 281.472 157.214 L 272.116 165.989 L 277.094 177.811 L 265.857 171.625 L 256.151 180.012 L 258.562 167.414 L 247.586 160.775 L 260.313 159.174 L 263.235 146.685 L 268.69 158.295 Z " fill="rgb(0,0,0)"/><path d=" M 115.883 204.149 L 128.664 203.068 L 119.309 211.844 L 124.286 223.666 L 113.049 217.48 L 103.344 225.867 L 105.754 213.268 L 94.779 206.63 L 107.506 205.029 L 110.428 192.54 L 115.883 204.149 Z " fill="rgb(0,0,0)"/><path d=" M 290.654 201.91 L 303.435 200.829 L 294.08 209.605 L 299.057 221.427 L 287.82 215.241 L 278.115 223.628 L 280.525 211.029 L 269.55 204.391 L 282.277 202.79 L 285.199 190.301 L 290.654 201.91 Z " fill="rgb(0,0,0)"/><path d=" M 298.919 122.329 L 311.7 121.249 L 302.345 130.024 L 307.322 141.846 L 296.085 135.66 L 286.38 144.048 L 288.79 131.449 L 277.815 124.81 L 290.542 123.21 L 293.464 110.72 L 298.919 122.329 Z " fill="rgb(0,0,0)"/><path d=" M 192.494 236.32 L 205.276 235.24 L 195.92 244.015 L 200.898 255.837 L 189.661 249.651 L 179.955 258.038 L 182.366 245.439 L 171.39 238.801 L 184.117 237.2 L 187.039 224.711 L 192.494 236.32 Z " fill="rgb(0,0,0)"/><path d=" M 91.167 115.69 L 103.949 114.609 L 94.593 123.384 L 99.571 135.207 L 88.334 129.021 L 78.629 137.407 L 81.039 124.809 L 70.064 118.17 L 82.791 116.57 L 85.713 104.08 L 91.167 115.69 Z " fill="rgb(0,0,0)"/><path d=" M 140.339 150.223 L 153.121 149.142 L 143.765 157.918 L 148.742 169.74 L 137.505 163.555 L 127.8 171.941 L 130.211 159.343 L 119.235 152.704 L 131.962 151.104 L 134.884 138.614 L 140.339 150.223 Z " fill="rgb(0,0,0)"/><path d=" M 253.544 240.764 L 266.325 239.683 L 256.97 248.458 L 261.947 260.281 L 250.71 254.095 L 241.005 262.482 L 243.415 249.883 L 232.44 243.245 L 245.167 241.644 L 248.089 229.154 L 253.544 240.764 Z " fill="rgb(0,0,0)"/><path d=" M 136.56 97.698 L 149.342 96.618 L 139.986 105.393 L 144.964 117.216 L 133.727 111.03 L 124.021 119.417 L 126.432 106.818 L 115.456 100.18 L 128.183 98.579 L 131.105 86.089 L 136.56 97.698 Z " fill="rgb(0,0,0)"/><path d=" M 232.089 195.112 L 244.871 194.032 L 235.515 202.807 L 240.493 214.629 L 229.255 208.443 L 219.55 216.83 L 221.961 204.231 L 210.985 197.593 L 223.712 195.992 L 226.634 183.503 L 232.089 195.112 Z " fill="rgb(0,0,0)"/><path d=" M 191.531 174.386 L 204.312 173.306 L 194.957 182.081 L 199.934 193.903 L 188.697 187.717 L 178.992 196.104 L 181.402 183.505 L 170.427 176.867 L 183.154 175.266 L 186.076 162.776 L 191.531 174.386 Z " fill="rgb(0,0,0)"/><path d=" M 92.037 162.112 L 104.818 161.031 L 95.463 169.807 L 100.44 181.629 L 89.203 175.443 L 79.498 183.83 L 81.909 171.232 L 70.933 164.593 L 83.66 162.993 L 86.582 150.503 L 92.037 162.112 Z " fill="rgb(0,0,0)"/><path d=" M 119.25 51.978 L 132.031 50.898 L 122.676 59.673 L 127.653 71.495 L 116.416 65.31 L 106.711 73.697 L 109.122 61.098 L 98.146 54.46 L 110.873 52.859 L 113.795 40.369 L 119.25 51.978 Z " fill="rgb(0,0,0)"/><path d=" M 71.679 78.894 L 84.46 77.813 L 75.105 86.589 L 80.082 98.411 L 68.845 92.225 L 59.14 100.612 L 61.55 88.013 L 50.575 81.375 L 63.302 79.774 L 66.224 67.285 L 71.679 78.894 Z " fill="rgb(0,0,0)"/><path d=" M 67.88 31.952 L 80.661 30.871 L 71.306 39.646 L 76.283 51.469 L 65.046 45.283 L 55.341 53.67 L 57.752 41.072 L 46.776 34.433 L 59.503 32.833 L 62.425 20.342 L 67.88 31.952 Z " fill="rgb(0,0,0)"/><path d=" M 29.816 53.197 L 42.597 52.116 L 33.242 60.891 L 38.219 72.713 L 26.982 66.527 L 17.277 74.914 L 19.688 62.316 L 8.712 55.677 L 21.439 54.077 L 24.361 41.587 L 29.816 53.197 Z " fill="rgb(0,0,0)"/><path d=" M 317.423 164.11 L 330.205 163.03 L 320.849 171.805 L 325.827 183.627 L 314.59 177.442 L 304.884 185.829 L 307.295 173.23 L 296.319 166.591 L 309.046 164.991 L 311.968 152.501 L 317.423 164.11 Z " fill="rgb(0,0,0)"/></g></svg>