<?xml version="1.0" encoding="UTF-8" standalone="no"?>
<svg viewBox="0 0 199.99507 143.62184" xmlns="http://www.w3.org/2000/svg">
<path d="m 64.262776,0.20520197 c -9.5113,-0.314 -20.0127,-0.274 -30.1093,0.164 C 12.686676,1.300402 6.0697757,1.701902 5.4385757,2.115302 c -2.2933,1.5027 -3.9987,8.13 -4.93749999,19.1836 -0.6222,7.3248 -0.6571,12.2264 -0.1484,20.0547 0.2562,3.9433 0.5731,9.1362 0.70309999,11.5391 0.3459,6.3971 0.9671,11.0746 2.043,15.3476 0.6232,2.4757 2.0237,5.322 2.9414,5.9766 l 0.7304,0.5195 36.2969003,0.1133 c 19.9629,0.063 37.5572,0.081 39.0977,0.039 5.0198,-0.1354 8.3596,-0.9392 9.4922,-2.2852 0.5804,-0.6898 1.5762,-4.209 2.664,-9.4062 0.8436,-4.031 0.9833,-7.934 0.3242,-9.1407 -0.7333,-1.343 -2.4584,-1.4835 -3.7734,-0.3086 -0.6483,0.5793 -0.7069,0.7802 -1.1953,4.1055 -1.0461,7.1286 -2.8676,10.4279 -6.0469,10.9453 -3.4165,0.556 -12.1086,0.7183 -38.4336,0.7266 -30.3727,0.01 -29.1736,0.063 -32.2344,-1.4297 -2.7525,-1.3426 -3.8145003,-2.9116 -5.0898003,-7.5391 -2.1106,-7.6574 -2.6704,-14.8173 -2.3242,-29.6015 0.2408,-10.283 0.4057,-12.3865 1.2187,-15.5899 1.0611,-4.1808 2.7912,-6.9267 5.1094003,-8.1015 0.8947,-0.4533 1.7183,-0.6074 4.6016,-0.8672 11.6678,-1.0511 23.2957,-1.5138 38.3515,-1.5274 15.492,-0.014 23.279,0.435 28.3985,1.6446 4.5832,1.083 5.6565,2.5104 6.4453,8.5742 0.3719,2.8583 0.8268,4.3108 1.4648,4.6523 0.4414,0.2363 2.9422,0.2877 3.7227,0.078 0.61,-0.1638 0.6982,-1.057 0.4805,-4.8438 -0.2001,-3.4804 -0.9703,-6.5758 -2.3125,-9.2969 -1.328,-2.6922 -1.8357,-3.0803 -4.6016,-3.5195 -6.1319,-0.9737 -14.6528,-1.63910003 -24.1641,-1.95310003 z m 0.6797,6.98040003 -0.2344,1.1758 c -1.0343,5.1793 -0.9092,11.6674 0.2696,14.0508 0.4098,0.8285 0.7629,1.1464 2.0586,1.8399 2.1608,1.1567 5.8328,2.3346 9.1172,2.9257 2.4795,0.4461 3.5143,0.4992 10.1562,0.5039 4.0665,0 9.7127,-0.035 12.5469,-0.082 9.077404,-0.1492 23.002704,-0.038 25.429704,0.2031 6.0576,0.6017 10.8961,2.4987 14.1464,5.5391 1.0363,0.9693 1.9125,2.2167 1.7032,2.4258 -0.048,0.048 -0.8299,-0.2678 -1.7383,-0.7031 -2.1524,-1.0315 -5.5936,-2.2281 -8.3984,-2.918 -3.5124,-0.8639 -11.0494,-1.0276 -33.533204,-0.7227 -19.394,0.2629 -28.0677,0.1089 -31.2579,-0.5625 -1.6556,-0.3484 -2.5874,-0.9655 -5.2382,-3.4609 -2.6767,-2.5198 -4.4113,-4.6251 -10.2305,-12.4102 -2.702,-3.6148 -5.059,-6.6863 -5.2344,-6.8242 -0.3198,-0.2516 -5.3594,-0.6631 -5.3594,-0.4375 0,0.067 3.9665,5.0891 8.8125,11.1602 9.125,11.4316 10.9751,13.467 13.2891,14.6211 l 1.3125,0.6523 8.8516,0.2734 c 18.8911,0.5848 25.9941,0.7549 41.785104,0.9883 17.5117,0.2588 18.5481,0.3312 21.6153,1.4805 1.8363,0.6881 3.5924,1.8386 4.3828,2.875 0.3357,0.4405 0.5685,0.8423 0.5156,0.8945 -0.052,0.052 -1.3353,-0.2996 -2.8555,-0.7812 -4.9089,-1.555 -4.4371,-1.5117 -21.6426,-1.8125 -20.280504,-0.3542 -46.467104,-0.3672 -49.652304,-0.024 -2.6746,0.2883 -5.4126,1.1711 -6.9609,2.2461 -2.0806,1.4446 -7.5825,7.2149 -11.3477,11.9004 -1.8288,2.2758 -10.0494,13.6874 -10.2656,14.25 -0.1075,0.2805 0.2349,0.3321 2.2109,0.3321 h 2.3438 l 6.7343,-8.4571 c 6.2442,-7.8386 8.872,-10.7896 11.1485,-12.5195 2.2531,-1.7122 4.9122,-2.9888 7.9531,-3.8242 1.7212,-0.4729 3.5523,-0.4815 23.6367,-0.082 7.2704,0.1446 19.268504,0.3553 26.662104,0.4688 13.5526,0.2081 14.9661,0.297 18.0508,1.1289 1.5667,0.4226 4.184,1.6833 3.961,1.9063 -0.053,0.053 -2.908,-0.018 -6.3477,-0.1563 -4.0043,-0.1611 -10.8085,-0.1992 -18.9141,-0.1055 -6.9623,0.08 -17.448004,0.1425 -23.302704,0.1368 -6.065,-0.01 -11.6572,0.093 -12.9961,0.2304 -5.4638,0.5595 -9.3714,1.6763 -11.7109,3.3516 -1.1101,0.7949 -1.2966,1.0484 -1.7305,2.3515 -1.0813,3.2499 -1.4168,8.0868 -0.8711,12.5352 0.3725,3.037 0.3726,3.0352 2.0508,3.0352 0.874,0 1.5901,-0.1261 1.8789,-0.3282 0.7959,-0.5549 1.0658,-2.0759 0.8398,-4.664 -0.3628,-4.1565 -0.2482,-7.0421 0.3399,-8.5313 0.8729,-2.2105 1.3307,-2.5527 3.9414,-2.9336 5.5309,-0.8071 12.0335,-1.2375 18.7187,-1.2383 2.8906,-4e-4 13.524304,0.051 23.628904,0.1133 l 18.3692,0.1133 -0.061,0.9492 c -0.098,1.6325 0.074,1.9367 1.4102,2.5274 2.4152,1.0681 4.501,1.4883 7.9961,1.6093 2.5447,0.088 3.7984,0.026 5.4883,-0.2734 5.6326,-0.9993 13.0672,-4.2689 19.8906,-8.7461 0.6218,-0.408 0.6046,-0.3583 -0.2578,0.6836 -5.4948,6.6389 -13.0635,10.2751 -23.0664,11.0781 -3.221,0.2586 -4.7662,0.6275 -5.9336,1.4141 -1.0688,0.7201 -1.0259,1.4137 0.1328,2.207 1.5082,1.0326 3.2723,1.3877 6.3086,1.2617 6.1212,-0.2538 12.5761,-2.3832 17.5508,-5.789 5.2369,-3.5854 8.5548,-7.5311 10.0937,-12.0039 0.5208,-1.512 0.5532,-2.0938 0.1133,-2.0938 -0.1789,0 -0.5808,-0.1187 -0.8945,-0.2617 -0.6977,-0.3181 -0.7236,-0.7987 -0.125,-2.5391 0.5806,-1.6844 0.5686,-2.5323 -0.039,-3.1796 -0.9404,-1.001 -1.6198,-0.673 -3.5,1.6875 -0.4074,0.5115 -0.8237,0.9296 -0.9219,0.9296 -0.098,0 -0.7549,-1.9404 -1.4609,-4.3125 -0.7057,-2.3721 -1.6022,-4.9139 -1.9922,-5.6484 -0.7616,-1.433 -2.5481,-3.3837 -3.5898,-3.9219 -0.6155,-0.3182 -0.6647,-0.3045 -1.2891,0.3946 -0.3568,0.3993 -0.6484,0.8585 -0.6484,1.0234 0,0.1649 0.4407,1.2484 0.9804,2.4063 1.9342,4.1518 3.5673,9.2475 3.8711,12.0859 0.1304,1.2169 0.1167,1.2562 -0.6992,1.9726 -1.275,1.1194 -1.2818,1.1156 -2.4531,-2.6796 -0.442,-1.4318 -1.4438,-3.9091 -2.2305,-5.5039 -1.5567,-3.1562 -6.0442,-10.7679 -6.6172,-11.2227 -0.1956,-0.1552 -1.0963,-0.7835 -2,-1.3984 -1.3413,-0.9127 -1.8201,-1.1172 -2.6054,-1.1172 -1.8141,0 -1.7899,0.074 2.3632,6.7422 5.443,8.7387 6.858,11.5081 8.1524,15.9882 l 0.5781,2.0039 -0.6758,0.6797 -0.6797,0.6758 -0.5273,-0.5547 c -0.2905,-0.3055 -0.8547,-1.5129 -1.2539,-2.6836 -1.7821,-5.2316 -5.6066,-11.4651 -11.7266,-19.1211 -1.1994,-1.5005 -3.8398,-3.2851 -4.8633,-3.2851 -0.5815,0 -1.5703,0.5488 -1.5703,0.8711 0,0.096 1.0712,1.5303 2.3789,3.1836 7.0184,8.8733 11.499,16.295 11.6797,19.3398 l 0.082,1.3633 -0.8672,-1.9023 c -1.904,-4.1788 -5.2341,-9.0598 -8.6719,-12.711 -1.8273,-1.9406 -2.1136,-2.1478 -4.6758,-3.3945 -5.2842,-2.5711 -11.3528,-4.0855 -18.9375,-4.7266 -1.6171,-0.1366 -9.8549,-0.2328 -19.828104,-0.2304 -16.1606,0 -19.56,-0.091 -23.9961,-0.6875 -2.0945,-0.2815 -2.715,-0.5663 -3.7031,-1.6915 -1.355,-1.5435 -1.4311,-1.9169 -1.586,-7.9257 -0.078,-3.0191 -0.153,-5.5159 -0.1757,-5.5469 -0.02,-0.031 -0.8354,-0.055 -1.8125,-0.055 z m 109.890904,39.4379 c -0.6281,0 -1.0298,0.1106 -1.1054,0.3047 -0.3673,0.9575 -5.3277,7.1096 -7.7383,9.5977 -4.9259,5.0842 -8.7262,7.521 -14.8203,9.5 -0.5546,0.1801 -2.3199,0.4708 -3.9219,0.6445 -3.1795,0.3447 -4.9342,0.784 -5.7461,1.4414 l -0.5234,0.4258 0.8593,0.8086 c 1.0544,0.9944 1.9371,1.4713 3.3946,1.832 1.6904,0.4177 1.8918,0.3978 7.5859,-0.789 5.0629,-1.0552 5.378,-1.1526 7.0352,-2.1524 7.37,-4.4464 12.5273,-10.7512 15.0273,-18.3711 1.1085,-3.3746 1.109,-3.2422 -0.047,-3.2422 z m 2.1368,6.7247 c -0.2415,0.01 -1.1593,1.3518 -2.6133,3.8359 -4.5178,7.7186 -7.2946,11.4158 -10.5,13.9805 -3.0046,2.404 -6.0541,3.6536 -9.8321,4.0234 l -1.5117,0.1484 v 0.7461 c 0,0.6138 0.139,0.8352 0.7852,1.2344 0.433,0.2676 1.0652,0.5704 1.4023,0.6719 1.1079,0.3336 3.9279,0.2299 5.7657,-0.211 6.6047,-1.5847 11.9315,-5.9145 15.1054,-12.2773 1.6431,-3.2942 3.3665,-9.0478 3.0664,-10.2422 -0.1861,-0.7413 -1.2151,-1.9192 -1.6679,-1.9101 z m -2.9922,17.6968 c -0.075,-0.2369 -0.8115,0.3154 -2.4961,1.875 -1.3142,1.2167 -2.3906,2.312 -2.3906,2.4336 0,0.1215 0.505,0.7714 1.121,1.4453 3.6599,4.0045 6.4688,10.0411 7.1915,15.4649 0.5307,3.9818 -0.2827,11.644698 -1.4805,13.960898 -0.5562,1.0757 -2.2205,2.7844 -4.1406,4.25 -1.863,1.4221 -3.3671,2.9573 -3.8985,3.9844 -0.443,0.8579 -0.6813,2.3281 -0.4961,3.0664 l 0.1446,0.5703 1.2851,-0.6445 c 0.7061,-0.3544 1.8435,-0.8059 2.5313,-1.0039 1.0253,-0.2954 1.5919,-0.6807 3.1523,-2.1407 3.956,-3.7013 6.3673,-8.4115 7.6016,-14.847598 0.4059,-2.1174 0.4575,-2.8884 0.3086,-4.6641 -0.2646,-3.1654 -0.2474,-5.0971 0.047,-5.3906 0.1956,-0.1954 0.7446,-0.1445 2.2422,0.207 4.861,1.141 9.7098,1.0865 13.3907,-0.1484 2.0992,-0.7042 2.2586,-0.9966 1.457,-2.6524 -0.9666,-1.9968 -2.3098,-2.2685 -6.5274,-1.3164 -2.8192,0.6364 -4.4957,0.7044 -5.7187,0.2344 -0.4646,-0.1785 -1.2991,-0.4401 -1.8516,-0.582 -2.3688,-0.6088 -4.7804,-2.4389 -6.5976,-5.0078 -0.8399,-1.1874 -4.5787,-8.1611 -4.875,-9.0938 z m -8.1094,7.1094 -1.9414,0.1367 c -2.7961,0.1984 -2.8674,0.239 -3.457,2.0977 -0.72,2.2708 -2.6726,5.8448 -5.6719,10.3672 -2.7016,4.0737 -4.5915,7.5808 -5.4336,10.085898 -0.6206,1.8471 -0.8312,6.0486 -0.3867,7.7305 0.3326,1.2584 0.3869,1.2749 2.7461,0.7851 l 1.1718,-0.2422 0.1446,-1.7187 c 0.3751,-4.4372 2.437,-9.207298 6.0664,-14.042998 1.6644,-2.2176 4.4029,-5.4672 4.6289,-5.4922 0.073,-0.01 0.4122,0.5005 0.7539,1.1289 l 0.6211,1.1407 -0.1094,4.2929 c -0.128,4.9355 -0.397,6.603098 -2.4062,14.933598 -2.2501,9.3277 -2.7715,13.2693 -2.4532,18.5 0.4274,7.0193 2.7263,11.7962 7.1055,14.75 1.7095,1.153 2.6452,1.3167 2.9453,0.5235 0.1043,-0.2772 0.2617,-1.1406 0.3516,-1.9219 0.1573,-1.3642 0.1389,-1.4489 -0.4922,-2.1289 -2.62,-2.8213 -4.0157,-6.0376 -5.0313,-11.5899 -0.588,-3.2149 -0.615,-2.9792 1.3633,-13.3164 2.2827,-11.9266 2.8627,-16.815798 2.6367,-22.292898 -0.1978,-4.7941 -0.8087,-7.7531 -2.4609,-11.961 z m -7.084,37.029298 -0.8398,0.01 c -0.4621,0 -2.4341,0.099 -4.3828,0.207 -3.1644,0.1753 -3.6756,0.2598 -4.7735,0.7969 -1.4155,0.6925 -2.2992,1.8369 -2.4844,3.2148 l -0.1211,0.8984 0.9805,0.086 c 1.9707,0.1752 2.3673,0.1578 6.4531,-0.2891 5.81,-0.6354 5.168,-0.2861 5.168,-2.7969 z"  />
</svg>
