<?xml version="1.0" encoding="UTF-8" standalone="no"?>
<svg viewBox="0 0 245.80219 118.22049" xmlns="http://www.w3.org/2000/svg">
<path d="m 184.75894,0.0442113 c -2.2433,0.1405 -4.4475,0.5843 -6.5547,1.3242 -18.9008,-0.5768 -41.4634,4.7721 -69.6992,18.6991997 -14.591798,-4.8466 -31.198398,-9.3843 -52.265598,0.4922 -1.3277,0.6224 -2.2804,1.8391 -2.5664,3.2773 -0.094,0.4746 -0.327,1.3354 -0.4922,2.4571 -5.0615,1.4363 -10.32,3.5796 -15.4102,7.3242 -1.6953,0.8397 -3.0913,2.7299 -3.457,4.3945 -0.3676,1.6746 -0.1142,3.0351 0.2265,4.2422 0.6815,2.4141 1.9221,4.4705 3.336,6.4531 1.4138,1.9826 3.002,3.7908 4.625,5.2344 0.8115,0.7218 1.6094,1.3571 2.6211,1.9063 1.0118,0.5492 2.4129,1.4765 4.9687,0.5859 0.027,-0.01 0.055,-0.018 0.082,-0.027 4.398,-1.6268 8.9093,-2.2521 13.5664,-2.1835 -3.2003,2.5069 -6.116,5.7021 -8.7969,9.3203 -17.3492,6.336 -35.6092,11.8573 -52.4023996,20.3789 -4.8663,2.4793 -2.14849997,9.8643 3.1641,8.5976 19.4048996,-4.6685 38.0439996,-9.5943 55.8163996,-10.3906 2.1074,2.8807 4.3874,4.9589 7.0859,6.0859 3.386,1.4141 7.1028,0.8728 9.8477,-0.4804 0.4445,-0.2192 0.8545,-0.4755 1.2734,-0.7227 -4.299,3.4247 -10.0172,5.9241 -17.4648,7.9414 -0.014,0.01 -0.029,0.01 -0.043,0.016 -2.4139,0.6788 -3.0232,2.4299 -3.2695,3.168 -0.2463,0.7385 -0.2675,1.1669 -0.2969,1.5703 -0.058,0.807099 -0.019,1.460699 0.043,2.203199 0.1227,1.4849 0.383,3.1966 0.7187,4.9414 0.3358,1.7447 0.7385,3.4798 1.211,4.9961 0.2362,0.758 0.4761,1.4516 0.8359,2.1953 0.3597,0.7438 0.188,1.8901 3.0078,3 0.074,0.028 0.1478,0.054 0.2227,0.078 4.8764,1.6325 10.6105,1.2629 17.1797,0.07 6.569,-1.1946 13.8794,-3.4046 21.105398,-6.3633 13.5652,-5.5542 26.817,-13.423199 33.6797,-23.632799 43.0116,0.5979 74.6075,-16.0804 95.6387,-53.1367 0.028,-0.05 0.056,-0.1011 0.082,-0.1524 -0.5329,1.027 0.096,-0.033 1.9727,-0.9296 1.8768,-0.8966 4.7551,-1.9977 8.3633,-3.2696 5.096,-1.7953 3.4832,-9.3821 -1.9024,-8.9492 -2.859,0.2292 -5.7648,0.6783 -7.9336,0.8047 -2.1688,0.1265 -3.1448,-0.7849 -2.0507,0.3477 -0.1137,-0.1183 -0.2337,-0.2305 -0.3594,-0.336 -10.5084,-8.7779 -19.7133,-13.7485997 -28.1914,-15.8202997 -3.0643,-2.5442 -6.7431,-4.3522 -10.7364,-5.207 h -0.012 c -2.2496,-0.4764 -4.5301,-0.6405 -6.7734,-0.5 z M 37.770642,33.618411 c 0.01,0 0.01,-0.023 0.02,-0.027 l -0.8007,0.4961 c 0.2568,-0.1986 0.5234,-0.2791 0.7812,-0.4687 z M 183.48944,3.7688113 c 2.3191,-0.2373 4.7764,-0.1123 7.2695,0.4179 4.7637,1.0131 8.8093,3.3361 11.5859,6.3593997 7.2811,2.0193 15.5259,6.5136 25.1621,14.5625 1.9992,2.0697 8.4744,0.6586 13.668,0.2422 -7.3239,2.5818 -11.8928,4.4962 -12.8945,6.4258 -20.7868,36.6256 -50.8916,52.0761 -94.0801,50.789 l 0.019,-0.025 c -12.7721,0.3825 -24.8408,-0.9103 -35.312498,-5.9883 6.447198,4.2843 14.303498,8.1032 34.078198,7.9648 -12.1217,17.969799 -53.515198,32.688699 -66.832098,28.230499 -1.3596,-0.5351 -3.6473,-13.069999 -2.6875,-13.339899 16.0376,-4.3441 26.1126,-11.8212 29.7891,-25.5078 -4.2281,-6.4487 -6.3179,-12.8188 -7.1602,-19.9843 -13.0197,-4.293 -25.4919,-6.2841 -37.5273,-1.8321 -2.4102,0.8399 -13.1724,-12.2012 -8.7617,-14.3476 5.9422,-4.5944 12.1829,-6.5165 18.4726,-8.0274 -1.1778,-1.359 -0.4356,-3.2169 -0.086,-4.9726 20.5953,-9.6553 35.636,-4.7514 50.624998,0.2851 27.6743,-13.8881 49.4485,-19.2427997 67.4062,-19.0780997 0.2736,-0.1484 0.5513,-0.2914 0.836,-0.4258 1.9274,-0.9102 4.1067,-1.5088 6.4258,-1.7461 z m 0.1718,1.6953 c -2.139,0.219 -4.1321,0.7686 -5.8711,1.5898 -3.4779,1.6423 -5.9159,4.3361997 -6.6328,7.7070997 -0.7169,3.3709 0.4132,6.8306 2.9219,9.7461 2.5086,2.9155 6.3912,5.2427 11.0352,6.2304 4.644,0.9876 9.1393,0.4393 12.6171,-1.2031 3.4779,-1.6424 5.9199,-4.34 6.6368,-7.7109 0.7169,-3.3709 -0.4192,-6.8267 -2.9278,-9.7422 -2.5086,-2.9154997 -6.3892,-5.2428997 -11.0332,-6.2304997 -2.322,-0.4938 -4.6072,-0.6057 -6.7461,-0.3867 z m 22.3457,11.8944997 c 0.337,1.5776 0.3646,3.2031 0.022,4.8203 -0.6449,3.0319 -2.4807,5.5639 -5.0351,7.4024 -0.1056,0.152 -0.1843,0.2597 -0.293,0.4179 2.3531,-1.3285 5.3672,-2.1268 8.2578,-4.789 6.8762,0.1803 12.4688,1.4941 18.6836,2.8828 -4.2849,-6.105 -10.2767,-8.2421 -16.4297,-9.6484 -1.7357,-0.397 -3.4764,-0.732 -5.2031,-1.086 z m -36.9082,0.1875 c -11.1836,1.6695 -20.965,2.8239 -40.1093,14.336 12.7392,-3.0059 28.5329,-5.2795 41.6914,-6.6719 -0.4732,-2.8368 -1.0442,-5.4841 -1.5821,-7.6641 z m -75.828098,7.0508 c -16.6389,-0.2633 -36.1957,3.6007 -50.3125,13.4687 28.5601,-13.756 71.286998,-9.5706 80.136698,1.4102 1.255,2.015 -17.6602,13.648 -31.304698,15.4375 7.9258,0.9625 36.791498,-8.6955 34.496098,-18.3945 -1.2082,-4.7282 -8.0413,-8.3933 -17.6562,-10.3516 -4.5889,-0.9346 -9.813098,-1.4825 -15.359398,-1.5703 z m -15.4922,29.4043 c 1.8887,0.3198 3.7418,1.2003 5.5274,2.7461 l 0.7148,3.2734 c -1.021,-0.8735 -2.0775,-1.3799 -3.1562,-1.5625 -3.8944,-0.6596 -8.0428,2.8152 -11.5391,7.7344 -10.3319,3.7977 -21.057,6.9914 -30.6875,11.8672 11.6672,-2.7979 23.067,-5.8754 34.1992,-6.125 5.1982,8.4375 9.631,1.8283 13.3438,-2.0664 l 0.8476,3.8672 c -6.4431,6.7535 -14.144,18.3202 -23.164,3.6484 -19.2825,0.4407 -39.0276,5.786 -59.2382996,10.6484 16.6842996,-8.4663 35.2655996,-14.013 53.1639996,-20.6093 6.0592,-8.5376 13.2431,-14.5637 19.9883,-13.4219 z" />
</svg>
