<?xml version="1.0" encoding="UTF-8" standalone="no"?>
<svg viewBox="0 0 240.4048 200.39821" xmlns="http://www.w3.org/2000/svg">
<path d="m 197.65551,0.001 c -15.1861,4.3373 -30.3747,8.6704 -45.5606,13.0079 -1.1638,0.3319 -1.7686,1.6132 -1.2851,2.7226 2.7476,6.199 4.4375,12.9706 6.3633,19.7227 0.2916,6.0071 1.8791,11.2114 1.3984,16.0859 -0.2835,-0.54 -0.5556,-1.0764 -0.918,-1.7109 -0.5171,-0.9065 -1.0965,-1.899 -2.289,-2.5899 l 0.6015,0.5235 c -8.1667,-10.7107 -19.7596,-18.0417 -32.2461,-22.3516 l -0.016,-0.016 c -28.330203,-9.7427 -60.391003,2.9667 -73.433603,25.8125 -6.0854,9.4087 -8.55875,20.9956 -7.5586,32.0664 -7.15315,-9.1457 -11.92235,-19.9265 -14.72255,-31.2735 -0.2759,-1.1023 -1.4136,-1.7537 -2.5039,-1.4335 -8.0092,2.3546 -16.0399999,4.6786 -24.0507999,7.0546 -1.0443,0.3082 -1.6502,1.3951 -1.3633,2.4454 5.5561,20.0316 14.8611999,39.8751 30.6093999,54.289 7.902,8.3697 17.84795,14.1491 27.87495,18.9844 7.4811,3.6134 15.3487,5.4935 22.832,7.9687 0.8229,2.605 2.0196,5.1383 4.2891,6.3477 2.8858,1.5378 6.3398,1.9929 9.4218,0.9766 0.4838,-0.1555 0.8902,-0.4893 1.1368,-0.9336 0.3112,-0.5669 0.3531,-0.5141 0.4765,-0.543 0.1237,-0.024 0.5513,-0.017 1.2149,0.1758 1.1641,0.3354 3.059903,1.0128 5.183603,0.9297 l -27.703203,7.7968 c -0.3726,-2.3173 -0.4258,-5.3732 -3.2187,-7.8007 -2.6798,-2.7445 -6.1577,-3.8386 -9.5938,-4.1602 h -0.016 c -0.077,0.055 -0.1501,0.1147 -0.2187,0.1797 l 0.012,-0.1914 c -7.3632,0.1175 -13.63,4.2396 -18.043,9.4492 -0.058,0.065 -0.1113,0.1346 -0.1601,0.207 -3.14205,4.8857 -3.89115,11.3008 -0.5743,16.5625 0.9196,2.1388 2.9063,3.3516 4.9961,3.5938 -0.045,0.056 -0.1128,0.093 -0.1601,0.1484 -0.047,0.052 -0.091,0.1071 -0.1328,0.1641 -3.0163,4.3847 -4.9413,10.63 -1.6446,15.9609 2.6429,5.3606 8.4479,8.0786 13.4649,9.4727 h 0.016 c 2.9949,0.8227 6.4352,1.0531 9.6914,0.2773 3.239,-0.7715 6.3295,-2.6798 8.1094,-5.9726 1.3077,-2.057 2.3739,-4.664 2.664,-7.4141 0.2468,-2.3459 -0.6683,-4.7197 -2.1406,-6.7539 0.1083,0.011 0.2056,0.1378 0.3125,0.1406 1.2188,0.029 2.2843,-0.2893 3.2696,-0.6445 1.9705,-0.7098 3.7735,-1.541 4.6679,-1.5703 0.28,-0.01 0.5554,-0.072 0.8086,-0.1914 1.1516,-0.5627 3.1437,-0.8736 5.2188,-1.3438 2.0752,-0.4703 4.4781,-1.1757 5.9062,-3.3945 0.095,-0.1394 0.1729,-0.2903 0.2305,-0.4492 2.420003,-7.2214 4.826203,-14.4427 7.246103,-21.6641 0.3131,-1.2108 -0.5493,-2.4088 -1.7969,-2.4961 2.0811,-0.7919 3.2604,-2.3738 4.0391,-3.0351 0.4092,-0.3476 0.6032,-0.3824 0.539,-0.3789 -0.061,7e-4 -0.022,-0.096 0.5078,0.4335 0.5424,0.547 1.3507,0.7339 2.0782,0.4805 0.6538,-0.2221 1.7477,-0.3338 2.6328,-0.4609 -0.3626,0.1828 -0.661,0.4716 -0.8555,0.8281 -2.1097,6.2593 -4.2301,12.5142 -6.3398,18.7734 0.01,0.084 0.018,0.1675 0.035,0.25 -0.019,0.098 -0.05,0.2188 -0.059,0.2969 -0.01,0.1109 -0.014,0.2015 -0.01,0.2813 0.013,0.1596 0.029,0.2801 0.066,0.4257 0,0.01 0.014,0.015 0.02,0.031 -0.1097,0.013 -0.2182,0.035 -0.3242,0.066 -5.3295,1.6568 -8.993903,6.6813 -10.015603,11.8789 -0.038,0.1902 -0.049,0.3849 -0.031,0.5781 0.5767,5.9879 4.937203,11.8192 11.601603,11.9844 h 0.1797 c 4.8083,-0.3403 8.1766,-4.0724 9.7695,-8.1133 0.053,0.1765 0.131,0.3448 0.2305,0.5 2.8923,1.9844 6.2416,1.4269 8.7109,0.07 2.4692,-1.3566 4.471,-3.3946 5.9726,-4.8828 0.013,-0.012 0.026,-0.023 0.039,-0.035 1.8766,-1.9575 2.7003,-4.6524 2.6367,-7.293 -0.063,-2.6407 -1.044,-5.3651 -3.2383,-7.1523 -0.3381,-0.2705 -0.7547,-0.424 -1.1875,-0.4375 -0.9605,-0.031 -1.7138,-0.037 -2.289,-0.066 0.1428,-0.3933 0.2355,-0.7196 0.6523,-1.5157 0.051,-0.095 0.094,-0.1945 0.1289,-0.2968 2.1272,-6.3826 4.2635,-12.762 6.3907,-19.1446 5.4906,4.7253 10.982,9.4662 16.4726,14.1914 0.053,0.02 0.1061,0.039 0.1602,0.055 -5.0698,7.0101 2.0706,17.1721 10.3515,15.418 5.0944,0.2357 9.3999,-2.7485 12.4297,-6.0742 0.3344,0.6497 0.5221,1.4242 1.0508,1.8242 0.9142,0.6908 1.9547,1.0404 2.9883,1.2344 2.0517,0.3858 4.1349,0.1844 5.8555,-0.4532 2.4903,-0.8247 4.8245,-2.4473 6.3867,-4.6875 1.539,-2.2068 2.1792,-5.1728 1.1758,-8.0976 -0.7283,-3.7764 -3.0288,-6.7681 -5.9649,-8.711 -2.9953,-1.9819 -6.5824,-3.0368 -10.0234,-3.1953 -0.1877,-0.01 -0.3757,0.01 -0.5586,0.051 -1.3797,0.3266 -2.3719,-0.2027 -3.8633,-1.3945 -1.4908,-1.1944 -3.0923,-2.995 -5.2969,-4.1914 l 0.2696,0.1718 c -2.6601,-2.0365 -5.3323,-4.0724 -7.9922,-6.1093 -0.2247,-0.1706 -0.483,-0.2918 -0.7578,-0.3555 -0.3372,-0.077 -0.6885,-0.065 -1.0196,0.035 -0.1865,0.056 -0.3714,0.1159 -0.5586,0.1718 1.8277,-1.1189 3.5101,-2.9323 3.5821,-5.5273 0.01,-0.2292 -0.027,-0.4578 -0.098,-0.6758 -0.2401,-0.7312 -0.1625,-1.018 -0.051,-1.2851 0.1135,-0.2672 0.3909,-0.6007 0.9258,-1.004 1.067,-0.8033 2.9712,-1.5732 4.6289,-2.9882 l 0.02,-0.018 c 8.8357,-7.4024 17.4399,-15.6149 22.9961,-26.2461 5.859,-10.0002 9.6279,-21.0385 12.6875,-31.9805 0.011,-0.044 0.02,-0.088 0.027,-0.1328 3.137,-14.8368 4.8451,-30.2833 2.0742,-45.5703 -0.5603,-5.4455 -2.3897,-10.8001 -3.6445,-15.3828 -0.2751,-0.7481 -0.968,-1.2614 -1.7637,-1.3067 z m -0.5996,4.3321 c 1.2075,4.2182 2.6427,8.6255 3.0664,12.7988 0.01,0.05 0.019,0.099 0.031,0.1484 2.6607,14.5559 1.0328,29.5119 -2.0507,44.1094 -3.0186,10.7806 -6.6852,21.4903 -12.2735,31.0117 -0.022,0.03 -0.043,0.061 -0.062,0.092 -5.1627,9.8921 -13.3523,17.7862 -22.0625,25.0821 -0.01,0 -0.012,0.01 -0.018,0.012 -0.8994,0.7713 -2.7423,1.5568 -4.4414,2.8359 -0.519,0.3915 -0.9173,1.0485 -1.3593,1.6211 -0.1266,-0.5085 -0.1646,-0.8663 -0.3321,-1.3828 -0.6756,-2.0725 -1.9565,-4.3681 -4.4922,-5.3281 -1.1199,-0.4236 -2.3586,0.2249 -2.6484,1.3867 l 0.1641,-0.6523 c -1.5876,0.7358 -3.3037,1.6137 -4.5391,3.1796 -0.9164,1.1616 -0.3543,2.984 -0.1992,4.668 -0.1893,-0.6958 -0.2658,-1.0737 -0.5508,-1.8047 -0.3921,-1.0045 -0.9501,-2.0665 -2.0391,-2.8437 -1.0891,-0.7772 -2.6359,-1.0078 -4.1172,-0.6407 -0.03,0.01 -0.06,0.012 -0.09,0.02 -0.2636,0.079 -1.042,0.2168 -1.8359,0.4453 -1.6005,0.2138 -3.0892,0.9916 -3.7422,2.3086 -0.4939,0.997 -0.2735,1.8905 -0.1172,2.7656 -1.3529,-2.0615 -3.3139,-4.0992 -6.25,-3.9101 -0.1347,0.01 -0.2682,0.031 -0.3984,0.066 -0.9597,0.2602 -1.7855,0.5468 -2.5,0.707 l 0.4882,-0.039 c -1.4844,-0.029 -2.8449,0.3359 -3.8476,1.1719 -1.0026,0.8362 -1.5077,2.022 -1.6738,3.1172 -0.1432,0.9415 0.3018,1.6916 0.455,2.5742 -0.4472,-1.2063 -0.4284,-2.4087 -1.125,-3.5391 -0.3502,-0.5653 -0.9585,-0.9196 -1.623,-0.9453 -2.459,-0.093 -4.7324,1.0116 -6.5547,2.5469 -1.8224,1.5353 -3.2682,3.5467 -3.7266,5.8672 -0.05,0.3054 -0.029,0.6183 0.062,0.9141 -0.8905,-1.147 -2.2347,-1.9556 -3.8086,-2.2813 -0.1375,-0.1365 -0.294,-0.2522 -0.4648,-0.3437 -0.038,0 -0.053,0.023 -0.086,0.02 -0.023,0 -0.028,-0.026 -0.043,-0.027 v 0.045 c -0.075,-0.01 -0.1193,0.043 -0.1914,0.035 l 0.016,-0.09 c -0.041,0.039 -0.08,0.079 -0.1172,0.1211 -1.6013,-0.1179 -3.125003,0.1869 -4.222603,0.914 -1.2086,0.8007 -2.0529,1.8052 -2.8633,2.7188 -0.3106,0.3541 -0.4863,0.8064 -0.4961,1.2773 0,0.3888 0.228,0.9252 0.2461,1.3555 -0.6389,-1.1506 -0.9328,-2.5256 -2.2969,-3.0781 -0.4379,-0.179 -0.9251,-0.197 -1.375,-0.051 -1.493,0.489 -3.8101,0.5243 -6.2148,1.6719 -0.3416,0.1624 -0.6301,0.4184 -0.8321,0.7382 -0.5573,0.8771 -0.2869,1.811 -0.3945,2.754 -0.1364,-0.3484 -0.3679,-0.6516 -0.668,-0.875 -7.7561,-2.5802 -15.5111,-4.4593 -22.5468,-7.8575 -9.8588,-4.7543 -19.37335,-10.3229 -26.75785,-18.164 -0.033,-0.035 -0.067,-0.069 -0.1015,-0.1016 -14.5276,-13.2653 -23.2977,-31.687 -28.7890999,-50.625 6.7046999,-1.9813 13.4233999,-3.9418 20.1445999,-5.9141 3.0068,11.2413 7.7336,22.082 15.0781,31.3125 0.013,0.024 0.034,0.035 0.047,0.059 0.7028,1.2536 1.4539,2.2105 2.3085,2.8985 0.87165,0.702 1.99685,1.3433 3.41015,0.8437 0.7063,-0.2497 1.3027,-0.8597 1.5859,-1.4609 0.2831,-0.6012 0.3437,-1.1865 0.3243,-1.7617 -0.031,-0.9418 -0.4403,-1.9682 -0.9102,-3.0547 -1.1363,-10.4627 1.2926,-21.6381 7.0234,-30.4649 0.03,-0.043 0.059,-0.087 0.086,-0.1328 18.6681,-25.4566 41.0962,-33.112 68.699203,-23.9726 11.8721,4.1035 22.7453,11.0464 30.332,20.9961 0.1653,0.206 0.3698,0.3773 0.6016,0.5039 -0.01,0 0.4035,0.4128 0.8008,1.1093 0.3976,0.6967 0.822,1.6055 1.3398,2.4883 0.5174,0.8828 1.0822,1.902 2.4805,2.4375 0.6995,0.2678 1.5899,0.2632 2.3164,-0.012 0.7267,-0.2748 1.2951,-0.7409 1.8242,-1.3008 0.2349,-0.2466 0.403,-0.5491 0.4883,-0.8789 1.8176,-7.2074 -1.3091,-13.7987 -1.5039,-19.5976 0,-0.1636 -0.025,-0.3263 -0.066,-0.4844 -1.7062,-5.9786 -3.4621,-12.1645 -5.877,-18.168 13.9582,-3.9867 27.9188,-7.9781 41.877,-11.9648 z m -59.8496,44.0898 c -4.1701,0.131 -8.211,0.9482 -12.0899,1.9336 -0.034,0.01 -0.068,0.02 -0.1015,0.031 -6.3764,2.0195 -12.7318,6.6052 -14.5469,13.7578 -1.2891,2.4651 -1.0538,5.0774 -0.2461,7.0937 0.8329,2.0793 2.0457,3.8252 2.7031,5.2813 0.067,0.1576 0.1533,0.3059 0.2578,0.4414 3.5593,4.4055 6.8229,9.6923 11.6914,13.664 0.1656,0.1342 0.3515,0.241 0.5508,0.3165 2.7575,1.0631 5.4464,0.1265 7.4844,-1.0899 2.038,-1.2167 3.7521,-2.752 5.1055,-3.5859 0.2903,-0.1763 0.5309,-0.4237 0.6992,-0.7188 1.1918,-2.1191 3.1186,-3.5815 5.4062,-5.0976 2.2012,-1.459 4.6907,-2.9843 6.7735,-5.2696 2.8026,-2.1948 3.5004,-5.4631 3.1836,-8.2656 -0.3191,-2.8234 -1.3671,-5.479 -1.918,-7.543 -0.041,-0.1425 -0.097,-0.28 -0.168,-0.4101 -2.9131,-5.5771 -8.8296,-8.5405 -14.0429,-10.4317 -0.2385,-0.082 -0.4904,-0.1174 -0.7422,-0.1054 z m -0.3594,4.0664 c 4.7028,1.7455 9.4505,4.3371 11.543,8.2774 0.633,2.278 1.4852,4.6246 1.707,6.5859 0.2336,2.0706 0.035,3.4206 -1.6602,4.7227 -0.1065,0.081 -0.2047,0.1727 -0.2929,0.2734 -1.5694,1.8024 -3.8334,3.1639 -6.2383,4.7578 -2.2334,1.4803 -4.5539,3.283 -6.2422,5.9375 -1.7294,1.1083 -3.3195,2.4883 -4.8047,3.375 -1.4722,0.8788 -2.5542,1.118 -3.7539,0.7422 -3.9763,-3.3701 -7.0881,-8.1119 -10.7148,-12.6172 -0.8493,-1.7824 -1.8994,-3.3929 -2.4571,-4.7851 -0.5967,-1.4895 -0.7515,-2.4878 0.024,-3.8555 0.097,-0.1722 0.1682,-0.3578 0.2109,-0.5508 1.2392,-5.4726 6.4492,-9.3605 12.0078,-11.1328 3.5704,-0.905 7.1321,-1.5678 10.6719,-1.7305 z M 86.298107,62.7901 c -0.3721,0.02 -0.7313,0.1427 -1.0371,0.3555 l 0.1601,-0.2383 c -3.9293,1.4849 -6.901,3.8483 -10.1211,4.8945 -0.2835,0.089 -0.5437,0.2395 -0.7617,0.4414 -3.6015,3.4223 -8.6347,5.8716 -12.9922,9.6446 -3.1431,2.0711 -4.0791,5.4813 -3.8555,8.4804 0.2235,2.999 1.3161,5.8626 2.0586,8.1172 l -0.098,-0.4726 c 0.2475,3.3288 2.405,5.7521 4.8633,7.0937 2.425,1.3236 5.1861,1.8169 7.5937,1.9102 2.0085,0.3224 3.8776,0.094 5.5195,-0.082 1.6945,-0.1812 3.1526,-0.281 4.3711,0.031 0.025,0.011 0.049,0.021 0.074,0.031 4.3603,0.9295 9.8893,2.1381 14.7773,-0.2851 2.7258,-1.0798 4.312903,-3.3411 4.863303,-5.6055 0.2858,-1.1777 0.1197,-2.2314 0.1211,-3.3672 0.1329,1.2614 0.1609,2.2323 0.4726,3.5352 0.3271,3.2221 0.9756,6.8765 3.7578,9.8008 1.3467,3.8386 4.091,6.4221 6.0547,8.8437 0.3794,0.6623 0.7788,1.2138 1.3282,1.6602 0.5495,0.4462 1.3589,0.8026 2.2148,0.7148 0.856,-0.088 1.5301,-0.5894 1.9297,-1.0781 0.3999,-0.4885 0.6043,-0.9931 0.7539,-1.5078 0.1279,-0.4375 4e-4,-0.9268 0.023,-1.3867 0.384,0.1988 0.6889,0.4821 1.2188,0.4804 0.897,0 1.7127,-0.4807 2.2578,-1.0273 0.3899,-0.3934 0.5992,-0.9309 0.5781,-1.4844 -0.215,-5.6251 1.2866,-12.2842 -1.2812,-18.8047 -0.045,-0.1183 -0.1014,-0.2321 -0.168,-0.3398 -2.6652,-4.2226 -3.9746,-9.9308 -7.418,-14.9649 -0.038,-0.055 -0.078,-0.1088 -0.1211,-0.1601 -0.9135,-1.0882 -1.5129,-2.7797 -2.1757,-4.6992 -0.5368,-1.5548 -1.4231,-3.1886 -2.5899,-4.6836 0,-0.036 -0.011,-0.063 -0.021,-0.1016 -0.026,-0.1105 -0.1074,-0.3481 -0.1093,-0.3516 0,-0.01 -0.5266,-0.7572 -0.5313,-0.7617 0,0 -0.7822,-0.4277 -0.7891,-0.4297 -0.01,0 -0.455,-0.081 -0.6211,-0.078 -0.1661,0 -0.2925,0.017 -0.3984,0.039 -0.2118,0.044 -0.3361,0.096 -0.4414,0.1406 -0.419,0.1765 -0.5516,0.2926 -0.6875,0.3789 -0.1359,0.086 -0.301,0.1476 0.012,0.031 0.079,-0.03 0.1925,-0.078 0.4414,-0.1 0.023,0 0.055,-1e-4 0.09,0 -0.8855,-0.01 -1.669,0.5726 -1.9258,1.42 -0.03,0.1352 -0.026,0.3763 -0.016,0.6211 h -0.031 c 0,0.044 0.016,0.075 0.02,0.1171 0,0.046 -0.01,0.052 0,0.1036 0.019,0.1037 0.076,0.338 0.078,0.3418 1e-4,10e-5 -3e-4,0.011 0,0.012 0.1751,1.5587 0.4615,2.8415 0.7812,4.2539 -0.812,-0.7679 -1.9359,-1.4716 -3.1172,-1.0391 -1.3607,0.4982 -1.956503,1.7787 -2.105403,2.9766 -0.071,0.5699 0.2259,1.2589 0.3281,1.8828 -0.3699,-2.2599 -0.2078,-4.3274 -1.2188,-6.5508 -0.075,-0.1674 -0.1718,-0.3238 -0.289,-0.4648 -2.666,-3.1548 -6.2825,-7.814 -11.8203,-8.2891 z m -0.1,4.1621 c 3.1134,0.4191 6.0676,3.4965 8.6289,6.5117 2.1487,4.9435 1.7177,11.1303 3.1171,17.3985 0.1404,1.9036 0.2356,3.8537 -0.1132,5.289 -0.3501,1.4392 -0.8578,2.2962 -2.461,2.9063 -0.07,0.022 -0.1395,0.048 -0.207,0.078 -3.2129,1.6461 -7.8175,0.8817 -12.168,-0.043 -2.0861,-0.5356 -4.0492,-0.3228 -5.789,-0.1367 -1.7398,0.186 -3.2818,0.3518 -4.5782,0.1211 -0.093,-0.02 -0.1867,-0.033 -0.2812,-0.039 -1.9319,-0.066 -4.2442,-0.5349 -5.9141,-1.4493 -1.6702,-0.9114 -2.6463,-2.001 -2.7851,-3.8672 -0.012,-0.1649 -0.045,-0.3275 -0.098,-0.4843 -0.7783,-2.3632 -1.7171,-4.9892 -1.8789,-7.1602 -0.1623,-2.171 0.1665,-3.5906 2.0742,-4.8476 0.077,-0.055 0.1502,-0.1147 0.2188,-0.1797 3.728,-3.2892 8.7613,-5.7485 12.9922,-9.6446 3.6113,-1.2724 6.4192,-3.2529 9.2422,-4.4531 z m 19.734303,0.4746 c 0.023,0 0.091,2e-4 0.09,0 -0.01,-0.001 0.7165,0.2731 0.7109,0.2696 -0.01,0 0.6367,0.674 0.6328,0.6679 0,0 0.169,0.3555 0.168,0.3516 -0.001,0 0.063,0.2258 0.078,0.3203 v 0.047 c -0.1401,-0.8586 -0.8192,-1.5283 -1.6797,-1.6563 z m -1.2148,1.3164 c 0.04,0.2835 0.1394,0.5553 0.293,0.7969 l -0.2227,-0.012 c -0.023,-0.068 -0.033,-0.1112 -0.051,-0.1602 -0.019,-0.1015 -0.033,-0.1857 -0.031,-0.2656 -0.011,-0.1563 -0.01,-0.2689 0.012,-0.3594 z m 4.6562,9.7696 c 0.3628,0.7088 0.4529,1.4228 1.0078,2.0839 l -0.121,-0.1601 c 2.8051,4.101 4.1429,9.5784 7.1562,14.5078 1.5449,3.9235 0.9228,8.7333 0.7773,13.5 -0.3122,-0.3513 -0.6525,-0.7802 -1.5195,-0.9219 -1.0026,-0.1652 -2.0565,0.509 -2.4922,1.0938 -0.4357,0.585 -0.661,1.1615 -0.8984,1.9179 0.037,0.1325 0.089,0.2609 0.1523,0.3829 -1.5611,-1.7945 -3.3711,-3.5531 -3.9179,-5.5 -0.096,-0.3384 -0.279,-0.6457 -0.5313,-0.8907 -1.9765,-1.9406 -2.3893,-4.489 -2.7148,-7.707 -0.01,-0.093 -0.027,-0.1862 -0.051,-0.2773 -0.8182,-3.2612 -1.2318,-7.3248 -1.5781,-11.1836 0.6076,1.9378 1.3969,4.0449 3.4023,5.539 1.0375,0.767 2.519,0.3656 3.0274,-0.8203 0.932,-2.2022 0.3207,-4.3404 -0.2657,-6.1797 -0.5861,-1.8391 -1.2359,-3.5487 -1.3203,-4.6875 4e-4,-0.024 4e-4,-0.048 0,-0.072 -0.027,-0.2323 -0.082,-0.3981 -0.1133,-0.625 z m 104.3418,18.7031 -0.01,0.01 h 0.012 z m 0.055,0.016 v 0.027 c -0.021,-0.01 -0.041,-0.016 -0.062,-0.023 -0.1375,0.097 -0.2622,0.2114 -0.3711,0.3399 l -0.027,-0.3243 c -4.449,0.758 -8.7565,2.9721 -11.9844,6.2422 -3.2282,3.2701 -5.3841,7.6947 -5.1445,12.6563 0,0.048 0.01,0.096 0.016,0.1445 0.2529,2.1022 0.6005,3.9586 0.4883,4.5547 -0.056,0.2979 -0.01,0.2079 -0.1563,0.3008 -0.1525,0.092 -0.7431,0.3019 -1.9297,0.2812 -0.1938,0 -0.3872,0.019 -0.5742,0.07 -8.2788,2.371 -16.5688,4.7423 -24.8476,7.1133 -1.5717,0.4457 -1.9752,2.4857 -0.6914,3.4961 6.4389,5.1187 12.8853,10.2329 19.3242,15.3516 0.4922,0.3896 1.1387,0.5256 1.7461,0.3672 4.7338,-1.2449 9.5907,-2.7637 14.0234,-3.7813 0.3985,-0.1019 0.7559,-0.3243 1.0235,-0.6367 0.9257,2.7184 1.6706,5.5922 4.4335,7.2617 0.026,0.016 0.052,0.032 0.078,0.047 4.3866,2.3703 9.3212,2.4861 13.8437,1.2852 4.4683,-1.1862 8.5786,-3.6632 11.8008,-6.6407 7.059,-5.2081 7.7321,-16.4753 0.6875,-22.0742 -0.8559,-1.2095 -1.9295,-2.2084 -3.2148,-2.3359 -0.7265,-0.073 -1.1294,0.3167 -1.6875,0.5312 0.2034,-0.4732 0.2853,-0.8171 0.4921,-1.3203 0.802,-1.9578 1.3672,-4.3144 1.0821,-6.8711 0.7746,-3.5448 -0.3677,-6.9118 -2.4063,-9.4258 -2.0575,-2.5373 -4.8878,-4.3657 -7.6992,-5.4765 -3.0346,-1.5544 -6.0625,-1.0264 -8.2422,-1.1602 z m 0.1016,4.0313 c 2.6458,0.1236 4.8377,-0.1294 6.3594,0.6718 0.072,0.038 0.1464,0.072 0.2226,0.1016 2.2379,0.8652 4.6226,2.4555 6.1602,4.3516 1.5377,1.8962 2.2432,3.9216 1.6836,6.1875 -0.07,0.2758 -0.081,0.5634 -0.031,0.8437 0.3082,1.7018 -0.1533,3.3286 -0.9297,5.2266 -0.777,1.8978 -1.8868,3.955 -2.3281,6.4062 -0.1424,0.808 0.2231,1.621 0.9219,2.0508 0.7564,0.4731 1.7367,0.4229 2.3086,0.2266 0.5719,-0.197 0.9387,-0.4657 1.2734,-0.7149 0.6696,-0.4995 1.2123,-1.0059 1.6758,-1.3281 0.4634,-0.3225 0.7186,-0.3454 0.6562,-0.3516 -0.061,-0.01 0.059,-0.1224 0.5586,0.6993 0.1327,0.2199 0.3064,0.4122 0.5118,0.5664 5.0415,3.7852 4.4463,12.387 -0.5547,16.0156 -0.065,0.047 -0.1281,0.098 -0.1875,0.1523 -2.7702,2.589 -6.4582,4.766 -10.2383,5.7696 -3.7598,0.9981 -7.5344,0.8403 -10.8555,-0.9336 -2.5409,-1.5624 -3.6017,-3.8979 -4.168,-7.1641 l 0.02,0.1602 c -0.1236,-1.4206 -0.2205,-2.3713 -1.0586,-3.3789 -0.4191,-0.5039 -1.3204,-1.0181 -2.2031,-0.9063 -0.8829,0.1121 -1.3977,0.598 -1.7227,1.0039 -0.6504,0.812 -0.8721,1.6502 -0.9922,2.6172 -0.039,0.3242 0.088,0.7152 0.094,1.0625 -3.8382,0.9523 -7.7468,2.0997 -11.5352,3.1211 -5.1636,-4.1048 -10.3325,-8.2116 -15.4961,-12.3164 7.0355,-2.0148 14.0818,-4.032 21.1172,-6.0469 l -0.5898,0.082 c 1.6165,0.029 2.952,-0.1805 4.0742,-0.8632 1.1223,-0.6827 1.8005,-1.9088 2.0039,-2.9883 0.3977,-2.1037 -0.2141,-3.9288 -0.4375,-5.6211 -0.1792,-3.709 1.3863,-7.0157 3.9844,-9.6484 2.5679,-2.6013 6.1625,-4.422 9.7031,-5.0547 z m -61.7305,18.4746 c 0.6395,0.479 1.226,0.9599 1.6172,2.1601 0.3603,1.1055 0.6238,2.4961 0.9219,3.836 -0.9143,0.6082 -2.1608,1.321 -3.3008,1.3125 -0.7145,0 -1.2132,-0.1959 -1.4688,-0.4024 -0.2556,-0.2043 -0.4646,-0.4262 -0.496,-1.2617 -0.012,-0.3484 -0.1138,-0.6877 -0.2969,-0.9844 -0.8609,-1.3619 -0.6343,-1.7775 0.074,-2.6758 0.5732,-0.7259 1.8021,-1.4048 2.9492,-1.9843 z m -11.9375,2.7383 v 0 l -0.086,0.027 c 0.6774,-0.1677 0.7088,-0.086 0.8281,0 0.1195,0.082 0.3877,0.4285 0.6367,1.0664 0.4981,1.2751 0.7,3.3498 1.625,5.2461 0.027,0.055 0.058,0.1082 0.09,0.1602 0.4259,0.7024 0.3086,0.593 0.1484,0.8086 -0.1603,0.2155 -0.7943,0.6351 -1.5977,0.7968 -0.803,0.1621 -1.6993,0.066 -2.1875,-0.1562 -0.4885,-0.2226 -0.596,-0.2987 -0.6328,-0.875 0,-0.044 -0.01,-0.089 -0.016,-0.1328 -0.2928,-2.2146 -1.477,-4.1065 -1.8203,-5.4024 -0.1711,-0.6481 -0.071,-0.9321 -0.1172,-0.8398 -0.048,0.092 -0.1851,-0.014 0.6758,-0.1289 0.1563,-0.02 0.3097,-0.058 0.457,-0.1133 0.2458,-0.096 0.9827,-0.1576 2,-0.4609 z m -12.793,1.8046 c 1.4719,-0.074 2.2607,0.6303 3.1407,2.2344 0.8922,1.6261 1.4623,3.9577 1.8242,5.7891 0.094,0.5673 0.016,0.7768 -0.1445,1.0195 -0.1641,0.2502 -0.527,0.5671 -1.1211,0.8594 -1.1887,0.5838 -3.1101,0.9483 -4.6602,1.2344 -0.1198,0.021 -0.2375,0.052 -0.3516,0.094 -0.8651,0.3316 -0.906,0.1748 -0.8085,0.2344 0.098,0.057 -0.075,-0.06 -0.2344,-0.6445 -0.32,-1.1742 -0.2234,-3.3612 -1.1406,-5.4454 -0.5527,-1.2486 -0.9114,-2.9498 -0.7852,-3.7812 0.062,-0.416 0.1662,-0.5446 0.2812,-0.6406 0.1149,-0.096 0.388,-0.27 1.2071,-0.2539 0.1585,0.01 0.3172,-0.01 0.4726,-0.039 0.8962,-0.2011 1.6326,-0.4591 2.3203,-0.6602 z m 18.0235,1.2579 c 0.01,0.2746 0.2612,0.4115 0.3047,0.6757 0.063,0.1143 -0.082,0.2098 0,0.3243 z m -29.8789,2.3261 c 1.2812,2.6962 2.0879,5.9076 2.8594,9.2403 -0.017,0.084 -0.015,0.2006 -0.098,0.2636 -0.1331,0.1016 -0.5854,0.2974 -1.2617,0.4082 -1.3529,0.2216 -3.2961,0.074 -5.2149,0.6368 l 0.2188,-0.064 c -0.8009,0.1403 -0.7294,0.035 -0.7383,0.027 -0.01,-0.01 -0.2142,-0.3433 -0.3125,-1.0429 -0.1632,-1.1676 -0.1226,-3.0167 -0.4531,-4.8203 0.23,-1.0861 1.1198,-2.5045 2.3476,-3.5391 0.8621,-0.7262 1.7691,-0.8787 2.6524,-1.1094 z m 31.1328,0.3848 c 0.2986,0.4792 0.2997,1.1856 0.7226,1.5234 0.021,0.017 0.045,-3e-4 0.059,0.016 -0.3331,0.1765 -0.5505,0.3845 -0.8007,0.6015 0.149,-0.7211 0.2112,-1.3792 0.02,-2.1406 z m -10.375,3.4121 c 0.4566,0.7218 0.7065,1.5796 1.3867,1.9805 -0.5634,0 -1.1957,0.1578 -1.8398,0.3437 0.2138,-0.7654 0.5849,-1.4787 0.4531,-2.3242 z m 12.9141,1.5469 c -0.024,0.013 -0.1175,-0.1365 0.5195,0.289 0.3085,0.2062 0.6682,0.3225 1.039,0.336 0.7583,0.024 1.5989,-0.393 2.4141,-0.5 -1.9536,0.5849 -3.9096,1.1691 -5.8633,1.7539 0.3939,-0.4147 0.8785,-0.8644 1.1485,-1.1719 0.4628,-0.5272 0.7706,-0.7163 0.7422,-0.707 z m -47.4024,0.6914 c 0.038,0.051 0.078,0.1009 0.1211,0.1484 0.7972,0.059 1.3197,0.4127 1.8203,1.1485 0.5005,0.7359 0.8387,1.845 0.8594,2.9101 0.02,1.0649 -0.2859,2.0436 -0.6914,2.582 -0.4076,0.5378 -0.7772,0.7992 -1.8047,0.7227 -0.1832,-0.012 -0.3673,0.001 -0.5469,0.039 -0.7567,0.1551 -1.0718,0.046 -1.3906,-0.1524 -0.318503,-0.1991 -0.676503,-0.605 -0.980503,-1.2539 -0.5259,-1.1212 -0.6777,-2.8204 -0.7226,-4.2109 0.5162,-0.5562 1.0424,-1.1641 1.4375,-1.4258 0.566003,-0.375 0.961703,-0.52 1.882803,-0.3867 z m 56.207,2.1621 v 0.01 c 2.3847,1.8261 4.7678,3.662 7.1524,5.4882 0.084,0.059 0.1732,0.1111 0.2656,0.1563 1.3332,0.7238 2.871,2.3367 4.7031,3.8047 1.8321,1.468 4.3381,2.8623 7.2852,2.164 l -0.543,0.053 c 2.739,0.1264 5.691,1.0019 7.9844,2.5195 2.2935,1.5175 3.8977,3.57 4.3594,6.2305 0.022,0.1212 0.054,0.2402 0.098,0.3554 0.6214,1.68 0.2675,3.1631 -0.7343,4.6016 -1.0032,1.4383 -2.7144,2.6649 -4.375,3.207 -0.029,0.01 -0.057,0.018 -0.086,0.027 -0.8049,0.3026 -2.5387,0.4873 -3.7617,0.2578 -0.6118,-0.1139 -1.0881,-0.3293 -1.3086,-0.4961 -0.1297,-0.098 -0.1092,-0.1586 -0.1367,-0.2188 0.4222,-0.8045 0.964,-1.6028 0.9609,-2.4218 -0.01,-1.2466 -0.7843,-2.6324 -2.0742,-3.0508 -1.29,-0.4187 -2.6373,0.1632 -3.4375,1.0898 -0.553,0.6403 -0.6876,1.6232 -0.8828,2.5547 -2.5226,3.0731 -6.6237,5.8675 -10.3477,5.582 -0.2125,-0.016 -0.4261,0 -0.6328,0.055 -4.756,1.1792 -9.3957,-5.222 -6.4492,-9.25 l -0.6094,0.5586 c 1.2201,-0.7113 2.1066,-1.6911 2.6563,-2.6914 0.5498,-1.0002 0.8398,-1.9987 0.6562,-3.1406 -0.091,-0.5708 -0.3454,-1.2449 -0.9922,-1.7695 -0.6465,-0.5248 -1.6103,-0.6707 -2.2968,-0.5078 -0.625,0.1477 -0.9629,0.7604 -1.4141,1.1171 -4.3412,-3.7361 -8.6821,-7.4709 -13.0234,-11.207 5.6596,-1.6941 11.3248,-3.3801 16.9843,-5.0742 z m -14.3945,1.0215 -0.8086,0.1758 c 0.1564,0 0.2276,-0.1232 0.3789,-0.1368 0.1729,-0.063 0.2542,0.041 0.4297,-0.039 z m -52.605503,0.3242 c 0.4881,0.3421 0.988,0.8881 1.2579,2.0312 0.2164,0.9161 0.1002,1.8244 0.031,2.7149 -1.1891,0.3753 -2.6905,0.4482 -3.9219,-0.4727 -0.7408,-0.5559 -1.2603,-1.2615 -1.4492,-1.8828 -0.1358,-0.4457 0.052,-0.9121 0.2266,-1.3906 1.0333,-0.3524 2.3865,-0.6418 3.8515,-0.9961 z m 48.398503,0.047 c -0.5713,0.1709 -1.1436,0.3447 -1.7149,0.5156 -0.1939,-0.027 -0.4867,-0.064 -0.4882,-0.064 0,1e-4 -0.4566,0.097 -0.6055,0.1289 0.067,-0.061 0.1773,-0.3015 0.2344,-0.33 0.1605,-0.082 0.4871,-0.1451 1.0898,-0.1211 0.3139,0.013 1.0445,-0.1655 1.4844,-0.1289 z m -17.2539,0.1758 c 0.089,0.1529 0.1776,0.2912 0.289,0.4375 -0.2051,0.032 -0.4041,0.095 -0.5898,0.1875 0.079,-0.2316 0.2568,-0.3813 0.3008,-0.625 z m 15.1562,0.4492 c -0.3092,0.092 -0.6169,0.1887 -0.9258,0.2812 -0.051,0.052 -0.099,0.1068 -0.1445,0.1641 0.098,-0.1967 0.1444,-0.2004 0.2188,-0.3008 0.056,-0.024 0.146,-0.074 0.1445,-0.074 -0.01,0 0.4232,-0.042 0.707,-0.07 z m -1.3398,0.7246 c -0.069,0.068 -0.1329,0.14 -0.1914,0.2168 v -0.031 c 0.068,-0.058 0.1318,-0.1195 0.1914,-0.1855 z m -27.9649,1.2851 c 0.1457,0.2749 0.1338,0.5638 0.3516,0.8203 -0.2871,0.044 -0.4368,0.2118 -0.6875,0.3047 0.1398,-0.3738 0.2536,-0.7355 0.3359,-1.125 z m 14.2774,1.6446 c 0.7844,0.2191 1.5171,0.057 2.289,0.094 -1.6386,0.4803 -3.2831,0.9493 -4.9218,1.4297 0.9444,-0.3767 1.8308,-0.7783 2.6328,-1.5234 z m -26.093803,0.7304 c 0.1959,0.3219 0.4725,0.5921 0.7227,0.8868 -0.252,-0.01 -0.4545,-0.097 -0.7227,-0.059 0.037,-0.2613 -0.023,-0.5567 0,-0.8282 z m 35.160203,1.5391 v 0 c -1.7807,5.3426 -3.5554,10.6807 -5.3359,16.0234 -0.01,0.03 -0.013,0.057 -0.031,0.086 -0.5794,1.1289 -1.0262,2.0588 -1.207,2.9883 -0.1026,0.5103 -0.14,1.0635 0.016,1.6679 0.1546,0.6044 0.5708,1.2265 1.0469,1.5938 0.9525,0.7346 1.8172,0.7517 2.6406,0.8086 0.5066,0.034 1.0752,0.036 1.625,0.047 0.894,0.9075 1.5608,2.1891 1.5977,3.7227 0.041,1.6897 -0.5508,3.3892 -1.504,4.3984 -1.5036,1.4897 -3.3327,3.2702 -5.0664,4.2227 -1.5064,0.8276 -2.647,0.9458 -3.9414,0.3086 -0.2375,-2.1149 -1.1373,-3.8899 -2.9961,-4.4141 -0.5952,-0.1676 -1.3388,-0.1972 -2.0468,0.1367 -0.7079,0.3317 -1.2484,1.0144 -1.4805,1.6797 -0.3257,0.9348 0.045,1.9113 0.3164,2.8907 -0.8161,2.9699 -3.7674,6.0983 -6.8477,6.375 -4.1426,-0.1833 -6.8866,-3.7917 -7.4414,-7.9493 0.8381,-3.7392 3.6498,-7.5363 7.1016,-8.6093 0.9327,-0.1339 1.8472,-0.3323 2.6328,-0.6094 0.895,-0.3153 1.638,-0.6089 2.3672,-1.3242 0.3647,-0.3578 0.8707,-0.9554 0.8242,-1.9493 -0.046,-0.9938 -0.796,-1.7344 -1.332,-2.0273 -0.2696,-0.1472 -0.6121,-0.078 -0.875,-0.1602 1.754,-5.2041 3.5,-10.4051 5.2539,-15.6093 4.8901,-1.4338 9.7898,-2.863 14.6797,-4.2969 z m -29.3242,1.3125 c 0.1236,-0.017 0.2154,0.076 0.3398,0.051 l -0.543,0.039 c 0.085,0.01 0.1184,-0.093 0.2032,-0.09 z m -8.859403,0.062 c 0.01,-10e-4 0.01,0.001 0.016,0 -0.1298,0.1817 -0.3716,0.1921 -0.4805,0.3906 z m -30.8711,2.7344 v 0 c 2.893,0.285 5.2908,1.0533 7.1094,2.9648 0.047,0.051 0.096,0.099 0.1484,0.1446 1.7907,1.513 1.892,4.7119 2.7461,7.7773 0.2962,1.063 1.3974,1.6853 2.4609,1.3906 l 26.336003,-7.4179 c -1.972003,5.8844 -3.946003,11.7716 -5.918003,17.6562 -0.49,0.7096 -1.5813,1.2356 -3.3516,1.6367 -1.808,0.4096 -4.0342,0.6297 -6.1015,1.6406 l 0.8242,-0.207 c -2.3989,0.079 -4.3225,1.2359 -5.8906,1.8008 -0.7837,0.2822 -1.4431,0.4232 -1.8242,0.4141 -0.3805,-0.012 -0.4657,-0.028 -0.7579,-0.3399 -0.024,-0.021 -0.049,-0.042 -0.074,-0.062 -1.1313,-1.0956 -1.8797,-1.9007 -3.4883,-1.8867 -0.8042,0.01 -1.821,0.63 -2.1914,1.3359 -0.3701,0.7056 -0.3662,1.2916 -0.3086,1.8047 0.1158,1.0264 0.5275,1.9197 1.1563,2.8008 0.6288,0.8811 1.5118,1.7319 2.7227,2.2305 l -0.6094,-0.4063 c 1.1352,1.068 1.5174,2.7034 1.3047,4.7188 -0.2099,2.0157 -1.0947,4.2456 -2.086,5.7812 -0.031,0.048 -0.059,0.098 -0.086,0.1485 -1.168,2.1881 -3.1192,3.3955 -5.5586,3.9765 -2.4394,0.581 -5.2942,0.4214 -7.6953,-0.2383 -4.5044,-1.2513 -9.2531,-3.7421 -11.0274,-7.457 -0.036,-0.071 -0.077,-0.1405 -0.1211,-0.207 -2.1981,-3.4888 -0.9405,-7.9263 1.5157,-11.543 0.1114,-0.1131 0.6143,-0.6006 1.2383,-1.1445 0.6666,-0.5812 1.4292,-1.2498 2.0898,-1.9531 0.3305,-0.3517 0.6362,-0.7022 0.9102,-1.1368 0.2737,-0.435 0.6183,-0.9695 0.5468,-1.9023 -0.072,-0.9326 -0.9807,-1.8941 -1.6914,-2.1563 -0.7108,-0.2619 -1.3014,-0.2567 -1.9961,-0.2148 -0.6791,0.04 -1.2913,0.4227 -1.625,1.0156 -0.956,1.6956 -3.1267,1.4117 -3.8281,-0.332 -0.048,-0.1284 -0.11,-0.2514 -0.1836,-0.3672 -2.5079,-3.7803 -1.9901,-8.4934 0.4688,-12.3828 3.8401,-4.483 9.0425,-7.7485 14.8359,-7.8867 z m 44.648403,17.039 c 0,0.1839 0.03,0.3666 0.082,0.543 l -0.1211,-0.25 c 10e-4,-0.038 -1e-4,-0.082 0.023,-0.2344 0,-0.015 0.01,-0.037 0.016,-0.059 z m -52.453103,5.8985 -1.3594,0.8515 c -0.021,-0.017 -0.042,-0.081 -0.074,-0.1015 0.4237,-0.3953 1.1233,-0.1998 1.4336,-0.75 z"  />
</svg>
