<?xml version="1.0" encoding="UTF-8" standalone="no"?>
<svg viewBox="0 0 38.187756 37.669037" xmlns="http://www.w3.org/2000/svg">
<path d="m 17.554885,0.00927893 c -0.84872,0.0878 -1.54833,0.7042301 -1.74218,1.53516007 l -2.62891,11.26563 -11.4414096,1.44531 c -1.87218003,0.24496 -2.39366003,2.70895 -0.78125003,3.6914 l 9.90624963,5.98047 -2.1718696,11.35157 c -0.36427,1.86889 1.8418696,3.14157 3.2773396,1.89062 l 8.72657,-7.55859 10.097651,5.57812 c 1.65725,0.90365 3.52883,-0.78025 2.80469,-2.52344 l -4.48828,-10.6289 8.42969,-7.89844 c 1.3993,-1.29988 0.35478,-3.63421 -1.54688,-3.45703 l -11.531251,0.97656 -4.90234,-10.49609 c -0.35641,-0.77175007 -1.16167,-1.23392007 -2.00782,-1.15235007 z m 0.8379,8.07227007 3.04296,6.52734 c 0.35244,0.76022 1.14138,1.22018 1.97657,1.15235 l 7.191401,-0.60547 -5.242181,4.91406 c -0.60735,0.57213 -0.79575,1.46117 -0.47266,2.23047 l 2.777341,6.59766 -6.246091,-3.45313 c -0.73223,-0.40515 -1.63927,-0.31164 -2.27344,0.23438 l -5.44336,4.69531 1.35352,-7.05469 c 0.16219,-0.82469 -0.20849,-1.66281 -0.92774,-2.09766 l -6.1718696,-3.71875 7.0996096,-0.90234 c 0.82785,-0.10262 1.50509,-0.70824 1.69922,-1.51953 z" />
</svg>
