<?xml version="1.0" encoding="UTF-8" standalone="no"?>
<svg viewBox="0 0 179.99796 172.9351" xmlns="http://www.w3.org/2000/svg">
<path d="M 89.8926,0 69.2812,66.0821 0,66.1721 10.5312,73.7463 h 8.293 l -3.9961,-2.8711 57.8281,-0.072 17.1973,-55.1543 17.9336,55.1386 57.27341,-0.1503 -21.5,15.8046 h 8.4844 l 27.95305,-20.5586 -68.61316,0.254 z M 15.6875,76.6387 c -0.6414,0 -1.1602,0.5149 -1.1602,1.1563 v 4.2461 c 0,0.6413 0.5188,1.1562 1.1602,1.1562 h 3.8594 c 0.6414,0 1.1562,-0.5149 1.1562,-1.1562 V 77.795 c 0,-0.6414 -0.5148,-1.1563 -1.1562,-1.1563 z m 12.9922,0 c -0.6414,0 -1.1602,0.5149 -1.1602,1.1563 v 4.2461 c 0,0.6413 0.5188,1.1562 1.1602,1.1562 h 3.8594 c 0.6414,0 1.1562,-0.5149 1.1562,-1.1562 V 77.795 c 0,-0.6414 -0.5148,-1.1563 -1.1562,-1.1563 z m 6.9023,0 c -0.6414,0 -1.1562,0.5149 -1.1562,1.1563 v 4.2461 c 0,0.6413 0.5148,1.1562 1.1562,1.1562 h 3.8594 c 0.6414,0 1.1563,-0.5149 1.1563,-1.1562 V 77.795 c 0,-0.6414 -0.5149,-1.1563 -1.1563,-1.1563 z m 6.9024,0 c -0.6414,0 -1.1563,0.5149 -1.1563,1.1563 v 4.2461 c 0,0.6413 0.5149,1.1562 1.1563,1.1562 h 3.8593 c 0.6413,0 1.1602,-0.5149 1.1602,-1.1562 V 77.795 c 0,-0.6414 -0.5189,-1.1563 -1.1602,-1.1563 z m 6.9062,0 c -0.6414,0 -1.1601,0.5149 -1.1601,1.1563 v 4.2461 c 0,0.6413 0.5187,1.1562 1.1601,1.1562 h 3.8555 c 0.6413,0 1.1601,-0.5149 1.1601,-1.1562 V 77.795 c 0,-0.6414 -0.5188,-1.1563 -1.1601,-1.1563 z m 9.0664,0 c -0.6414,0 -1.1562,0.5149 -1.1562,1.1563 v 4.2461 c 0,0.6413 0.5148,1.1562 1.1562,1.1562 h 3.8594 c 0.6414,0 1.1563,-0.5149 1.1563,-1.1562 V 77.795 c 0,-0.6414 -0.5149,-1.1563 -1.1563,-1.1563 z m 6.9024,0 c -0.6414,0 -1.1563,0.5149 -1.1563,1.1563 v 4.2461 c 0,0.6413 0.5149,1.1562 1.1563,1.1562 h 3.8593 c 0.6414,0 1.1602,-0.5149 1.1602,-1.1562 V 77.795 c 0,-0.6414 -0.5188,-1.1563 -1.1602,-1.1563 z m 6.9062,0 c -0.6414,0 -1.1601,0.5149 -1.1601,1.1563 v 4.2461 c 0,0.6413 0.5187,1.1562 1.1601,1.1562 h 3.8594 c 0.6413,0 1.1562,-0.5149 1.1562,-1.1562 V 77.795 c 0,-0.6414 -0.5149,-1.1563 -1.1562,-1.1563 z m 6.9024,0 c -0.6414,0 -1.1563,0.5149 -1.1563,1.1563 v 4.2461 c 0,0.6413 0.5149,1.1562 1.1563,1.1562 h 3.8593 c 0.6413,0 1.1563,-0.5149 1.1563,-1.1562 V 77.795 c 0,-0.6414 -0.5149,-1.1563 -1.1563,-1.1563 z m 9.3906,0 c -0.6414,0 -1.1563,0.5149 -1.1563,1.1563 v 4.2461 c 0,0.6413 0.5149,1.1562 1.1563,1.1562 h 3.8594 c 0.6414,0 1.1562,-0.5149 1.1562,-1.1562 V 77.795 c 0,-0.6414 -0.5148,-1.1563 -1.1562,-1.1563 z m 6.9023,0 c -0.6414,0 -1.1562,0.5149 -1.1562,1.1563 v 4.2461 c 0,0.6413 0.5148,1.1562 1.1562,1.1562 h 3.8594 c 0.6414,0 1.1602,-0.5149 1.1602,-1.1562 V 77.795 c 0,-0.6414 -0.5188,-1.1563 -1.1602,-1.1563 z m 6.9063,0 c -0.6414,0 -1.1602,0.5149 -1.1602,1.1563 v 4.2461 c 0,0.6413 0.5188,1.1562 1.1602,1.1562 h 3.8555 c 0.6413,0 1.1601,-0.5149 1.1601,-1.1562 V 77.795 c 0,-0.6414 -0.5188,-1.1563 -1.1601,-1.1563 z m 6.9023,0 c -0.6414,0 -1.1601,0.5149 -1.1601,1.1563 v 4.2461 c 0,0.6413 0.5187,1.1562 1.1601,1.1562 h 3.8594 c 0.6413,0 1.1563,-0.5149 1.1563,-1.1562 V 77.795 c 0,-0.6414 -0.5149,-1.1563 -1.1563,-1.1563 z m 9.2617,0 c -0.6414,0 -1.1601,0.5149 -1.1601,1.1563 v 4.2461 c 0,0.6413 0.5187,1.1562 1.1601,1.1562 h 3.8594 c 0.6414,0 1.1563,-0.5149 1.1563,-1.1562 V 77.795 c 0,-0.6414 -0.5149,-1.1563 -1.1563,-1.1563 z m 6.9024,0 c -0.6414,0 -1.1563,0.5149 -1.1563,1.1563 v 4.2461 c 0,0.6413 0.5149,1.1562 1.1563,1.1562 h 3.85941 c 0.6414,0 1.1562,-0.5149 1.1562,-1.1562 V 77.795 c 0,-0.6414 -0.5148,-1.1563 -1.1562,-1.1563 z m 6.90231,0 c -0.6414,0 -1.1562,0.5149 -1.1562,1.1563 v 4.2461 c 0,0.6413 0.5148,1.1562 1.1562,1.1562 h 3.8594 c 0.6413,0 1.1602,-0.5149 1.1602,-1.1562 V 77.795 c 0,-0.6414 -0.5189,-1.1563 -1.1602,-1.1563 z m 16.2032,13.2422 c -0.6036,0 -1.0899,0.4862 -1.0899,1.0898 v 3.9961 c 0,0.6037 0.4863,1.0899 1.0899,1.0899 h 3.6796 c 0.6037,0 1.0899,-0.4863 1.0899,-1.0899 v -3.9961 c 0,-0.6037 -0.4862,-1.0898 -1.0899,-1.0898 z m 6.4726,0 c -0.6037,0 -1.0898,0.4862 -1.0898,1.0898 v 3.9961 c 0,0.6037 0.4861,1.0899 1.0898,1.0899 h 3.6797 c 0.6037,0 1.0898,-0.4863 1.0898,-1.0899 v -3.9961 c 0,-0.6037 -0.4861,-1.0898 -1.0898,-1.0898 z m -36.31251,0.031 c -0.6037,0 -1.0898,0.4863 -1.0898,1.0899 v 3.7461 c 0,0.6037 0.4861,1.0898 1.0898,1.0898 h 3.6758 c 0.6037,0 1.0898,-0.4862 1.0898,-1.0898 v -3.7461 c 0,-0.6037 -0.4861,-1.0899 -1.0898,-1.0899 z m 6.5469,0 c -0.6037,0 -1.0899,0.4863 -1.0899,1.0899 v 3.7461 c 0,0.6037 0.4863,1.0898 1.0899,1.0898 h 3.67581 c 0.6036,0 1.0898,-0.4862 1.0898,-1.0898 v -3.7461 c 0,-0.6037 -0.4862,-1.0899 -1.0898,-1.0899 z m 6.48441,0 c -0.6036,0 -1.0899,0.4863 -1.0899,1.0899 v 3.7461 c 0,0.6037 0.4863,1.0898 1.0899,1.0898 h 3.6757 c 0.6037,0 1.0899,-0.4862 1.0899,-1.0898 v -3.7461 c 0,-0.6037 -0.4863,-1.0899 -1.0899,-1.0899 z m 10.3359,0 c -0.6036,0 -1.0898,0.4863 -1.0898,1.0899 v 3.9961 c 0,0.6037 0.4862,1.0898 1.0898,1.0898 h 3.6797 c 0.6037,0 1.0898,-0.4862 1.0898,-1.0898 v -3.9961 c 0,-0.6037 -0.4862,-1.0899 -1.0898,-1.0899 z m 19.6367,0 c -0.5906,0 -1.0664,0.4759 -1.0664,1.0665 v 3.9648 c 0,0.5906 0.4759,1.0625 1.0664,1.0625 h 3.6016 c 0.5906,0 1.0664,-0.4719 1.0664,-1.0625 v -3.9648 c 0,-0.5906 -0.4759,-1.0665 -1.0664,-1.0665 z m -59.16401,0.01 c -0.6037,0 -1.0899,0.4863 -1.0899,1.0899 v 3.7265 c 0,0.6036 0.4862,1.0899 1.0899,1.0899 h 9.4687 c 0.6036,0 1.0899,-0.4863 1.0899,-1.0899 v -3.7265 c 0,-0.6037 -0.4863,-1.0899 -1.0899,-1.0899 z m -86.7618,0.031 c -0.6037,0 -1.0898,0.4862 -1.0898,1.0898 v 3.707 c 0,0.6037 0.4862,1.0899 1.0898,1.0899 h 3.6758 c 0.6036,0 1.0899,-0.4862 1.0899,-1.0899 v -3.707 c 0,-0.6037 -0.4863,-1.0898 -1.0899,-1.0898 z m 6.8633,0.031 c -0.5745,0 -1.039,0.4606 -1.039,1.0352 v 3.8047 c 0,0.5746 0.4645,1.039 1.039,1.039 h 3.4571 c 0.5745,0 1.0351,-0.4644 1.0351,-1.039 v -3.8047 c 0,-0.5746 -0.4606,-1.0352 -1.0351,-1.0352 z m 6.6563,0 c -0.5746,0 -1.0352,0.4606 -1.0352,1.0352 v 3.8047 c 0,0.5746 0.4606,1.039 1.0352,1.039 h 3.457 c 0.5745,0 1.0391,-0.4644 1.0391,-1.039 v -3.8047 c 0,-0.5746 -0.4646,-1.0352 -1.0391,-1.0352 z m 6.6562,0 c -0.5746,0 -1.0351,0.4606 -1.0351,1.0352 v 3.8047 c 0,0.5746 0.4605,1.039 1.0351,1.039 h 3.4571 c 0.5746,0 1.039,-0.4644 1.039,-1.039 v -3.8047 c 0,-0.5746 -0.4645,-1.0352 -1.039,-1.0352 z m 6.6563,0 c -0.5746,0 -1.0352,0.4606 -1.0352,1.0352 v 3.8047 c 0,0.5746 0.4606,1.039 1.0352,1.039 h 3.457 c 0.5746,0 1.0391,-0.4644 1.0391,-1.039 v -3.8047 c 0,-0.5746 -0.4645,-1.0352 -1.0391,-1.0352 z m 6.6601,0 c -0.5745,0 -1.039,0.4606 -1.039,1.0352 v 3.8047 c 0,0.5746 0.4645,1.039 1.039,1.039 h 3.4571 c 0.5746,0 1.0351,-0.4644 1.0351,-1.039 v -3.8047 c 0,-0.5746 -0.4605,-1.0352 -1.0351,-1.0352 z m 6.6563,0 c -0.5745,0 -1.0391,0.4606 -1.0391,1.0352 v 3.8047 c 0,0.5746 0.4646,1.039 1.0391,1.039 h 3.457 c 0.5746,0 1.0352,-0.4644 1.0352,-1.039 v -3.8047 c 0,-0.5746 -0.4606,-1.0352 -1.0352,-1.0352 z m 6.6562,0 c -0.5746,0 -1.039,0.4606 -1.039,1.0352 v 3.8047 c 0,0.5746 0.4644,1.039 1.039,1.039 h 3.4571 c 0.5745,0 1.039,-0.4644 1.039,-1.039 v -3.8047 c 0,-0.5746 -0.4645,-1.0352 -1.039,-1.0352 z m 6.6563,0 c -0.5746,0 -1.0352,0.4606 -1.0352,1.0352 v 3.8047 c 0,0.5746 0.4606,1.039 1.0352,1.039 h 3.457 c 0.5745,0 1.0391,-0.4644 1.0391,-1.039 v -3.8047 c 0,-0.5746 -0.4646,-1.0352 -1.0391,-1.0352 z m 6.6562,0 c -0.5746,0 -1.0351,0.4606 -1.0351,1.0352 v 3.8047 c 0,0.5746 0.4605,1.039 1.0351,1.039 h 3.4571 c 0.5746,0 1.039,-0.4644 1.039,-1.039 v -3.8047 c 0,-0.5746 -0.4644,-1.0352 -1.039,-1.0352 z m 6.6563,0 c -0.5746,0 -1.0352,0.4606 -1.0352,1.0352 v 3.8047 c 0,0.5746 0.4606,1.039 1.0352,1.039 h 3.4609 c 0.5746,0 1.0352,-0.4644 1.0352,-1.039 v -3.8047 c 0,-0.5746 -0.4606,-1.0352 -1.0352,-1.0352 z m 6.6601,0 c -0.5745,0 -1.039,0.4606 -1.039,1.0352 v 3.8047 c 0,0.5746 0.4645,1.039 1.039,1.039 h 3.4571 c 0.5746,0 1.0351,-0.4644 1.0351,-1.039 v -3.8047 c 0,-0.5746 -0.4605,-1.0352 -1.0351,-1.0352 z m 6.6563,0 c -0.5745,0 -1.0391,0.4606 -1.0391,1.0352 v 3.8047 c 0,0.5746 0.4646,1.039 1.0391,1.039 h 3.457 c 0.5745,0 1.0352,-0.4644 1.0352,-1.039 v -3.8047 c 0,-0.5746 -0.4607,-1.0352 -1.0352,-1.0352 z m 65.92191,6.4649 c -0.6037,0 -1.0899,0.4862 -1.0899,1.0898 v 10.6211 c 0,0.6037 0.4862,1.0898 1.0899,1.0898 h 3.4843 c 0.6037,0 1.0899,-0.4862 1.0899,-1.0898 V 97.5386 c 0,-0.6037 -0.4862,-1.0898 -1.0899,-1.0898 z m -13.2383,0.047 c -0.6037,0 -1.0899,0.4863 -1.0899,1.0899 v 3.9961 c 0,0.6037 0.4862,1.0898 1.0899,1.0898 h 3.6758 c 0.6037,0 1.0898,-0.4862 1.0898,-1.0898 v -3.9961 c 0,-0.6037 -0.4861,-1.0899 -1.0898,-1.0899 z m 6.4844,0 c -0.6037,0 -1.0899,0.4863 -1.0899,1.0899 v 3.9961 c 0,0.6037 0.4863,1.0898 1.0899,1.0898 h 3.6757 c 0.6036,0 1.0899,-0.4862 1.0899,-1.0898 v -3.9961 c 0,-0.6037 -0.4863,-1.0899 -1.0899,-1.0899 z m -12.9688,0.022 c -0.6036,0 -1.0898,0.4863 -1.0898,1.0899 v 3.9961 c 0,0.6036 0.4862,1.0898 1.0898,1.0898 h 3.6797 c 0.6037,0 1.0898,-0.4863 1.0898,-1.0898 v -3.9961 c 0,-0.6037 -0.4862,-1.0899 -1.0898,-1.0899 z M 15.7461,96.6428 c -0.6037,0 -1.0899,0.4863 -1.0899,1.0899 v 3.6875 c 0,0.6037 0.4862,1.0898 1.0899,1.0898 h 6.75 c 0.6037,0 1.0898,-0.4861 1.0898,-1.0898 v -3.6875 c 0,-0.6036 -0.4861,-1.0899 -1.0898,-1.0899 z m 16.75,0 c -0.5746,0 -1.0352,0.4645 -1.0352,1.0391 v 3.8008 c 0,0.5746 0.4606,1.039 1.0352,1.039 h 3.457 c 0.5746,0 1.0391,-0.4644 1.0391,-1.039 v -3.8008 c 0,-0.5746 -0.4646,-1.0391 -1.0391,-1.0391 z m 6.6562,0 c -0.5746,0 -1.0351,0.4645 -1.0351,1.0391 v 3.8008 c 0,0.5746 0.4605,1.039 1.0351,1.039 h 3.4571 c 0.5746,0 1.039,-0.4644 1.039,-1.039 v -3.8008 c 0,-0.5746 -0.4644,-1.0391 -1.039,-1.0391 z m 6.6602,0 c -0.5746,0 -1.0391,0.4645 -1.0391,1.0391 v 3.8008 c 0,0.5746 0.4645,1.039 1.0391,1.039 h 3.457 c 0.5746,0 1.0352,-0.4644 1.0352,-1.039 v -3.8008 c 0,-0.5746 -0.4606,-1.0391 -1.0352,-1.0391 z m 6.6562,0 c -0.5745,0 -1.039,0.4645 -1.039,1.0391 v 3.8008 c 0,0.5746 0.4645,1.039 1.039,1.039 h 3.4571 c 0.5746,0 1.0351,-0.4644 1.0351,-1.039 v -3.8008 c 0,-0.5746 -0.4605,-1.0391 -1.0351,-1.0391 z m 6.6563,0 c -0.5745,0 -1.0391,0.4645 -1.0391,1.0391 v 3.8008 c 0,0.5746 0.4646,1.039 1.0391,1.039 h 3.457 c 0.5745,0 1.0352,-0.4644 1.0352,-1.039 v -3.8008 c 0,-0.5746 -0.4607,-1.0391 -1.0352,-1.0391 z m 6.6562,0 c -0.5746,0 -1.0351,0.4645 -1.0351,1.0391 v 3.8008 c 0,0.5746 0.4605,1.039 1.0351,1.039 h 3.4571 c 0.5745,0 1.039,-0.4644 1.039,-1.039 v -3.8008 c 0,-0.5746 -0.4645,-1.0391 -1.039,-1.0391 z m 6.6563,0 c -0.5746,0 -1.0352,0.4645 -1.0352,1.0391 v 3.8008 c 0,0.5746 0.4606,1.039 1.0352,1.039 h 3.457 c 0.5745,0 1.0391,-0.4644 1.0391,-1.039 v -3.8008 c 0,-0.5746 -0.4646,-1.0391 -1.0391,-1.0391 z m 6.6562,0 c -0.5746,0 -1.0351,0.4645 -1.0351,1.0391 v 3.8008 c 0,0.5746 0.4605,1.039 1.0351,1.039 h 3.461 c 0.5746,0 1.0351,-0.4644 1.0351,-1.039 v -3.8008 c 0,-0.5746 -0.4605,-1.0391 -1.0351,-1.0391 z m 6.6602,0 c -0.5746,0 -1.0391,0.4645 -1.0391,1.0391 v 3.8008 c 0,0.5746 0.4646,1.039 1.0391,1.039 h 3.457 c 0.5746,0 1.0352,-0.4644 1.0352,-1.039 v -3.8008 c 0,-0.5746 -0.4606,-1.0391 -1.0352,-1.0391 z m 6.6563,0 c -0.5745,0 -1.0391,0.4645 -1.0391,1.0391 v 3.8008 c 0,0.5746 0.4646,1.039 1.0391,1.039 h 3.457 c 0.5746,0 1.0351,-0.4644 1.0351,-1.039 v -3.8008 c 0,-0.5746 -0.4605,-1.0391 -1.0351,-1.0391 z m 6.6562,0 c -0.5745,0 -1.0391,0.4645 -1.0391,1.0391 v 3.8008 c 0,0.5746 0.4646,1.039 1.0391,1.039 h 3.457 c 0.5745,0 1.0391,-0.4644 1.0391,-1.039 v -3.8008 c 0,-0.5746 -0.4646,-1.0391 -1.0391,-1.0391 z m 6.668,0 c -0.6037,0 -1.0899,0.4863 -1.0899,1.0899 v 3.7031 c 0,0.6037 0.4862,1.0898 1.0899,1.0898 h 6.2734 c 0.6036,0 1.0899,-0.4861 1.0899,-1.0898 v -3.7031 c 0,-0.6036 -0.4863,-1.0899 -1.0899,-1.0899 z m 13.1836,0 c -0.6037,0 -1.0899,0.4863 -1.0899,1.0899 v 3.6875 c 0,0.6037 0.4863,1.0898 1.0899,1.0898 h 3.6328 c 0.6037,0 1.0898,-0.4861 1.0898,-1.0898 v -3.6875 c 0,-0.6036 -0.4862,-1.0899 -1.0898,-1.0899 z m 6.5468,0 c -0.6036,0 -1.0898,0.4863 -1.0898,1.0899 v 3.6875 c 0,0.6037 0.4862,1.0898 1.0898,1.0898 h 3.63291 c 0.6037,0 1.0898,-0.4861 1.0898,-1.0898 v -3.6875 c 0,-0.6036 -0.4861,-1.0899 -1.0898,-1.0899 z m 6.55081,0 c -0.6037,0 -1.0898,0.4863 -1.0898,1.0899 v 3.6875 c 0,0.6037 0.4862,1.0898 1.0898,1.0898 h 3.6758 c 0.6036,0 1.0898,-0.4861 1.0898,-1.0898 v -3.6875 c 0,-0.6036 -0.4862,-1.0899 -1.0898,-1.0899 z m -106.17581,0.02 c -0.5746,0 -1.0351,0.4646 -1.0351,1.0391 v 3.8008 c 0,0.5746 0.4605,1.0391 1.0351,1.0391 h 3.4571 c 0.5745,0 1.039,-0.4645 1.039,-1.0391 v -3.8008 c 0,-0.5745 -0.4645,-1.0391 -1.039,-1.0391 z m 122.70321,6.4454 c -0.6036,0 -1.0899,0.4862 -1.0899,1.0898 v 3.9922 c 0,0.6037 0.4863,1.0898 1.0899,1.0898 h 3.6757 c 0.6037,0 1.0899,-0.4861 1.0899,-1.0898 v -3.9922 c 0,-0.6036 -0.4862,-1.0898 -1.0899,-1.0898 z m 6.4765,0 c -0.6037,0 -1.0898,0.4862 -1.0898,1.0898 v 3.9922 c 0,0.6037 0.4861,1.0898 1.0898,1.0898 h 3.6758 c 0.6037,0 1.0899,-0.4861 1.0899,-1.0898 v -3.9922 c 0,-0.6036 -0.4862,-1.0898 -1.0899,-1.0898 z m -12.9531,0.01 c -0.6036,0 -1.0898,0.4863 -1.0898,1.0899 v 3.9961 c 0,0.6037 0.4862,1.0898 1.0898,1.0898 h 3.6797 c 0.6037,0 1.0898,-0.4861 1.0898,-1.0898 v -3.9961 c 0,-0.6037 -0.4862,-1.0899 -1.0898,-1.0899 z M 34.0391,103.337 c -0.5745,0 -1.0352,0.4605 -1.0352,1.0351 v 3.8047 c 0,0.5746 0.4607,1.0352 1.0352,1.0352 h 3.457 c 0.5746,0 1.0391,-0.4606 1.0391,-1.0352 v -3.8047 c 0,-0.5745 -0.4645,-1.0351 -1.0391,-1.0351 z m 6.6601,0 c -0.5746,0 -1.039,0.4605 -1.039,1.0351 v 3.8047 c 0,0.5746 0.4644,1.0352 1.039,1.0352 h 3.457 c 0.5745,0 1.0352,-0.4606 1.0352,-1.0352 v -3.8047 c 0,-0.5745 -0.4607,-1.0351 -1.0352,-1.0351 z m 6.6563,0 c -0.5746,0 -1.0391,0.4605 -1.0391,1.0351 v 3.8047 c 0,0.5746 0.4645,1.0352 1.0391,1.0352 h 3.457 c 0.5745,0 1.0352,-0.4606 1.0352,-1.0352 v -3.8047 c 0,-0.5745 -0.4606,-1.0351 -1.0352,-1.0351 z m 6.6562,0 c -0.5746,0 -1.039,0.4605 -1.039,1.0351 v 3.8047 c 0,0.5746 0.4644,1.0352 1.039,1.0352 h 3.457 c 0.5746,0 1.0352,-0.4606 1.0352,-1.0352 v -3.8047 c 0,-0.5745 -0.4606,-1.0351 -1.0352,-1.0351 z m 6.6563,0 c -0.5746,0 -1.0352,0.4605 -1.0352,1.0351 v 3.8047 c 0,0.5746 0.4606,1.0352 1.0352,1.0352 h 3.457 c 0.5746,0 1.0391,-0.4606 1.0391,-1.0352 v -3.8047 c 0,-0.5745 -0.4645,-1.0351 -1.0391,-1.0351 z m 6.6562,0 c -0.5745,0 -1.0351,0.4605 -1.0351,1.0351 v 3.8047 c 0,0.5746 0.4605,1.0352 1.0351,1.0352 h 3.457 c 0.5746,0 1.0391,-0.4606 1.0391,-1.0352 v -3.8047 c 0,-0.5745 -0.4645,-1.0351 -1.0391,-1.0351 z m 6.6563,0 c -0.5745,0 -1.0352,0.4605 -1.0352,1.0351 v 3.8047 c 0,0.5746 0.4607,1.0352 1.0352,1.0352 h 3.457 c 0.5746,0 1.0391,-0.4606 1.0391,-1.0352 v -3.8047 c 0,-0.5745 -0.4645,-1.0351 -1.0391,-1.0351 z m 6.6601,0 c -0.5746,0 -1.039,0.4605 -1.039,1.0351 v 3.8047 c 0,0.5746 0.4644,1.0352 1.039,1.0352 h 3.4571 c 0.5745,0 1.0351,-0.4606 1.0351,-1.0352 v -3.8047 c 0,-0.5745 -0.4606,-1.0351 -1.0351,-1.0351 z m 6.6563,0 c -0.5746,0 -1.0391,0.4605 -1.0391,1.0351 v 3.8047 c 0,0.5746 0.4645,1.0352 1.0391,1.0352 h 3.457 c 0.5745,0 1.0352,-0.4606 1.0352,-1.0352 v -3.8047 c 0,-0.5745 -0.4606,-1.0351 -1.0352,-1.0351 z m 6.6562,0 c -0.5746,0 -1.039,0.4605 -1.039,1.0351 v 3.8047 c 0,0.5746 0.4644,1.0352 1.039,1.0352 h 3.4571 c 0.5746,0 1.039,-0.4606 1.039,-1.0352 v -3.8047 c 0,-0.5745 -0.4644,-1.0351 -1.039,-1.0351 z m -63.1133,0.016 h -3.457 c -0.5746,0 -1.0351,0.4605 -1.0351,1.0351 v 3.8027 c 0,0.5746 0.4605,1.0352 1.0351,1.0352 h 3.457 c 0.5746,0 1.0391,-0.4606 1.0391,-1.0352 v -3.8046 c 0,-0.5745 -0.4645,-1.0352 -1.0391,-1.0352 z m -15.0937,0 c -0.6037,0 -1.0899,0.4862 -1.0899,1.0898 v 3.6875 c 0,0.6037 0.4862,1.0898 1.0899,1.0898 h 8.3711 c 0.6037,0 1.0898,-0.4861 1.0898,-1.0898 v -3.6875 c 0,-0.6037 -0.4862,-1.0899 -1.0898,-1.0898 z m 84.8125,0 c -0.6036,0 -1.0899,0.4862 -1.0899,1.0898 v 3.6797 c 0,0.6037 0.4863,1.0898 1.0899,1.0898 h 11.4492 c 0.6036,0 1.0899,-0.4862 1.0899,-1.0898 v -3.6797 c 0,-0.6037 -0.4863,-1.0899 -1.0899,-1.0898 z m 24.8789,5.8671 c -0.6037,0 -1.0898,0.4863 -1.0898,1.0899 v 3.9922 c 0,0.6037 0.4862,1.0898 1.0898,1.0898 h 3.67971 c 0.6036,0 1.0898,-0.4862 1.0898,-1.0898 V 110.31 c 0,-0.6037 -0.4862,-1.0899 -1.0898,-1.0899 z m 36.42971,0.4766 c -0.6037,0 -1.0899,0.4862 -1.0899,1.0898 v 10.6836 c 0,0.6037 0.4863,1.0899 1.0899,1.0899 h 3.414 c 0.6037,0 1.0899,-0.4863 1.0899,-1.0899 v -10.6836 c 0,-0.6037 -0.4862,-1.0898 -1.0899,-1.0898 z m -19.8047,0.027 c -0.6037,0 -1.0898,0.4843 -1.0898,1.0879 v 3.9961 c 0,0.6037 0.4862,1.0899 1.0898,1.0899 h 3.6758 c 0.6036,0 1.0898,-0.4863 1.0898,-1.0899 v -3.9961 c 0,-0.6037 -0.4862,-1.0879 -1.0898,-1.0879 z m 6.4766,0 c -0.6036,0 -1.0899,0.4843 -1.0899,1.0879 v 3.9961 c 0,0.6037 0.4863,1.0899 1.0899,1.0899 h 3.6757 c 0.6037,0 1.0899,-0.4863 1.0899,-1.0899 v -3.9961 c 0,-0.6037 -0.4863,-1.0879 -1.0899,-1.0879 z m 6.4726,0 c -0.6037,0 -1.0898,0.4843 -1.0898,1.0879 v 3.9961 c 0,0.6037 0.4861,1.0899 1.0898,1.0899 h 3.6797 c 0.6037,0 1.0898,-0.4863 1.0898,-1.0899 v -3.9961 c 0,-0.6037 -0.4861,-1.0879 -1.0898,-1.0879 z M 27.4648,110.0343 H 15.7461 c -0.6037,0 -1.0899,0.4862 -1.0899,1.0899 v 3.6875 c 0,0.6037 0.4862,1.0898 1.0899,1.0898 h 11.7187 c 0.6037,0 1.0899,-0.4862 1.0899,-1.0898 v -3.6895 c 0,-0.6036 -0.4862,-1.0898 -1.0899,-1.0898 z m 3.3907,0 c -0.5745,0 -1.0352,0.4646 -1.0352,1.0391 v 3.8008 c 0,0.5746 0.4607,1.0391 1.0352,1.0391 h 3.457 c 0.5745,0 1.0391,-0.4645 1.0391,-1.0391 v -3.8008 c 0,-0.5745 -0.4646,-1.0391 -1.0391,-1.0391 z m 6.6601,0 c -0.5746,0 -1.039,0.4646 -1.039,1.0391 v 3.8008 c 0,0.5746 0.4644,1.0391 1.039,1.0391 h 3.4571 c 0.5746,0 1.0351,-0.4645 1.0351,-1.0391 v -3.8008 c 0,-0.5745 -0.4605,-1.0391 -1.0351,-1.0391 z m 6.6563,0 c -0.5746,0 -1.0391,0.4646 -1.0391,1.0391 v 3.8008 c 0,0.5746 0.4645,1.0391 1.0391,1.0391 h 3.457 c 0.5746,0 1.0352,-0.4645 1.0352,-1.0391 v -3.8008 c 0,-0.5745 -0.4606,-1.0391 -1.0352,-1.0391 z m 6.6562,0 c -0.5746,0 -1.039,0.4646 -1.039,1.0391 v 3.8008 c 0,0.5746 0.4645,1.0391 1.039,1.0391 h 3.4571 c 0.5746,0 1.0351,-0.4645 1.0351,-1.0391 v -3.8008 c 0,-0.5745 -0.4605,-1.0391 -1.0351,-1.0391 z m 6.6563,0 c -0.5745,0 -1.0352,0.4646 -1.0352,1.0391 v 3.8008 c 0,0.5746 0.4606,1.0391 1.0352,1.0391 h 3.457 c 0.5746,0 1.0391,-0.4645 1.0391,-1.0391 v -3.8008 c 0,-0.5745 -0.4645,-1.0391 -1.0391,-1.0391 z m 6.6562,0 c -0.5745,0 -1.0351,0.4646 -1.0351,1.0391 v 3.8008 c 0,0.5746 0.4606,1.0391 1.0351,1.0391 h 3.4571 c 0.5745,0 1.039,-0.4645 1.039,-1.0391 v -3.8008 c 0,-0.5745 -0.4645,-1.0391 -1.039,-1.0391 z m 6.6563,0 c -0.5746,0 -1.0352,0.4646 -1.0352,1.0391 v 3.8008 c 0,0.5746 0.4606,1.0391 1.0352,1.0391 h 3.457 c 0.5745,0 1.0391,-0.4645 1.0391,-1.0391 v -3.8008 c 0,-0.5745 -0.4646,-1.0391 -1.0391,-1.0391 z m 6.6601,0 c -0.5746,0 -1.039,0.4646 -1.039,1.0391 v 3.8008 c 0,0.5746 0.4644,1.0391 1.039,1.0391 h 3.4571 c 0.5746,0 1.0351,-0.4645 1.0351,-1.0391 v -3.8008 c 0,-0.5745 -0.4605,-1.0391 -1.0351,-1.0391 z m 6.6563,0 c -0.5746,0 -1.0391,0.4646 -1.0391,1.0391 v 3.8008 c 0,0.5746 0.4645,1.0391 1.0391,1.0391 h 3.457 c 0.5746,0 1.0352,-0.4645 1.0352,-1.0391 v -3.8008 c 0,-0.5745 -0.4606,-1.0391 -1.0352,-1.0391 z m 6.6562,0 c -0.5746,0 -1.039,0.4646 -1.039,1.0391 v 3.8008 c 0,0.5746 0.4645,1.0391 1.039,1.0391 h 3.4571 c 0.5746,0 1.0351,-0.4645 1.0351,-1.0391 v -3.8008 c 0,-0.5745 -0.4605,-1.0391 -1.0351,-1.0391 z m 6.6641,0.059 c -0.6036,0 -1.0899,0.4862 -1.0899,1.0899 v 3.6406 c 0,0.6037 0.4863,1.0899 1.0899,1.0899 h 14.5742 c 0.6036,0 1.0899,-0.4862 1.0899,-1.0899 v -3.6406 c 0,-0.6037 -0.4863,-1.0899 -1.0899,-1.0899 z m 21.457,6.2871 c -0.6037,0 -1.0898,0.4862 -1.0898,1.0899 v 3.9961 c 0,0.6037 0.4861,1.0898 1.0898,1.0898 h 3.6758 c 0.6037,0 1.0898,-0.4861 1.0898,-1.0898 v -3.9961 c 0,-0.6037 -0.4861,-1.0899 -1.0898,-1.0899 z m 6.5469,0 c -0.6037,0 -1.0898,0.4862 -1.0898,1.0899 v 3.9961 c 0,0.6037 0.4862,1.0898 1.0898,1.0898 h 3.67971 c 0.6036,0 1.0898,-0.4861 1.0898,-1.0898 v -3.9961 c 0,-0.6037 -0.4862,-1.0899 -1.0898,-1.0899 z m 6.55081,0 c -0.6036,0 -1.0899,0.4862 -1.0899,1.0899 v 3.9961 c 0,0.6037 0.4863,1.0898 1.0899,1.0898 h 3.6758 c 0.6037,0 1.0898,-0.4861 1.0898,-1.0898 v -3.9961 c 0,-0.6037 -0.4862,-1.0899 -1.0898,-1.0899 z M 15.7461,116.7047 c -0.6037,0 -1.0899,0.4862 -1.0899,1.0898 v 3.6719 c 0,0.6036 0.4862,1.0898 1.0899,1.0898 h 6.8281 c 0.6037,0 1.0899,-0.4862 1.0899,-1.0898 v -3.6719 c 0,-0.6037 -0.4862,-1.0898 -1.0899,-1.0898 z m 17.1406,0 c -0.6037,0 -1.0898,0.4862 -1.0898,1.0898 v 3.6719 c 0,0.6036 0.4862,1.0898 1.0898,1.0898 h 6.7617 c 0.6036,0 1.0899,-0.4862 1.0899,-1.0898 v -3.6719 c 0,-0.6037 -0.4863,-1.0898 -1.0899,-1.0898 z m 10.0313,0 c -0.6037,0 -1.0899,0.4862 -1.0899,1.0898 v 3.6719 c 0,0.6036 0.4863,1.0898 1.0899,1.0898 h 42.6562 c 0.6037,0 1.0899,-0.4862 1.0899,-1.0898 v -3.6719 c 0,-0.6037 -0.4862,-1.0898 -1.0899,-1.0898 z m 45.8593,0 c -0.6036,0 -1.0898,0.4862 -1.0898,1.0898 v 3.6719 c 0,0.6036 0.4862,1.0898 1.0898,1.0898 h 6.8633 c 0.6036,0 1.0899,-0.4862 1.0899,-1.0898 v -3.6719 c 0,-0.6037 -0.4863,-1.0898 -1.0899,-1.0898 z m 16.5938,0 c -0.6037,0 -1.0899,0.4862 -1.0899,1.0898 v 3.6719 c 0,0.6036 0.4863,1.0898 1.0899,1.0898 h 6.6016 c 0.6037,0 1.0898,-0.4862 1.0898,-1.0898 v -3.6719 c 0,-0.6037 -0.4861,-1.0898 -1.0898,-1.0898 z m 36.69141,0 c -0.6037,0 -1.0898,0.4862 -1.0898,1.0898 v 3.6719 c 0,0.6036 0.4862,1.0898 1.0898,1.0898 h 10.1094 c 0.6037,0 1.0898,-0.4862 1.0898,-1.0898 v -3.6719 c 0,-0.6037 -0.4861,-1.0898 -1.0898,-1.0898 z m 12.9375,0 c -0.6036,0 -1.0898,0.4862 -1.0898,1.0898 v 3.6719 c 0,0.6036 0.4862,1.0898 1.0898,1.0898 h 3.6602 c 0.6037,0 1.0898,-0.4862 1.0898,-1.0898 v -3.6719 c 0,-0.6037 -0.4862,-1.0898 -1.0898,-1.0898 z m -65.30471,8.8632 -46.0351,34.4102 10.8164,-33.7539 h -4.9688 l -14.9687,46.7109 55.1445,-41.2304 56.09761,41.0547 -15.4414,-46.5352 h -4.99211 l 11.15231,33.6094 z" />
</svg>
