<?xml version="1.0" encoding="UTF-8" standalone="no"?>
<svg version="1.1" xmlns="http://www.w3.org/2000/svg"
     xmlns:xlink="http://www.w3.org/1999/xlink"
     viewBox="0 0 1024 512">
    <rect width="1024" height="512" fill="#000" />
    <linearGradient id="gradient" x1="0" y1="0" x2="0" y2="1">
        <stop offset="0%" stop-color="#00ff00"/>
        <stop offset="94%" stop-color="#00AF00"/>
        <stop offset="98%" stop-color="#008000"/>
    </linearGradient>
    <use xlink:href="#text"
         stroke-width="80"
         stroke="#171717"
         stroke-linejoin="round"
         stroke-linecap="round"/>
    <path id="text"
          fill="url(#gradient)"
          d="m82.5 158v20.9l15.5 13.9v61.9h47.2v-13.9h15.5v20.7l-7.99 7.03h-93.5l-7.99-7.03v-110l7.99-7.03h93.8l7.99 7.03v20.5h-15.7v-13.9h-62.7zm133 110h-30.8l-7.99-7.03v-110l7.99-7.03h15.3l7.99 7.03 0.235 20.5h54.5l7.99 7.24v89.4h-16v-82.8h-46.8v20.7l15.5 13.7v41.4l-7.99 7.03zm133-41.4h-31.5v27.5h31.5v-27.5zm123-41.4h-46.8v20.9l15.3 13.4v34.6h31.5v-68.9zm124 75.7-7.99 7.03h-78l-7.99-7.03v-20.7h15.7v13.9h31v-27.5h-38.8l-7.99-7.03v-41.2l7.99-7.03h78l7.99 7.03v20.5h-15.5v-13.7h-47v27.5h54.5l7.99 7.03zm29.4-75.7h47v20.7l-15.7 13.9v34.3h-31.3zm170 0h-31.5l-15 15.6 0.276 52.7 14.7 0.582h31.5zm36 82.8-7.99-7.03v-82.6l7.99-7.03h70.3v13.9h-47v20.7l15.5 13.7v41.4l-7.99 7.03zm-536 0-7.99-7.03v-41.2l7.99-7.03h54.8v-27.5h-47.2v13.7h-15.5v-20.7l7.75-6.83h62.7l7.75 6.83v27.9l15.5 13.7v41.2l-7.99 7.03h-77.8zm107 0-7.99-7.03v-82.6l7.99-7.03h77.8l7.99 7.03v82.6l-7.99 7.03zm208-7.03 7.99 7.03h78l7.99-7.03v-110l-7.75-6.83h-15.5l-7.99 7.03v20.5h-54.8l-7.99 7.03zm115 7.03-7.99-7.03v-82.6l7.99-7.03h77.8l7.99 7.03v82.6l-7.99 7.03zm234-82.8v20.9l15.5 13.7v41.2l-7.99 7.03h-30.8l-7.99-7.03v-75.7h-16v-13.9h16v-20.7l7.75-6.83h39.2v13.7h-31.3v13.9h31.3v13.9z"/>
    <use xlink:href="#knot"
         stroke-width="40"
         stroke="#171717"
         stroke-linejoin="round"
         stroke-linecap="round"/>
    <path id="knot"
          fill="#00c300"
          d="m741 202c0.565 0.207 12 8.09 14.3 9.84 4.7 3.61 10.5 8.88 11.9 10.9 1.08 1.48 1.97 4.11 2.26 6.67 0.345 3.05 0.332 28.2-0.0237 47.6-0.302 16.5-0.262 16-1.82 20.8-0.483 1.46-0.836 2.69-0.784 2.74 0.0522 0.0499 0.457-0.173 0.899-0.495 1.04-0.758 2.2-2.44 2.89-4.2 1.15-2.94 1.22-3.94 1.48-20.7 0.234-15.1 0.403-22 0.989-40.1l0.275-8.49 0.658-1.26c1.16-2.22 3.2-3.99 14.7-12.7 6.09-4.65 11.1-8.45 11.2-8.45 0.226 0-0.186 4.83-0.439 5.14-0.139 0.168-3.22 2.43-6.85 5.02-7.81 5.58-9.93 7.25-12.5 9.81-2.5 2.54-3.12 3.43-3.47 5.02-0.674 3.06-0.831 11.4-0.568 30 0.306 21.6 0.143 28.8-0.724 32.2-0.692 2.69-1.89 5.99-2.93 8.05-0.437 0.871-0.755 1.62-0.707 1.67 0.21 0.2 1.46-0.641 2.44-1.63 3.05-3.12 4.95-7.76 5.56-13.6 0.242-2.33 0.353-15.7 0.204-24.4-0.0468-2.72-0.0827-8.13-0.0798-12 5e-3 -6.37 0.0558-7.36 0.504-9.74 0.593-3.15 1.78-6.67 2.94-8.74 0.696-1.24 1.01-1.58 1.85-1.98 2.39-1.13 8.91-1.25 14.1-0.257l1.18 0.225v1.7c0 0.937-0.0253 1.72-0.0562 1.74-0.0307 0.0188-2.54 0.0952-5.57 0.17-6.03 0.149-6.41 0.22-7.95 1.52-1.13 0.947-1.41 1.54-1.7 3.55-0.598 4.25-0.696 7.51-0.693 23 2e-3 9.56-0.0936 17.5-0.231 19-0.643 7.27-2.16 13.1-4.74 18.2-1.25 2.46-1.46 2.73-3.41 4.48-3.66 3.3-8.56 6.49-12.8 8.31l-1.91 0.832 1.37-0.0777c3.06-0.173 10.5-4.47 19.4-11.2 1.66-1.25 3.1-2.28 3.19-2.28 0.323 0 0.875 0.95 0.875 1.51 0 0.981-1.79 3.51-3.29 4.66-7.68 5.87-13.9 9.53-19.2 11.2-1.17 0.382-2.39 0.923-2.69 1.2l-0.557 0.506 1.36 1.3 2.01-0.556c4.5-1.24 7.28-2.59 16-7.81 6.69-3.98 6.77-4.01 6.77-2.27 0 0.753-0.206 1.21-1.12 2.5-0.617 0.866-1.25 1.73-1.41 1.92-0.457 0.549-8.09 4.85-11.3 6.34-1.6 0.754-4.09 1.72-5.52 2.14-3.81 1.12-3.81 1.13-2.69 2.35 0.719 0.782 0.758 0.795 1.98 0.67 2.85-0.292 7.96-1.86 12.1-3.71 1.16-0.517 2.25-0.94 2.41-0.94 0.165 0 0.629 0.28 1.03 0.622 0.702 0.599 0.716 0.645 0.397 1.24-0.54 0.999-2.5 2.71-3.94 3.44-0.737 0.374-3.29 1.23-5.67 1.91-2.38 0.677-4.33 1.31-4.33 1.4 0 0.0943 0.42 0.491 0.933 0.882 2.37 1.8 2.7 2.46 1.69 3.36-0.65 0.583-1.5 0.593-3.19 0.0374-1.75-0.574-2.23-0.552-2.55 0.118-0.143 0.301-0.261 0.687-0.261 0.859 0 0.422-0.584 0.392-2.1-0.106-4.49-1.48-8.45-4.66-12-9.68-3.42-4.77-5.56-11-5.81-16.8-0.126-2.91 0.227-4.6 1.26-6.05 0.796-1.11 1.5-1.15 2.22-0.126 0.79 1.12 1.16 2.6 1.42 5.69 0.806 9.59 4.45 16.8 11.1 22.1 1.05 0.827 1.1 0.845 0.688 0.249-4.49-6.54-7.77-13.7-8.78-19.1-0.301-1.62-0.364-2.82-0.275-5.26 0.121-3.35 0.543-5.35 1.61-7.67 0.593-1.28 0.9-1.44 2.54-1.35l0.952 0.0546 0.113-17.6c0.0625-9.69 0.113-19.9 0.113-22.7-2e-3 -6.41-0.433-12.6-1.24-17.9-0.382-2.5-0.723-2.94-2.94-3.78-1.49-0.564-4.39-0.674-8.56-0.327-2.6 0.216-4.13-0.047-4.68-0.806-0.203-0.277-0.328-0.963-0.328-1.8 0-1.61-2e-3 -1.61 3.05-1.97 4.46-0.523 9.32-0.2 12.6 0.837 1.31 0.416 1.56 0.594 2.36 1.66 1.68 2.24 2.81 5.99 3.37 11.2 0.138 1.28 0.237 6.64 0.231 12.5-6e-3 5.61 0.0553 15.7 0.136 22.3 0.0941 7.77 0.056 14.3-0.105 18.1-0.139 3.3-0.209 6.04-0.156 6.09 0.224 0.214 1.49-2.3 1.91-3.8 0.835-2.96 0.924-4.31 1.13-17.3 0.114-7.09 0.326-18.6 0.471-25.6 0.401-19.3 0.395-21-0.0798-22.7-0.839-2.92-2.12-5.47-3.84-7.63-1.74-2.18-4.69-4.7-12.6-10.7l-8.49-6.46v-2.24c0-1.89 0.052-2.23 0.333-2.12zm-74.1 135c2.96-4.2 7.76-6.41 14.8-6.82 5.25-0.305 9.21 0.196 18.6 2.35 8.36 1.93 10 2.18 15 2.31l4.31 0.107 1.15-0.596c0.631-0.328 1.14-0.653 1.13-0.723-0.0249-0.216-3.29-2.84-5.51-4.44-4.85-3.48-9.64-5.45-14.1-5.81l-1.72-0.139-0.244-1.12c-0.491-2.26-0.475-2.32 0.788-2.64 1.69-0.426 5.9-0.225 7.76 0.37 2.51 0.807 6.04 2.62 10.1 5.21 4.54 2.88 8.12 4.75 10.4 5.44 1.87 0.565 1.91 0.633 2.11 3.31l0.138 1.86-1.77 0.665c-4.22 1.58-7.19 2.17-12 2.36-5.5 0.217-10.4-0.337-22.4-2.53-10.4-1.9-10.1-1.87-13.4-1.31-5.57 0.974-8.8 2.31-11.6 4.82-0.682 0.605-0.767 0.624-2.14 0.473-0.784-0.0865-1.65-0.24-1.93-0.34-0.796-0.288-0.629-1.18 0.529-2.82zm22.3-19.3 0.0874-0.939 0.901 0.116c1.38 0.177 2.53 1.03 3.23 2.38 0.539 1.05 0.625 1.54 0.801 4.58 0.108 1.87 0.201 3.76 0.206 4.2l8e-3 0.806h-2.13c-2.52 0-2.17 0.616-2.81-4.95-0.448-3.92-0.466-4.3-0.29-6.19zm2.88 19.4c0.741-0.178 2.21 0.0502 3.08 0.476 1.03 0.509 2.57 1.95 4 3.73 1.47 1.84 3.19 3.44 4.27 3.97 2.32 1.15 10 1.93 14 1.42 5.44-0.693 11.5-3.38 15.5-6.89 0.676-0.59 1.33-1.07 1.45-1.07 0.122 0 1.22 1.03 2.44 2.29 1.57 1.62 2.12 2.32 1.88 2.39-0.936 0.284-7.94 3.87-9.13 4.67-2.58 1.74-4.42 4.05-5.03 6.33-0.143 0.53-0.406 1.33-0.585 1.77-0.472 1.17-0.402 2.78 0.236 5.49 0.956 4.04 0.684 5.33-1.32 6.26-1.66 0.769-1.96 0.614-2.66-1.4-1.24-3.53-1.29-8.18-0.148-12.8 0.353-1.44 0.404-1.96 0.207-2.15-0.295-0.282-2.23-0.297-5.41-0.0424-1.78 0.143-2.56 0.0937-4.68-0.296-6.46-1.18-11.2-3.5-14.9-7.29-1.47-1.5-1.85-2.04-2.15-3.02-0.199-0.659-0.653-1.75-1.01-2.43l-0.646-1.23zm39.7-12.2c0.102-0.323 0.405-0.927 0.674-1.34 0.401-0.619 0.623-0.755 1.24-0.755h0.751l0.148 1.45c0.371 3.62 1.62 6.55 4.04 9.43 2.57 3.07 6.28 5.74 14 10.1 2.49 1.39 3.84 2.27 3.85 2.51 9e-3 0.434-1.17 1.42-1.92 1.6-1.2 0.288-6.97-1.36-10.3-2.94-6.39-3.04-10.7-8.15-12.3-14.5-0.443-1.76-0.546-4.47-0.211-5.53zm6.84-9.08c0.362-1.4 0.837-2.24 1.84-3.25l0.814-0.825 0.426 0.503c0.66 0.778 1.1 2.46 1.45 5.51 0.174 1.54 0.465 3.23 0.646 3.76 1.99 5.84 4.43 9.49 9.53 14.2 2.5 2.31 8.67 7.07 9.63 7.42 0.195 0.0715 0.307 0.458 0.307 1.06 0 1.11 0.134 1.11-3.25 0.0448-7.65-2.4-14-7.34-18.4-14.4-1-1.59-1.1-1.89-2.16-6.74-1.19-5.46-1.21-5.65-0.793-7.27z"/>
</svg>
